<svg width="600" height="400" viewBox="0 0 600 400" fill="none" xmlns="http://www.w3.org/2000/svg">
<rect width="600" height="400" fill="#D9D9D9" fill-opacity="0.35"/>
<rect x="33" y="27" width="534" height="345" fill="#FFFF00" fill-opacity="0.16"/>
<rect x="90.5" y="80.5" width="420" height="278" stroke="#394240" stroke-width="5"/>
<path fill-rule="evenodd" clip-rule="evenodd" d="M494 227.741V211.155L366.155 339H382.741L494 227.741ZM384.155 339H400.741L494 245.741V229.155L384.155 339ZM418.741 339H402.155L494 247.155V263.741L418.741 339ZM420.155 339H436.741L494 281.741V265.155L420.155 339ZM454.741 339H438.155L494 283.155V299.741L454.741 339ZM456.155 339H472.741L494 317.741V301.155L456.155 339ZM490.741 339H474.155L494 319.155V335.741L490.741 339ZM492.155 339H494V337.155L492.155 339ZM494 193.155V209.741L364.741 339H348.155L494 193.155ZM494 191.741V175.155L330.155 339H346.741L494 191.741ZM494 157.155V173.741L328.741 339H312.155L494 157.155ZM494 155.741V139.155L294.155 339H310.741L494 155.741ZM494 121.155V137.741L292.741 339H276.155L494 121.155ZM494 119.741V103.155L258.155 339H274.741L494 119.741ZM494 101V101.741L256.741 339H240.155L478.155 101H494ZM476.741 101H460.155L222.155 339H238.741L476.741 101ZM442.155 101H458.741L220.741 339H204.155L442.155 101ZM440.741 101H424.155L186.155 339H202.741L440.741 101ZM406.155 101H422.741L184.741 339H168.155L406.155 101ZM404.741 101H388.155L150.155 339H166.741L404.741 101ZM370.155 101H386.741L148.741 339H132.155L370.155 101ZM368.741 101H352.155L114.155 339H130.741L368.741 101ZM334.155 101H350.741L112.741 339H107V328.155L334.155 101ZM332.741 101H319.155L107 313.155V326.741L332.741 101ZM303.155 101H317.741L107 311.741V297.155L303.155 101ZM301.741 101H288.155L107 282.155V295.741L301.741 101ZM273.155 101H286.741L107 280.741V267.155L273.155 101ZM271.741 101H258.155L107 252.155V265.741L271.741 101ZM243.155 101H256.741L107 250.741V237.155L243.155 101ZM241.741 101H228.155L107 222.155V235.741L241.741 101ZM213.155 101H226.741L107 220.741V207.155L213.155 101ZM211.741 101H198.155L107 192.155V205.741L211.741 101ZM183.155 101H196.741L107 190.741V177.155L183.155 101ZM181.741 101H168.155L107 162.155V175.741L181.741 101ZM153.155 101H166.741L107 160.741V147.155L153.155 101ZM151.741 101H138.155L107 132.155V145.741L151.741 101ZM123.155 101H136.741L107 130.741V117.155L123.155 101ZM121.741 101H107V115.741L121.741 101Z" fill="#008000"/>
<g filter="url(#filter0_d_1199_9128)">
<rect x="110" y="100" width="381" height="238" stroke="#F20505" stroke-width="16" shape-rendering="crispEdges"/>
</g>
<g filter="url(#filter1_d_1199_9128)">
<rect x="159" y="137" width="283" height="166" fill="#008000"/>
</g>
<path d="M384.92 59V52.4545H385.892V53.4773H385.977C386.114 53.1278 386.334 52.8565 386.638 52.6634C386.942 52.4673 387.307 52.3693 387.733 52.3693C388.165 52.3693 388.524 52.4673 388.811 52.6634C389.101 52.8565 389.327 53.1278 389.489 53.4773H389.557C389.724 53.1392 389.976 52.8707 390.311 52.6719C390.646 52.4702 391.048 52.3693 391.517 52.3693C392.102 52.3693 392.581 52.5526 392.953 52.919C393.325 53.2827 393.511 53.8494 393.511 54.6193V59H392.506V54.6193C392.506 54.1364 392.374 53.7912 392.109 53.5838C391.845 53.3764 391.534 53.2727 391.176 53.2727C390.716 53.2727 390.359 53.4119 390.107 53.6903C389.854 53.9659 389.727 54.3153 389.727 54.7386V59H388.705V54.517C388.705 54.1449 388.584 53.8452 388.342 53.6179C388.101 53.3878 387.79 53.2727 387.409 53.2727C387.148 53.2727 386.903 53.3423 386.676 53.4815C386.452 53.6207 386.27 53.8139 386.131 54.0611C385.994 54.3054 385.926 54.5881 385.926 54.9091V59H384.92ZM397.276 59.1534C396.862 59.1534 396.485 59.0753 396.147 58.919C395.809 58.7599 395.54 58.5312 395.342 58.233C395.143 57.9318 395.043 57.5682 395.043 57.142C395.043 56.767 395.117 56.4631 395.265 56.2301C395.413 55.9943 395.61 55.8097 395.857 55.6761C396.104 55.5426 396.377 55.4432 396.675 55.3778C396.977 55.3097 397.279 55.2557 397.583 55.2159C397.981 55.1648 398.303 55.1264 398.55 55.1009C398.8 55.0724 398.982 55.0256 399.096 54.9602C399.212 54.8949 399.271 54.7812 399.271 54.6193V54.5852C399.271 54.1648 399.156 53.8381 398.925 53.6051C398.698 53.3722 398.353 53.2557 397.89 53.2557C397.41 53.2557 397.033 53.3608 396.761 53.571C396.488 53.7812 396.296 54.0057 396.185 54.2443L395.231 53.9034C395.401 53.5057 395.629 53.196 395.913 52.9744C396.2 52.75 396.512 52.5937 396.85 52.5057C397.191 52.4148 397.526 52.3693 397.856 52.3693C398.066 52.3693 398.308 52.3949 398.58 52.446C398.856 52.4943 399.121 52.5952 399.377 52.7486C399.636 52.902 399.85 53.1335 400.021 53.4432C400.191 53.7528 400.276 54.1676 400.276 54.6875V59H399.271V58.1136H399.219C399.151 58.2557 399.038 58.4077 398.879 58.5696C398.719 58.7315 398.508 58.8693 398.244 58.983C397.979 59.0966 397.657 59.1534 397.276 59.1534ZM397.43 58.25C397.827 58.25 398.163 58.1719 398.435 58.0156C398.711 57.8594 398.918 57.6577 399.058 57.4105C399.2 57.1634 399.271 56.9034 399.271 56.6307V55.7102C399.228 55.7614 399.134 55.8082 398.989 55.8509C398.847 55.8906 398.683 55.9261 398.495 55.9574C398.31 55.9858 398.13 56.0114 397.954 56.0341C397.781 56.054 397.64 56.071 397.532 56.0852C397.271 56.1193 397.026 56.1747 396.799 56.2514C396.575 56.3253 396.393 56.4375 396.254 56.5881C396.117 56.7358 396.049 56.9375 396.049 57.1932C396.049 57.5426 396.178 57.8068 396.437 57.9858C396.698 58.1619 397.029 58.25 397.43 58.25ZM402.112 59V52.4545H403.083V53.4432H403.152C403.271 53.1193 403.487 52.8565 403.799 52.6548C404.112 52.4531 404.464 52.3523 404.856 52.3523C404.93 52.3523 405.022 52.3537 405.133 52.3565C405.244 52.3594 405.328 52.3636 405.385 52.3693V53.392C405.35 53.3835 405.272 53.3707 405.15 53.3537C405.031 53.3338 404.904 53.3239 404.771 53.3239C404.453 53.3239 404.169 53.3906 403.919 53.5241C403.672 53.6548 403.475 53.8366 403.331 54.0696C403.189 54.2997 403.118 54.5625 403.118 54.858V59H402.112ZM409.02 61.5909C408.534 61.5909 408.116 61.5284 407.767 61.4034C407.417 61.2812 407.126 61.1193 406.893 60.9176C406.663 60.7188 406.48 60.5057 406.343 60.2784L407.145 59.7159C407.235 59.8352 407.35 59.9716 407.49 60.125C407.629 60.2812 407.819 60.4162 408.061 60.5298C408.305 60.6463 408.625 60.7045 409.02 60.7045C409.548 60.7045 409.984 60.5767 410.328 60.321C410.672 60.0653 410.843 59.6648 410.843 59.1193V57.7898H410.758C410.684 57.9091 410.579 58.0568 410.443 58.233C410.309 58.4062 410.116 58.5611 409.863 58.6974C409.613 58.831 409.275 58.8977 408.849 58.8977C408.321 58.8977 407.846 58.7727 407.426 58.5227C407.008 58.2727 406.677 57.9091 406.433 57.4318C406.191 56.9545 406.071 56.375 406.071 55.6932C406.071 55.0227 406.189 54.4389 406.424 53.9418C406.66 53.4418 406.988 53.0554 407.409 52.7827C407.829 52.5071 408.315 52.3693 408.866 52.3693C409.292 52.3693 409.63 52.4403 409.88 52.5824C410.133 52.7216 410.326 52.8807 410.46 53.0597C410.596 53.2358 410.701 53.3807 410.775 53.4943H410.877V52.4545H411.849V59.1875C411.849 59.75 411.721 60.2074 411.466 60.5597C411.213 60.9148 410.872 61.1747 410.443 61.3395C410.017 61.5071 409.542 61.5909 409.02 61.5909ZM408.985 57.9943C409.389 57.9943 409.73 57.902 410.008 57.7173C410.287 57.5327 410.498 57.267 410.643 56.9205C410.788 56.5739 410.86 56.1591 410.86 55.6761C410.86 55.2045 410.789 54.7884 410.647 54.4276C410.505 54.0668 410.295 53.7841 410.017 53.5795C409.738 53.375 409.395 53.2727 408.985 53.2727C408.559 53.2727 408.204 53.3807 407.92 53.5966C407.639 53.8125 407.427 54.1023 407.285 54.4659C407.146 54.8295 407.076 55.233 407.076 55.6761C407.076 56.1307 407.147 56.5327 407.289 56.8821C407.434 57.2287 407.647 57.5014 407.929 57.7003C408.213 57.8963 408.565 57.9943 408.985 57.9943ZM413.69 59V52.4545H414.696V59H413.69ZM414.201 51.3636C414.005 51.3636 413.836 51.2969 413.694 51.1634C413.555 51.0298 413.485 50.8693 413.485 50.6818C413.485 50.4943 413.555 50.3338 413.694 50.2003C413.836 50.0668 414.005 50 414.201 50C414.397 50 414.565 50.0668 414.704 50.2003C414.846 50.3338 414.917 50.4943 414.917 50.6818C414.917 50.8693 414.846 51.0298 414.704 51.1634C414.565 51.2969 414.397 51.3636 414.201 51.3636ZM417.543 55.0625V59H416.538V52.4545H417.509V53.4773H417.594C417.748 53.1449 417.981 52.8778 418.293 52.6761C418.606 52.4716 419.009 52.3693 419.504 52.3693C419.947 52.3693 420.335 52.4602 420.667 52.642C420.999 52.821 421.258 53.0938 421.442 53.4602C421.627 53.8239 421.719 54.2841 421.719 54.8409V59H420.714V54.9091C420.714 54.3949 420.58 53.9943 420.313 53.7074C420.046 53.4176 419.68 53.2727 419.214 53.2727C418.893 53.2727 418.606 53.3423 418.353 53.4815C418.103 53.6207 417.906 53.8239 417.761 54.0909C417.616 54.358 417.543 54.6818 417.543 55.0625Z" fill="black"/>
<rect width="49" height="19" transform="translate(380 68)" fill="white" fill-opacity="0.5"/>
<path d="M388.58 82.1364C387.989 82.1364 387.47 81.9957 387.024 81.7145C386.581 81.4332 386.234 81.0398 385.984 80.5341C385.737 80.0284 385.614 79.4375 385.614 78.7614C385.614 78.0795 385.737 77.4844 385.984 76.9759C386.234 76.4673 386.581 76.0724 387.024 75.7912C387.47 75.5099 387.989 75.3693 388.58 75.3693C389.17 75.3693 389.688 75.5099 390.131 75.7912C390.577 76.0724 390.923 76.4673 391.17 76.9759C391.42 77.4844 391.545 78.0795 391.545 78.7614C391.545 79.4375 391.42 80.0284 391.17 80.5341C390.923 81.0398 390.577 81.4332 390.131 81.7145C389.688 81.9957 389.17 82.1364 388.58 82.1364ZM388.58 81.233C389.028 81.233 389.398 81.1179 389.688 80.8878C389.977 80.6577 390.192 80.3551 390.331 79.9801C390.47 79.6051 390.54 79.1989 390.54 78.7614C390.54 78.3239 390.47 77.9162 390.331 77.5384C390.192 77.1605 389.977 76.8551 389.688 76.6222C389.398 76.3892 389.028 76.2727 388.58 76.2727C388.131 76.2727 387.761 76.3892 387.472 76.6222C387.182 76.8551 386.967 77.1605 386.828 77.5384C386.689 77.9162 386.619 78.3239 386.619 78.7614C386.619 79.1989 386.689 79.6051 386.828 79.9801C386.967 80.3551 387.182 80.6577 387.472 80.8878C387.761 81.1179 388.131 81.233 388.58 81.233ZM397.206 79.3239V75.4545H398.211V82H397.206V80.892H397.137C396.984 81.2244 396.745 81.5071 396.422 81.7401C396.098 81.9702 395.689 82.0852 395.194 82.0852C394.785 82.0852 394.422 81.9957 394.103 81.8168C393.785 81.6349 393.535 81.3622 393.353 80.9986C393.172 80.6321 393.081 80.1705 393.081 79.6136V75.4545H394.086V79.5455C394.086 80.0227 394.22 80.4034 394.487 80.6875C394.757 80.9716 395.1 81.1136 395.518 81.1136C395.768 81.1136 396.022 81.0497 396.281 80.9219C396.542 80.794 396.761 80.598 396.937 80.3338C397.116 80.0696 397.206 79.733 397.206 79.3239ZM402.9 75.4545V76.3068H399.508V75.4545H402.9ZM400.496 73.8864H401.502V80.125C401.502 80.4091 401.543 80.6222 401.626 80.7642C401.711 80.9034 401.819 80.9972 401.95 81.0455C402.083 81.0909 402.224 81.1136 402.371 81.1136C402.482 81.1136 402.573 81.108 402.644 81.0966C402.715 81.0824 402.772 81.071 402.815 81.0625L403.019 81.9659C402.951 81.9915 402.856 82.017 402.734 82.0426C402.612 82.071 402.457 82.0852 402.269 82.0852C401.985 82.0852 401.707 82.0241 401.434 81.902C401.164 81.7798 400.94 81.5938 400.761 81.3438C400.585 81.0938 400.496 80.7784 400.496 80.3977V73.8864ZM405.559 73.2727V82H404.553V73.2727H405.559ZM407.401 82V75.4545H408.407V82H407.401ZM407.912 74.3636C407.716 74.3636 407.547 74.2969 407.405 74.1634C407.266 74.0298 407.196 73.8693 407.196 73.6818C407.196 73.4943 407.266 73.3338 407.405 73.2003C407.547 73.0668 407.716 73 407.912 73C408.108 73 408.276 73.0668 408.415 73.2003C408.557 73.3338 408.628 73.4943 408.628 73.6818C408.628 73.8693 408.557 74.0298 408.415 74.1634C408.276 74.2969 408.108 74.3636 407.912 74.3636ZM411.254 78.0625V82H410.249V75.4545H411.22V76.4773H411.305C411.459 76.1449 411.692 75.8778 412.004 75.6761C412.317 75.4716 412.72 75.3693 413.214 75.3693C413.658 75.3693 414.045 75.4602 414.378 75.642C414.71 75.821 414.969 76.0938 415.153 76.4602C415.338 76.8239 415.43 77.2841 415.43 77.8409V82H414.425V77.9091C414.425 77.3949 414.291 76.9943 414.024 76.7074C413.757 76.4176 413.391 76.2727 412.925 76.2727C412.604 76.2727 412.317 76.3423 412.064 76.4815C411.814 76.6207 411.616 76.8239 411.472 77.0909C411.327 77.358 411.254 77.6818 411.254 78.0625ZM420.012 82.1364C419.382 82.1364 418.838 81.9972 418.38 81.7188C417.926 81.4375 417.575 81.0455 417.328 80.5426C417.083 80.0369 416.961 79.4489 416.961 78.7784C416.961 78.108 417.083 77.517 417.328 77.0057C417.575 76.4915 417.919 76.0909 418.359 75.804C418.802 75.5142 419.319 75.3693 419.91 75.3693C420.251 75.3693 420.588 75.4261 420.92 75.5398C421.252 75.6534 421.555 75.8381 421.828 76.0938C422.1 76.3466 422.318 76.6818 422.48 77.0994C422.642 77.517 422.723 78.0312 422.723 78.642V79.0682H417.677V78.1989H421.7C421.7 77.8295 421.626 77.5 421.478 77.2102C421.333 76.9205 421.126 76.6918 420.856 76.5241C420.589 76.3565 420.274 76.2727 419.91 76.2727C419.51 76.2727 419.163 76.3722 418.87 76.571C418.581 76.767 418.358 77.0227 418.201 77.3381C418.045 77.6534 417.967 77.9915 417.967 78.3523V78.9318C417.967 79.4261 418.052 79.8452 418.223 80.1889C418.396 80.5298 418.636 80.7898 418.943 80.9688C419.25 81.1449 419.606 81.233 420.012 81.233C420.277 81.233 420.515 81.196 420.728 81.1222C420.944 81.0455 421.13 80.9318 421.287 80.7812C421.443 80.6278 421.564 80.4375 421.649 80.2102L422.62 80.483C422.518 80.8125 422.346 81.1023 422.105 81.3523C421.863 81.5994 421.565 81.7926 421.21 81.9318C420.855 82.0682 420.456 82.1364 420.012 82.1364Z" fill="black"/>
<path d="M386.057 105V96.2727H387.062V99.4943H387.148C387.222 99.3807 387.324 99.2358 387.455 99.0597C387.588 98.8807 387.778 98.7216 388.026 98.5824C388.276 98.4403 388.614 98.3693 389.04 98.3693C389.591 98.3693 390.077 98.5071 390.497 98.7827C390.918 99.0582 391.246 99.4489 391.482 99.9545C391.717 100.46 391.835 101.057 391.835 101.744C391.835 102.438 391.717 103.038 391.482 103.547C391.246 104.053 390.919 104.445 390.501 104.723C390.084 104.999 389.602 105.136 389.057 105.136C388.636 105.136 388.3 105.067 388.047 104.928C387.794 104.786 387.599 104.625 387.463 104.446C387.327 104.264 387.222 104.114 387.148 103.994H387.028V105H386.057ZM387.045 101.727C387.045 102.222 387.118 102.658 387.263 103.036C387.408 103.411 387.619 103.705 387.898 103.918C388.176 104.128 388.517 104.233 388.92 104.233C389.341 104.233 389.692 104.122 389.973 103.901C390.257 103.676 390.47 103.375 390.612 102.997C390.757 102.616 390.83 102.193 390.83 101.727C390.83 101.267 390.759 100.852 390.616 100.483C390.477 100.111 390.266 99.8168 389.982 99.6009C389.7 99.3821 389.347 99.2727 388.92 99.2727C388.511 99.2727 388.168 99.3764 387.889 99.5838C387.611 99.7884 387.401 100.075 387.259 100.445C387.116 100.811 387.045 101.239 387.045 101.727ZM396.033 105.136C395.442 105.136 394.923 104.996 394.477 104.714C394.034 104.433 393.688 104.04 393.438 103.534C393.19 103.028 393.067 102.437 393.067 101.761C393.067 101.08 393.19 100.484 393.438 99.9759C393.688 99.4673 394.034 99.0724 394.477 98.7912C394.923 98.5099 395.442 98.3693 396.033 98.3693C396.624 98.3693 397.141 98.5099 397.584 98.7912C398.03 99.0724 398.376 99.4673 398.624 99.9759C398.874 100.484 398.999 101.08 398.999 101.761C398.999 102.437 398.874 103.028 398.624 103.534C398.376 104.04 398.03 104.433 397.584 104.714C397.141 104.996 396.624 105.136 396.033 105.136ZM396.033 104.233C396.482 104.233 396.851 104.118 397.141 103.888C397.43 103.658 397.645 103.355 397.784 102.98C397.923 102.605 397.993 102.199 397.993 101.761C397.993 101.324 397.923 100.916 397.784 100.538C397.645 100.161 397.43 99.8551 397.141 99.6222C396.851 99.3892 396.482 99.2727 396.033 99.2727C395.584 99.2727 395.214 99.3892 394.925 99.6222C394.635 99.8551 394.42 100.161 394.281 100.538C394.142 100.916 394.072 101.324 394.072 101.761C394.072 102.199 394.142 102.605 394.281 102.98C394.42 103.355 394.635 103.658 394.925 103.888C395.214 104.118 395.584 104.233 396.033 104.233ZM400.534 105V98.4545H401.505V99.4432H401.574C401.693 99.1193 401.909 98.8565 402.221 98.6548C402.534 98.4531 402.886 98.3523 403.278 98.3523C403.352 98.3523 403.444 98.3537 403.555 98.3565C403.666 98.3594 403.75 98.3636 403.806 98.3693V99.392C403.772 99.3835 403.694 99.3707 403.572 99.3537C403.453 99.3338 403.326 99.3239 403.193 99.3239C402.875 99.3239 402.591 99.3906 402.341 99.5241C402.093 99.6548 401.897 99.8366 401.752 100.07C401.61 100.3 401.539 100.562 401.539 100.858V105H400.534ZM407.271 105.136C406.725 105.136 406.244 104.999 405.826 104.723C405.409 104.445 405.082 104.053 404.846 103.547C404.61 103.038 404.493 102.438 404.493 101.744C404.493 101.057 404.61 100.46 404.846 99.9545C405.082 99.4489 405.41 99.0582 405.831 98.7827C406.251 98.5071 406.737 98.3693 407.288 98.3693C407.714 98.3693 408.051 98.4403 408.298 98.5824C408.548 98.7216 408.738 98.8807 408.869 99.0597C409.002 99.2358 409.106 99.3807 409.18 99.4943H409.265V96.2727H410.271V105H409.299V103.994H409.18C409.106 104.114 409.001 104.264 408.865 104.446C408.728 104.625 408.534 104.786 408.281 104.928C408.028 105.067 407.691 105.136 407.271 105.136ZM407.407 104.233C407.811 104.233 408.152 104.128 408.43 103.918C408.708 103.705 408.92 103.411 409.065 103.036C409.21 102.658 409.282 102.222 409.282 101.727C409.282 101.239 409.211 100.811 409.069 100.445C408.927 100.075 408.717 99.7884 408.439 99.5838C408.16 99.3764 407.816 99.2727 407.407 99.2727C406.981 99.2727 406.626 99.3821 406.342 99.6009C406.061 99.8168 405.849 100.111 405.707 100.483C405.568 100.852 405.498 101.267 405.498 101.727C405.498 102.193 405.569 102.616 405.711 102.997C405.856 103.375 406.069 103.676 406.35 103.901C406.635 104.122 406.987 104.233 407.407 104.233ZM414.997 105.136C414.366 105.136 413.822 104.997 413.365 104.719C412.91 104.438 412.559 104.045 412.312 103.543C412.068 103.037 411.946 102.449 411.946 101.778C411.946 101.108 412.068 100.517 412.312 100.006C412.559 99.4915 412.903 99.0909 413.343 98.804C413.787 98.5142 414.304 98.3693 414.895 98.3693C415.235 98.3693 415.572 98.4261 415.904 98.5398C416.237 98.6534 416.539 98.8381 416.812 99.0938C417.085 99.3466 417.302 99.6818 417.464 100.099C417.626 100.517 417.707 101.031 417.707 101.642V102.068H412.662V101.199H416.684C416.684 100.83 416.61 100.5 416.463 100.21C416.318 99.9205 416.11 99.6918 415.841 99.5241C415.574 99.3565 415.258 99.2727 414.895 99.2727C414.494 99.2727 414.147 99.3722 413.855 99.571C413.565 99.767 413.342 100.023 413.186 100.338C413.029 100.653 412.951 100.991 412.951 101.352V101.932C412.951 102.426 413.037 102.845 413.207 103.189C413.38 103.53 413.62 103.79 413.927 103.969C414.234 104.145 414.591 104.233 414.997 104.233C415.261 104.233 415.5 104.196 415.713 104.122C415.929 104.045 416.115 103.932 416.271 103.781C416.427 103.628 416.548 103.437 416.633 103.21L417.605 103.483C417.502 103.812 417.331 104.102 417.089 104.352C416.848 104.599 416.549 104.793 416.194 104.932C415.839 105.068 415.44 105.136 414.997 105.136ZM419.237 105V98.4545H420.208V99.4432H420.277C420.396 99.1193 420.612 98.8565 420.924 98.6548C421.237 98.4531 421.589 98.3523 421.981 98.3523C422.055 98.3523 422.147 98.3537 422.258 98.3565C422.369 98.3594 422.453 98.3636 422.51 98.3693V99.392C422.475 99.3835 422.397 99.3707 422.275 99.3537C422.156 99.3338 422.029 99.3239 421.896 99.3239C421.578 99.3239 421.294 99.3906 421.044 99.5241C420.797 99.6548 420.6 99.8366 420.456 100.07C420.314 100.3 420.243 100.562 420.243 100.858V105H419.237Z" fill="black"/>
<path d="M384.92 129.455V120.455H385.892V121.494H386.011C386.085 121.381 386.188 121.236 386.318 121.06C386.452 120.881 386.642 120.722 386.889 120.582C387.139 120.44 387.477 120.369 387.903 120.369C388.455 120.369 388.94 120.507 389.361 120.783C389.781 121.058 390.109 121.449 390.345 121.955C390.581 122.46 390.699 123.057 390.699 123.744C390.699 124.438 390.581 125.038 390.345 125.547C390.109 126.053 389.783 126.445 389.365 126.723C388.947 126.999 388.466 127.136 387.92 127.136C387.5 127.136 387.163 127.067 386.911 126.928C386.658 126.786 386.463 126.625 386.327 126.446C386.19 126.264 386.085 126.114 386.011 125.994H385.926V129.455H384.92ZM385.909 123.727C385.909 124.222 385.982 124.658 386.126 125.036C386.271 125.411 386.483 125.705 386.761 125.918C387.04 126.128 387.381 126.233 387.784 126.233C388.205 126.233 388.555 126.122 388.837 125.901C389.121 125.676 389.334 125.375 389.476 124.997C389.621 124.616 389.693 124.193 389.693 123.727C389.693 123.267 389.622 122.852 389.48 122.483C389.341 122.111 389.129 121.817 388.845 121.601C388.564 121.382 388.21 121.273 387.784 121.273C387.375 121.273 387.031 121.376 386.753 121.584C386.474 121.788 386.264 122.075 386.122 122.445C385.98 122.811 385.909 123.239 385.909 123.727ZM394.159 127.153C393.744 127.153 393.368 127.075 393.03 126.919C392.692 126.76 392.423 126.531 392.224 126.233C392.026 125.932 391.926 125.568 391.926 125.142C391.926 124.767 392 124.463 392.148 124.23C392.295 123.994 392.493 123.81 392.74 123.676C392.987 123.543 393.26 123.443 393.558 123.378C393.859 123.31 394.162 123.256 394.466 123.216C394.864 123.165 395.186 123.126 395.433 123.101C395.683 123.072 395.865 123.026 395.979 122.96C396.095 122.895 396.153 122.781 396.153 122.619V122.585C396.153 122.165 396.038 121.838 395.808 121.605C395.581 121.372 395.236 121.256 394.773 121.256C394.293 121.256 393.916 121.361 393.643 121.571C393.371 121.781 393.179 122.006 393.068 122.244L392.114 121.903C392.284 121.506 392.511 121.196 392.795 120.974C393.082 120.75 393.395 120.594 393.733 120.506C394.074 120.415 394.409 120.369 394.739 120.369C394.949 120.369 395.19 120.395 395.463 120.446C395.739 120.494 396.004 120.595 396.26 120.749C396.518 120.902 396.733 121.134 396.903 121.443C397.074 121.753 397.159 122.168 397.159 122.688V127H396.153V126.114H396.102C396.034 126.256 395.92 126.408 395.761 126.57C395.602 126.732 395.391 126.869 395.126 126.983C394.862 127.097 394.54 127.153 394.159 127.153ZM394.312 126.25C394.71 126.25 395.045 126.172 395.318 126.016C395.594 125.859 395.801 125.658 395.94 125.411C396.082 125.163 396.153 124.903 396.153 124.631V123.71C396.111 123.761 396.017 123.808 395.872 123.851C395.73 123.891 395.565 123.926 395.378 123.957C395.193 123.986 395.013 124.011 394.837 124.034C394.663 124.054 394.523 124.071 394.415 124.085C394.153 124.119 393.909 124.175 393.682 124.251C393.457 124.325 393.276 124.437 393.136 124.588C393 124.736 392.932 124.937 392.932 125.193C392.932 125.543 393.061 125.807 393.32 125.986C393.581 126.162 393.912 126.25 394.312 126.25ZM401.466 127.136C400.921 127.136 400.439 126.999 400.022 126.723C399.604 126.445 399.277 126.053 399.042 125.547C398.806 125.038 398.688 124.438 398.688 123.744C398.688 123.057 398.806 122.46 399.042 121.955C399.277 121.449 399.605 121.058 400.026 120.783C400.446 120.507 400.932 120.369 401.483 120.369C401.909 120.369 402.246 120.44 402.493 120.582C402.743 120.722 402.934 120.881 403.064 121.06C403.198 121.236 403.301 121.381 403.375 121.494H403.461V118.273H404.466V127H403.495V125.994H403.375C403.301 126.114 403.196 126.264 403.06 126.446C402.924 126.625 402.729 126.786 402.476 126.928C402.223 127.067 401.887 127.136 401.466 127.136ZM401.603 126.233C402.006 126.233 402.347 126.128 402.625 125.918C402.904 125.705 403.115 125.411 403.26 125.036C403.405 124.658 403.478 124.222 403.478 123.727C403.478 123.239 403.407 122.811 403.265 122.445C403.123 122.075 402.912 121.788 402.634 121.584C402.355 121.376 402.012 121.273 401.603 121.273C401.176 121.273 400.821 121.382 400.537 121.601C400.256 121.817 400.044 122.111 399.902 122.483C399.763 122.852 399.694 123.267 399.694 123.727C399.694 124.193 399.765 124.616 399.907 124.997C400.051 125.375 400.265 125.676 400.546 125.901C400.83 126.122 401.182 126.233 401.603 126.233ZM408.919 127.136C408.374 127.136 407.892 126.999 407.475 126.723C407.057 126.445 406.73 126.053 406.495 125.547C406.259 125.038 406.141 124.438 406.141 123.744C406.141 123.057 406.259 122.46 406.495 121.955C406.73 121.449 407.059 121.058 407.479 120.783C407.9 120.507 408.385 120.369 408.936 120.369C409.363 120.369 409.699 120.44 409.946 120.582C410.196 120.722 410.387 120.881 410.517 121.06C410.651 121.236 410.755 121.381 410.828 121.494H410.914V118.273H411.919V127H410.948V125.994H410.828C410.755 126.114 410.65 126.264 410.513 126.446C410.377 126.625 410.182 126.786 409.929 126.928C409.676 127.067 409.34 127.136 408.919 127.136ZM409.056 126.233C409.459 126.233 409.8 126.128 410.078 125.918C410.357 125.705 410.569 125.411 410.713 125.036C410.858 124.658 410.931 124.222 410.931 123.727C410.931 123.239 410.86 122.811 410.718 122.445C410.576 122.075 410.365 121.788 410.087 121.584C409.809 121.376 409.465 121.273 409.056 121.273C408.63 121.273 408.275 121.382 407.99 121.601C407.709 121.817 407.498 122.111 407.355 122.483C407.216 122.852 407.147 123.267 407.147 123.727C407.147 124.193 407.218 124.616 407.36 124.997C407.505 125.375 407.718 125.676 407.999 125.901C408.283 126.122 408.635 126.233 409.056 126.233ZM413.901 127V120.455H414.907V127H413.901ZM414.412 119.364C414.216 119.364 414.047 119.297 413.905 119.163C413.766 119.03 413.696 118.869 413.696 118.682C413.696 118.494 413.766 118.334 413.905 118.2C414.047 118.067 414.216 118 414.412 118C414.608 118 414.776 118.067 414.915 118.2C415.057 118.334 415.128 118.494 415.128 118.682C415.128 118.869 415.057 119.03 414.915 119.163C414.776 119.297 414.608 119.364 414.412 119.364ZM417.754 123.062V127H416.749V120.455H417.72V121.477H417.805C417.959 121.145 418.192 120.878 418.504 120.676C418.817 120.472 419.22 120.369 419.714 120.369C420.158 120.369 420.545 120.46 420.878 120.642C421.21 120.821 421.469 121.094 421.653 121.46C421.838 121.824 421.93 122.284 421.93 122.841V127H420.925V122.909C420.925 122.395 420.791 121.994 420.524 121.707C420.257 121.418 419.891 121.273 419.425 121.273C419.104 121.273 418.817 121.342 418.564 121.482C418.314 121.621 418.116 121.824 417.972 122.091C417.827 122.358 417.754 122.682 417.754 123.062ZM426.41 129.591C425.924 129.591 425.507 129.528 425.157 129.403C424.808 129.281 424.517 129.119 424.284 128.918C424.054 128.719 423.87 128.506 423.734 128.278L424.535 127.716C424.626 127.835 424.741 127.972 424.88 128.125C425.02 128.281 425.21 128.416 425.451 128.53C425.696 128.646 426.015 128.705 426.41 128.705C426.939 128.705 427.375 128.577 427.718 128.321C428.062 128.065 428.234 127.665 428.234 127.119V125.79H428.149C428.075 125.909 427.97 126.057 427.833 126.233C427.7 126.406 427.507 126.561 427.254 126.697C427.004 126.831 426.666 126.898 426.24 126.898C425.711 126.898 425.237 126.773 424.816 126.523C424.399 126.273 424.068 125.909 423.824 125.432C423.582 124.955 423.461 124.375 423.461 123.693C423.461 123.023 423.579 122.439 423.815 121.942C424.051 121.442 424.379 121.055 424.799 120.783C425.22 120.507 425.706 120.369 426.257 120.369C426.683 120.369 427.021 120.44 427.271 120.582C427.524 120.722 427.717 120.881 427.85 121.06C427.987 121.236 428.092 121.381 428.166 121.494H428.268V120.455H429.24V127.188C429.24 127.75 429.112 128.207 428.856 128.56C428.603 128.915 428.262 129.175 427.833 129.339C427.407 129.507 426.933 129.591 426.41 129.591ZM426.376 125.994C426.779 125.994 427.12 125.902 427.399 125.717C427.677 125.533 427.889 125.267 428.034 124.92C428.179 124.574 428.251 124.159 428.251 123.676C428.251 123.205 428.18 122.788 428.038 122.428C427.896 122.067 427.686 121.784 427.407 121.58C427.129 121.375 426.785 121.273 426.376 121.273C425.95 121.273 425.595 121.381 425.311 121.597C425.029 121.812 424.818 122.102 424.676 122.466C424.537 122.83 424.467 123.233 424.467 123.676C424.467 124.131 424.538 124.533 424.68 124.882C424.825 125.229 425.038 125.501 425.319 125.7C425.603 125.896 425.956 125.994 426.376 125.994Z" fill="black"/>
<path d="M387.58 155.136C386.966 155.136 386.438 154.991 385.994 154.702C385.551 154.412 385.21 154.013 384.972 153.504C384.733 152.996 384.614 152.415 384.614 151.761C384.614 151.097 384.736 150.51 384.98 150.001C385.227 149.49 385.571 149.091 386.011 148.804C386.455 148.514 386.972 148.369 387.562 148.369C388.023 148.369 388.438 148.455 388.807 148.625C389.176 148.795 389.479 149.034 389.714 149.341C389.95 149.648 390.097 150.006 390.153 150.415H389.148C389.071 150.116 388.901 149.852 388.636 149.622C388.375 149.389 388.023 149.273 387.58 149.273C387.188 149.273 386.844 149.375 386.548 149.58C386.256 149.781 386.027 150.067 385.862 150.436C385.7 150.803 385.619 151.233 385.619 151.727C385.619 152.233 385.699 152.673 385.858 153.048C386.02 153.423 386.247 153.714 386.54 153.922C386.835 154.129 387.182 154.233 387.58 154.233C387.841 154.233 388.078 154.188 388.291 154.097C388.504 154.006 388.685 153.875 388.832 153.705C388.98 153.534 389.085 153.33 389.148 153.091H390.153C390.097 153.477 389.956 153.825 389.732 154.135C389.51 154.442 389.216 154.686 388.849 154.868C388.486 155.047 388.063 155.136 387.58 155.136ZM394.283 155.136C393.692 155.136 393.173 154.996 392.727 154.714C392.284 154.433 391.938 154.04 391.688 153.534C391.44 153.028 391.317 152.437 391.317 151.761C391.317 151.08 391.44 150.484 391.688 149.976C391.938 149.467 392.284 149.072 392.727 148.791C393.173 148.51 393.692 148.369 394.283 148.369C394.874 148.369 395.391 148.51 395.834 148.791C396.28 149.072 396.626 149.467 396.874 149.976C397.124 150.484 397.249 151.08 397.249 151.761C397.249 152.437 397.124 153.028 396.874 153.534C396.626 154.04 396.28 154.433 395.834 154.714C395.391 154.996 394.874 155.136 394.283 155.136ZM394.283 154.233C394.732 154.233 395.101 154.118 395.391 153.888C395.68 153.658 395.895 153.355 396.034 152.98C396.173 152.605 396.243 152.199 396.243 151.761C396.243 151.324 396.173 150.916 396.034 150.538C395.895 150.161 395.68 149.855 395.391 149.622C395.101 149.389 394.732 149.273 394.283 149.273C393.834 149.273 393.464 149.389 393.175 149.622C392.885 149.855 392.67 150.161 392.531 150.538C392.392 150.916 392.322 151.324 392.322 151.761C392.322 152.199 392.392 152.605 392.531 152.98C392.67 153.355 392.885 153.658 393.175 153.888C393.464 154.118 393.834 154.233 394.283 154.233ZM399.789 151.062V155H398.784V148.455H399.755V149.477H399.841C399.994 149.145 400.227 148.878 400.539 148.676C400.852 148.472 401.255 148.369 401.75 148.369C402.193 148.369 402.581 148.46 402.913 148.642C403.245 148.821 403.504 149.094 403.689 149.46C403.873 149.824 403.966 150.284 403.966 150.841V155H402.96V150.909C402.96 150.395 402.826 149.994 402.559 149.707C402.292 149.418 401.926 149.273 401.46 149.273C401.139 149.273 400.852 149.342 400.599 149.482C400.349 149.621 400.152 149.824 400.007 150.091C399.862 150.358 399.789 150.682 399.789 151.062ZM408.65 148.455V149.307H405.258V148.455H408.65ZM406.246 146.886H407.252V153.125C407.252 153.409 407.293 153.622 407.376 153.764C407.461 153.903 407.569 153.997 407.7 154.045C407.833 154.091 407.974 154.114 408.121 154.114C408.232 154.114 408.323 154.108 408.394 154.097C408.465 154.082 408.522 154.071 408.565 154.062L408.769 154.966C408.701 154.991 408.606 155.017 408.484 155.043C408.362 155.071 408.207 155.085 408.019 155.085C407.735 155.085 407.457 155.024 407.184 154.902C406.914 154.78 406.69 154.594 406.511 154.344C406.335 154.094 406.246 153.778 406.246 153.398V146.886ZM412.837 155.136C412.206 155.136 411.662 154.997 411.205 154.719C410.75 154.438 410.399 154.045 410.152 153.543C409.908 153.037 409.786 152.449 409.786 151.778C409.786 151.108 409.908 150.517 410.152 150.006C410.399 149.491 410.743 149.091 411.183 148.804C411.626 148.514 412.143 148.369 412.734 148.369C413.075 148.369 413.412 148.426 413.744 148.54C414.077 148.653 414.379 148.838 414.652 149.094C414.925 149.347 415.142 149.682 415.304 150.099C415.466 150.517 415.547 151.031 415.547 151.642V152.068H410.501V151.199H414.524C414.524 150.83 414.45 150.5 414.303 150.21C414.158 149.92 413.95 149.692 413.68 149.524C413.413 149.357 413.098 149.273 412.734 149.273C412.334 149.273 411.987 149.372 411.695 149.571C411.405 149.767 411.182 150.023 411.026 150.338C410.869 150.653 410.791 150.991 410.791 151.352V151.932C410.791 152.426 410.876 152.845 411.047 153.189C411.22 153.53 411.46 153.79 411.767 153.969C412.074 154.145 412.43 154.233 412.837 154.233C413.101 154.233 413.339 154.196 413.553 154.122C413.768 154.045 413.955 153.932 414.111 153.781C414.267 153.628 414.388 153.437 414.473 153.21L415.445 153.483C415.342 153.812 415.17 154.102 414.929 154.352C414.688 154.599 414.389 154.793 414.034 154.932C413.679 155.068 413.28 155.136 412.837 155.136ZM418.082 151.062V155H417.077V148.455H418.048V149.477H418.134C418.287 149.145 418.52 148.878 418.832 148.676C419.145 148.472 419.548 148.369 420.043 148.369C420.486 148.369 420.874 148.46 421.206 148.642C421.538 148.821 421.797 149.094 421.982 149.46C422.166 149.824 422.259 150.284 422.259 150.841V155H421.253V150.909C421.253 150.395 421.119 149.994 420.852 149.707C420.585 149.418 420.219 149.273 419.753 149.273C419.432 149.273 419.145 149.342 418.892 149.482C418.642 149.621 418.445 149.824 418.3 150.091C418.155 150.358 418.082 150.682 418.082 151.062ZM426.943 148.455V149.307H423.551V148.455H426.943ZM424.539 146.886H425.545V153.125C425.545 153.409 425.586 153.622 425.669 153.764C425.754 153.903 425.862 153.997 425.993 154.045C426.126 154.091 426.267 154.114 426.414 154.114C426.525 154.114 426.616 154.108 426.687 154.097C426.758 154.082 426.815 154.071 426.858 154.062L427.062 154.966C426.994 154.991 426.899 155.017 426.777 155.043C426.654 155.071 426.5 155.085 426.312 155.085C426.028 155.085 425.75 155.024 425.477 154.902C425.207 154.78 424.983 154.594 424.804 154.344C424.627 154.094 424.539 153.778 424.539 153.398V146.886Z" fill="black"/>
<path d="M118 256L123 258.887V253.113L118 256ZM483 256L478 253.113V258.887L483 256ZM122.5 256.5L478.5 256.5V255.5L122.5 255.5V256.5Z" fill="white"/>
<path d="M102 282L107 284.887L107 279.113L102 282ZM499 282L494 279.113L494 284.887L499 282ZM106.5 282.5L494.5 282.5L494.5 281.5L106.5 281.5L106.5 282.5Z" fill="white"/>
<path d="M311.58 253.136C310.966 253.136 310.438 252.991 309.994 252.702C309.551 252.412 309.21 252.013 308.972 251.504C308.733 250.996 308.614 250.415 308.614 249.761C308.614 249.097 308.736 248.51 308.98 248.001C309.227 247.49 309.571 247.091 310.011 246.804C310.455 246.514 310.972 246.369 311.562 246.369C312.023 246.369 312.438 246.455 312.807 246.625C313.176 246.795 313.479 247.034 313.714 247.341C313.95 247.648 314.097 248.006 314.153 248.415H313.148C313.071 248.116 312.901 247.852 312.636 247.622C312.375 247.389 312.023 247.273 311.58 247.273C311.188 247.273 310.844 247.375 310.548 247.58C310.256 247.781 310.027 248.067 309.862 248.436C309.7 248.803 309.619 249.233 309.619 249.727C309.619 250.233 309.699 250.673 309.858 251.048C310.02 251.423 310.247 251.714 310.54 251.922C310.835 252.129 311.182 252.233 311.58 252.233C311.841 252.233 312.078 252.188 312.291 252.097C312.504 252.006 312.685 251.875 312.832 251.705C312.98 251.534 313.085 251.33 313.148 251.091H314.153C314.097 251.477 313.956 251.825 313.732 252.135C313.51 252.442 313.216 252.686 312.849 252.868C312.486 253.047 312.063 253.136 311.58 253.136ZM316.629 244.273V253H315.624V244.273H316.629ZM318.471 253V246.455H319.477V253H318.471ZM318.983 245.364C318.787 245.364 318.618 245.297 318.475 245.163C318.336 245.03 318.267 244.869 318.267 244.682C318.267 244.494 318.336 244.334 318.475 244.2C318.618 244.067 318.787 244 318.983 244C319.179 244 319.346 244.067 319.485 244.2C319.627 244.334 319.699 244.494 319.699 244.682C319.699 244.869 319.627 245.03 319.485 245.163C319.346 245.297 319.179 245.364 318.983 245.364ZM324.063 253.136C323.433 253.136 322.888 252.997 322.431 252.719C321.977 252.438 321.626 252.045 321.379 251.543C321.134 251.037 321.012 250.449 321.012 249.778C321.012 249.108 321.134 248.517 321.379 248.006C321.626 247.491 321.969 247.091 322.41 246.804C322.853 246.514 323.37 246.369 323.961 246.369C324.302 246.369 324.638 246.426 324.971 246.54C325.303 246.653 325.606 246.838 325.879 247.094C326.151 247.347 326.369 247.682 326.531 248.099C326.692 248.517 326.773 249.031 326.773 249.642V250.068H321.728V249.199H325.751C325.751 248.83 325.677 248.5 325.529 248.21C325.384 247.92 325.177 247.692 324.907 247.524C324.64 247.357 324.325 247.273 323.961 247.273C323.56 247.273 323.214 247.372 322.921 247.571C322.631 247.767 322.408 248.023 322.252 248.338C322.096 248.653 322.018 248.991 322.018 249.352V249.932C322.018 250.426 322.103 250.845 322.273 251.189C322.447 251.53 322.687 251.79 322.994 251.969C323.3 252.145 323.657 252.233 324.063 252.233C324.327 252.233 324.566 252.196 324.779 252.122C324.995 252.045 325.181 251.932 325.337 251.781C325.494 251.628 325.614 251.437 325.7 251.21L326.671 251.483C326.569 251.812 326.397 252.102 326.156 252.352C325.914 252.599 325.616 252.793 325.261 252.932C324.906 253.068 324.506 253.136 324.063 253.136ZM329.309 249.062V253H328.303V246.455H329.275V247.477H329.36C329.513 247.145 329.746 246.878 330.059 246.676C330.371 246.472 330.775 246.369 331.269 246.369C331.712 246.369 332.1 246.46 332.433 246.642C332.765 246.821 333.023 247.094 333.208 247.46C333.393 247.824 333.485 248.284 333.485 248.841V253H332.479V248.909C332.479 248.395 332.346 247.994 332.079 247.707C331.812 247.418 331.445 247.273 330.979 247.273C330.658 247.273 330.371 247.342 330.119 247.482C329.869 247.621 329.671 247.824 329.526 248.091C329.381 248.358 329.309 248.682 329.309 249.062ZM338.169 246.455V247.307H334.777V246.455H338.169ZM335.766 244.886H336.772V251.125C336.772 251.409 336.813 251.622 336.895 251.764C336.98 251.903 337.088 251.997 337.219 252.045C337.353 252.091 337.493 252.114 337.641 252.114C337.752 252.114 337.843 252.108 337.914 252.097C337.985 252.082 338.042 252.071 338.084 252.062L338.289 252.966C338.221 252.991 338.125 253.017 338.003 253.043C337.881 253.071 337.726 253.085 337.539 253.085C337.255 253.085 336.976 253.024 336.703 252.902C336.434 252.78 336.209 252.594 336.03 252.344C335.854 252.094 335.766 251.778 335.766 251.398V244.886ZM341.287 253L338.9 244.273H339.974L341.798 251.381H341.883L343.741 244.273H344.934L346.792 251.381H346.877L348.701 244.273H349.775L347.389 253H346.298L344.372 246.045H344.304L342.377 253H341.287ZM350.956 253V246.455H351.961V253H350.956ZM351.467 245.364C351.271 245.364 351.102 245.297 350.96 245.163C350.821 245.03 350.751 244.869 350.751 244.682C350.751 244.494 350.821 244.334 350.96 244.2C351.102 244.067 351.271 244 351.467 244C351.663 244 351.831 244.067 351.97 244.2C352.112 244.334 352.183 244.494 352.183 244.682C352.183 244.869 352.112 245.03 351.97 245.163C351.831 245.297 351.663 245.364 351.467 245.364ZM356.275 253.136C355.729 253.136 355.248 252.999 354.83 252.723C354.413 252.445 354.086 252.053 353.85 251.547C353.614 251.038 353.496 250.438 353.496 249.744C353.496 249.057 353.614 248.46 353.85 247.955C354.086 247.449 354.414 247.058 354.835 246.783C355.255 246.507 355.741 246.369 356.292 246.369C356.718 246.369 357.055 246.44 357.302 246.582C357.552 246.722 357.742 246.881 357.873 247.06C358.006 247.236 358.11 247.381 358.184 247.494H358.269V244.273H359.275V253H358.303V251.994H358.184C358.11 252.114 358.005 252.264 357.869 252.446C357.732 252.625 357.538 252.786 357.285 252.928C357.032 253.067 356.695 253.136 356.275 253.136ZM356.411 252.233C356.815 252.233 357.156 252.128 357.434 251.918C357.712 251.705 357.924 251.411 358.069 251.036C358.214 250.658 358.286 250.222 358.286 249.727C358.286 249.239 358.215 248.811 358.073 248.445C357.931 248.075 357.721 247.788 357.442 247.584C357.164 247.376 356.82 247.273 356.411 247.273C355.985 247.273 355.63 247.382 355.346 247.601C355.065 247.817 354.853 248.111 354.711 248.483C354.572 248.852 354.502 249.267 354.502 249.727C354.502 250.193 354.573 250.616 354.715 250.997C354.86 251.375 355.073 251.676 355.354 251.901C355.638 252.122 355.991 252.233 356.411 252.233ZM364.103 246.455V247.307H360.711V246.455H364.103ZM361.7 244.886H362.705V251.125C362.705 251.409 362.746 251.622 362.829 251.764C362.914 251.903 363.022 251.997 363.153 252.045C363.286 252.091 363.427 252.114 363.575 252.114C363.685 252.114 363.776 252.108 363.847 252.097C363.918 252.082 363.975 252.071 364.018 252.062L364.222 252.966C364.154 252.991 364.059 253.017 363.937 253.043C363.815 253.071 363.66 253.085 363.472 253.085C363.188 253.085 362.91 253.024 362.637 252.902C362.367 252.78 362.143 252.594 361.964 252.344C361.788 252.094 361.7 251.778 361.7 251.398V244.886ZM366.762 249.062V253H365.756V244.273H366.762V247.477H366.847C367.001 247.139 367.231 246.871 367.538 246.672C367.847 246.47 368.259 246.369 368.773 246.369C369.219 246.369 369.61 246.459 369.945 246.638C370.281 246.814 370.54 247.085 370.725 247.452C370.913 247.815 371.006 248.278 371.006 248.841V253H370.001V248.909C370.001 248.389 369.866 247.987 369.596 247.703C369.329 247.416 368.958 247.273 368.484 247.273C368.154 247.273 367.859 247.342 367.597 247.482C367.339 247.621 367.134 247.824 366.984 248.091C366.836 248.358 366.762 248.682 366.762 249.062Z" fill="white"/>
<path d="M127.58 149.136C126.966 149.136 126.438 148.991 125.994 148.702C125.551 148.412 125.21 148.013 124.972 147.504C124.733 146.996 124.614 146.415 124.614 145.761C124.614 145.097 124.736 144.51 124.98 144.001C125.227 143.49 125.571 143.091 126.011 142.804C126.455 142.514 126.972 142.369 127.562 142.369C128.023 142.369 128.438 142.455 128.807 142.625C129.176 142.795 129.479 143.034 129.714 143.341C129.95 143.648 130.097 144.006 130.153 144.415H129.148C129.071 144.116 128.901 143.852 128.636 143.622C128.375 143.389 128.023 143.273 127.58 143.273C127.188 143.273 126.844 143.375 126.548 143.58C126.256 143.781 126.027 144.067 125.862 144.436C125.7 144.803 125.619 145.233 125.619 145.727C125.619 146.233 125.699 146.673 125.858 147.048C126.02 147.423 126.247 147.714 126.54 147.922C126.835 148.129 127.182 148.233 127.58 148.233C127.841 148.233 128.078 148.188 128.291 148.097C128.504 148.006 128.685 147.875 128.832 147.705C128.98 147.534 129.085 147.33 129.148 147.091H130.153C130.097 147.477 129.956 147.825 129.732 148.135C129.51 148.442 129.216 148.686 128.849 148.868C128.486 149.047 128.063 149.136 127.58 149.136ZM132.629 140.273V149H131.624V140.273H132.629ZM134.471 149V142.455H135.477V149H134.471ZM134.983 141.364C134.787 141.364 134.618 141.297 134.475 141.163C134.336 141.03 134.267 140.869 134.267 140.682C134.267 140.494 134.336 140.334 134.475 140.2C134.618 140.067 134.787 140 134.983 140C135.179 140 135.346 140.067 135.485 140.2C135.627 140.334 135.699 140.494 135.699 140.682C135.699 140.869 135.627 141.03 135.485 141.163C135.346 141.297 135.179 141.364 134.983 141.364ZM140.063 149.136C139.433 149.136 138.888 148.997 138.431 148.719C137.977 148.438 137.626 148.045 137.379 147.543C137.134 147.037 137.012 146.449 137.012 145.778C137.012 145.108 137.134 144.517 137.379 144.006C137.626 143.491 137.969 143.091 138.41 142.804C138.853 142.514 139.37 142.369 139.961 142.369C140.302 142.369 140.638 142.426 140.971 142.54C141.303 142.653 141.606 142.838 141.879 143.094C142.151 143.347 142.369 143.682 142.531 144.099C142.692 144.517 142.773 145.031 142.773 145.642V146.068H137.728V145.199H141.751C141.751 144.83 141.677 144.5 141.529 144.21C141.384 143.92 141.177 143.692 140.907 143.524C140.64 143.357 140.325 143.273 139.961 143.273C139.56 143.273 139.214 143.372 138.921 143.571C138.631 143.767 138.408 144.023 138.252 144.338C138.096 144.653 138.018 144.991 138.018 145.352V145.932C138.018 146.426 138.103 146.845 138.273 147.189C138.447 147.53 138.687 147.79 138.994 147.969C139.3 148.145 139.657 148.233 140.063 148.233C140.327 148.233 140.566 148.196 140.779 148.122C140.995 148.045 141.181 147.932 141.337 147.781C141.494 147.628 141.614 147.437 141.7 147.21L142.671 147.483C142.569 147.812 142.397 148.102 142.156 148.352C141.914 148.599 141.616 148.793 141.261 148.932C140.906 149.068 140.506 149.136 140.063 149.136ZM145.309 145.062V149H144.303V142.455H145.275V143.477H145.36C145.513 143.145 145.746 142.878 146.059 142.676C146.371 142.472 146.775 142.369 147.269 142.369C147.712 142.369 148.1 142.46 148.433 142.642C148.765 142.821 149.023 143.094 149.208 143.46C149.393 143.824 149.485 144.284 149.485 144.841V149H148.479V144.909C148.479 144.395 148.346 143.994 148.079 143.707C147.812 143.418 147.445 143.273 146.979 143.273C146.658 143.273 146.371 143.342 146.119 143.482C145.869 143.621 145.671 143.824 145.526 144.091C145.381 144.358 145.309 144.682 145.309 145.062ZM154.169 142.455V143.307H150.777V142.455H154.169ZM151.766 140.886H152.772V147.125C152.772 147.409 152.813 147.622 152.895 147.764C152.98 147.903 153.088 147.997 153.219 148.045C153.353 148.091 153.493 148.114 153.641 148.114C153.752 148.114 153.843 148.108 153.914 148.097C153.985 148.082 154.042 148.071 154.084 148.062L154.289 148.966C154.221 148.991 154.125 149.017 154.003 149.043C153.881 149.071 153.726 149.085 153.539 149.085C153.255 149.085 152.976 149.024 152.703 148.902C152.434 148.78 152.209 148.594 152.03 148.344C151.854 148.094 151.766 147.778 151.766 147.398V140.886ZM155.959 149V140.273H157.016V144.159H161.669V140.273H162.726V149H161.669V145.097H157.016V149H155.959ZM167.45 149.136C166.819 149.136 166.275 148.997 165.818 148.719C165.363 148.438 165.012 148.045 164.765 147.543C164.521 147.037 164.399 146.449 164.399 145.778C164.399 145.108 164.521 144.517 164.765 144.006C165.012 143.491 165.356 143.091 165.797 142.804C166.24 142.514 166.757 142.369 167.348 142.369C167.689 142.369 168.025 142.426 168.358 142.54C168.69 142.653 168.993 142.838 169.265 143.094C169.538 143.347 169.755 143.682 169.917 144.099C170.079 144.517 170.16 145.031 170.16 145.642V146.068H165.115V145.199H169.137C169.137 144.83 169.064 144.5 168.916 144.21C168.771 143.92 168.564 143.692 168.294 143.524C168.027 143.357 167.711 143.273 167.348 143.273C166.947 143.273 166.6 143.372 166.308 143.571C166.018 143.767 165.795 144.023 165.639 144.338C165.483 144.653 165.404 144.991 165.404 145.352V145.932C165.404 146.426 165.49 146.845 165.66 147.189C165.833 147.53 166.074 147.79 166.38 147.969C166.687 148.145 167.044 148.233 167.45 148.233C167.714 148.233 167.953 148.196 168.166 148.122C168.382 148.045 168.568 147.932 168.724 147.781C168.88 147.628 169.001 147.437 169.086 147.21L170.058 147.483C169.956 147.812 169.784 148.102 169.542 148.352C169.301 148.599 169.002 148.793 168.647 148.932C168.292 149.068 167.893 149.136 167.45 149.136ZM171.69 149V142.455H172.696V149H171.69ZM172.201 141.364C172.005 141.364 171.836 141.297 171.694 141.163C171.555 141.03 171.485 140.869 171.485 140.682C171.485 140.494 171.555 140.334 171.694 140.2C171.836 140.067 172.005 140 172.201 140C172.397 140 172.565 140.067 172.704 140.2C172.846 140.334 172.917 140.494 172.917 140.682C172.917 140.869 172.846 141.03 172.704 141.163C172.565 141.297 172.397 141.364 172.201 141.364ZM177.18 151.591C176.694 151.591 176.276 151.528 175.927 151.403C175.577 151.281 175.286 151.119 175.053 150.918C174.823 150.719 174.64 150.506 174.504 150.278L175.305 149.716C175.396 149.835 175.511 149.972 175.65 150.125C175.789 150.281 175.979 150.416 176.221 150.53C176.465 150.646 176.785 150.705 177.18 150.705C177.708 150.705 178.144 150.577 178.488 150.321C178.832 150.065 179.004 149.665 179.004 149.119V147.79H178.918C178.844 147.909 178.739 148.057 178.603 148.233C178.469 148.406 178.276 148.561 178.023 148.697C177.773 148.831 177.435 148.898 177.009 148.898C176.481 148.898 176.006 148.773 175.586 148.523C175.168 148.273 174.837 147.909 174.593 147.432C174.352 146.955 174.231 146.375 174.231 145.693C174.231 145.023 174.349 144.439 174.585 143.942C174.82 143.442 175.148 143.055 175.569 142.783C175.989 142.507 176.475 142.369 177.026 142.369C177.452 142.369 177.79 142.44 178.04 142.582C178.293 142.722 178.487 142.881 178.62 143.06C178.756 143.236 178.862 143.381 178.935 143.494H179.038V142.455H180.009V149.188C180.009 149.75 179.881 150.207 179.626 150.56C179.373 150.915 179.032 151.175 178.603 151.339C178.177 151.507 177.702 151.591 177.18 151.591ZM177.146 147.994C177.549 147.994 177.89 147.902 178.168 147.717C178.447 147.533 178.658 147.267 178.803 146.92C178.948 146.574 179.021 146.159 179.021 145.676C179.021 145.205 178.95 144.788 178.808 144.428C178.665 144.067 178.455 143.784 178.177 143.58C177.898 143.375 177.555 143.273 177.146 143.273C176.719 143.273 176.364 143.381 176.08 143.597C175.799 143.812 175.587 144.102 175.445 144.466C175.306 144.83 175.237 145.233 175.237 145.676C175.237 146.131 175.308 146.533 175.45 146.882C175.594 147.229 175.808 147.501 176.089 147.7C176.373 147.896 176.725 147.994 177.146 147.994ZM182.856 145.062V149H181.85V140.273H182.856V143.477H182.941C183.094 143.139 183.325 142.871 183.631 142.672C183.941 142.47 184.353 142.369 184.867 142.369C185.313 142.369 185.704 142.459 186.039 142.638C186.374 142.814 186.634 143.085 186.819 143.452C187.006 143.815 187.1 144.278 187.1 144.841V149H186.094V144.909C186.094 144.389 185.96 143.987 185.69 143.703C185.423 143.416 185.052 143.273 184.577 143.273C184.248 143.273 183.952 143.342 183.691 143.482C183.433 143.621 183.228 143.824 183.077 144.091C182.93 144.358 182.856 144.682 182.856 145.062ZM191.787 142.455V143.307H188.395V142.455H191.787ZM189.383 140.886H190.389V147.125C190.389 147.409 190.43 147.622 190.512 147.764C190.598 147.903 190.706 147.997 190.836 148.045C190.97 148.091 191.11 148.114 191.258 148.114C191.369 148.114 191.46 148.108 191.531 148.097C191.602 148.082 191.659 148.071 191.701 148.062L191.906 148.966C191.838 148.991 191.743 149.017 191.62 149.043C191.498 149.071 191.343 149.085 191.156 149.085C190.872 149.085 190.593 149.024 190.321 148.902C190.051 148.78 189.826 148.594 189.647 148.344C189.471 148.094 189.383 147.778 189.383 147.398V140.886Z" fill="white"/>
<path d="M227.58 149.136C226.989 149.136 226.47 148.996 226.024 148.714C225.581 148.433 225.234 148.04 224.984 147.534C224.737 147.028 224.614 146.437 224.614 145.761C224.614 145.08 224.737 144.484 224.984 143.976C225.234 143.467 225.581 143.072 226.024 142.791C226.47 142.51 226.989 142.369 227.58 142.369C228.17 142.369 228.688 142.51 229.131 142.791C229.577 143.072 229.923 143.467 230.17 143.976C230.42 144.484 230.545 145.08 230.545 145.761C230.545 146.437 230.42 147.028 230.17 147.534C229.923 148.04 229.577 148.433 229.131 148.714C228.688 148.996 228.17 149.136 227.58 149.136ZM227.58 148.233C228.028 148.233 228.398 148.118 228.688 147.888C228.977 147.658 229.192 147.355 229.331 146.98C229.47 146.605 229.54 146.199 229.54 145.761C229.54 145.324 229.47 144.916 229.331 144.538C229.192 144.161 228.977 143.855 228.688 143.622C228.398 143.389 228.028 143.273 227.58 143.273C227.131 143.273 226.761 143.389 226.472 143.622C226.182 143.855 225.967 144.161 225.828 144.538C225.689 144.916 225.619 145.324 225.619 145.761C225.619 146.199 225.689 146.605 225.828 146.98C225.967 147.355 226.182 147.658 226.472 147.888C226.761 148.118 227.131 148.233 227.58 148.233ZM234.995 142.455V143.307H231.467V142.455H234.995ZM232.524 149V141.551C232.524 141.176 232.612 140.864 232.788 140.614C232.964 140.364 233.193 140.176 233.474 140.051C233.755 139.926 234.052 139.864 234.365 139.864C234.612 139.864 234.814 139.884 234.97 139.923C235.126 139.963 235.243 140 235.319 140.034L235.029 140.903C234.978 140.886 234.907 140.865 234.816 140.839C234.728 140.814 234.612 140.801 234.467 140.801C234.135 140.801 233.895 140.885 233.747 141.053C233.602 141.22 233.529 141.466 233.529 141.79V149H232.524ZM239.32 142.455V143.307H235.791V142.455H239.32ZM236.848 149V141.551C236.848 141.176 236.936 140.864 237.112 140.614C237.288 140.364 237.517 140.176 237.798 140.051C238.08 139.926 238.376 139.864 238.689 139.864C238.936 139.864 239.138 139.884 239.294 139.923C239.45 139.963 239.567 140 239.643 140.034L239.354 140.903C239.303 140.886 239.232 140.865 239.141 140.839C239.053 140.814 238.936 140.801 238.791 140.801C238.459 140.801 238.219 140.885 238.071 141.053C237.926 141.22 237.854 141.466 237.854 141.79V149H236.848ZM245.096 143.92L244.192 144.176C244.136 144.026 244.052 143.879 243.941 143.737C243.833 143.592 243.685 143.473 243.498 143.379C243.31 143.286 243.07 143.239 242.778 143.239C242.377 143.239 242.043 143.331 241.776 143.516C241.512 143.697 241.38 143.929 241.38 144.21C241.38 144.46 241.471 144.658 241.653 144.803C241.835 144.947 242.119 145.068 242.505 145.165L243.477 145.403C244.062 145.545 244.498 145.763 244.785 146.055C245.072 146.345 245.215 146.719 245.215 147.176C245.215 147.551 245.107 147.886 244.891 148.182C244.678 148.477 244.38 148.71 243.996 148.881C243.613 149.051 243.167 149.136 242.658 149.136C241.991 149.136 241.438 148.991 241.001 148.702C240.563 148.412 240.286 147.989 240.17 147.432L241.124 147.193C241.215 147.545 241.387 147.81 241.64 147.986C241.896 148.162 242.229 148.25 242.641 148.25C243.11 148.25 243.482 148.151 243.758 147.952C244.036 147.75 244.175 147.509 244.175 147.227C244.175 147 244.096 146.81 243.937 146.656C243.778 146.5 243.533 146.384 243.204 146.307L242.113 146.051C241.513 145.909 241.073 145.689 240.792 145.391C240.513 145.089 240.374 144.713 240.374 144.261C240.374 143.892 240.478 143.565 240.685 143.281C240.896 142.997 241.181 142.774 241.542 142.612C241.906 142.45 242.317 142.369 242.778 142.369C243.425 142.369 243.934 142.511 244.303 142.795C244.675 143.08 244.94 143.455 245.096 143.92ZM249.473 149.136C248.843 149.136 248.299 148.997 247.841 148.719C247.387 148.438 247.036 148.045 246.789 147.543C246.544 147.037 246.422 146.449 246.422 145.778C246.422 145.108 246.544 144.517 246.789 144.006C247.036 143.491 247.38 143.091 247.82 142.804C248.263 142.514 248.78 142.369 249.371 142.369C249.712 142.369 250.049 142.426 250.381 142.54C250.713 142.653 251.016 142.838 251.289 143.094C251.561 143.347 251.779 143.682 251.941 144.099C252.103 144.517 252.184 145.031 252.184 145.642V146.068H247.138V145.199H251.161C251.161 144.83 251.087 144.5 250.939 144.21C250.794 143.92 250.587 143.692 250.317 143.524C250.05 143.357 249.735 143.273 249.371 143.273C248.971 143.273 248.624 143.372 248.331 143.571C248.042 143.767 247.819 144.023 247.662 144.338C247.506 144.653 247.428 144.991 247.428 145.352V145.932C247.428 146.426 247.513 146.845 247.684 147.189C247.857 147.53 248.097 147.79 248.404 147.969C248.711 148.145 249.067 148.233 249.473 148.233C249.738 148.233 249.976 148.196 250.189 148.122C250.405 148.045 250.591 147.932 250.748 147.781C250.904 147.628 251.025 147.437 251.11 147.21L252.081 147.483C251.979 147.812 251.807 148.102 251.566 148.352C251.324 148.599 251.026 148.793 250.671 148.932C250.316 149.068 249.917 149.136 249.473 149.136ZM256.56 142.455V143.307H253.168V142.455H256.56ZM254.157 140.886H255.162V147.125C255.162 147.409 255.203 147.622 255.286 147.764C255.371 147.903 255.479 147.997 255.61 148.045C255.743 148.091 255.884 148.114 256.032 148.114C256.142 148.114 256.233 148.108 256.304 148.097C256.375 148.082 256.432 148.071 256.475 148.062L256.679 148.966C256.611 148.991 256.516 149.017 256.394 149.043C256.272 149.071 256.117 149.085 255.929 149.085C255.645 149.085 255.367 149.024 255.094 148.902C254.824 148.78 254.6 148.594 254.421 148.344C254.245 148.094 254.157 147.778 254.157 147.398V140.886ZM258.35 149V140.273H259.407V144.159H264.06V140.273H265.117V149H264.06V145.097H259.407V149H258.35ZM269.841 149.136C269.21 149.136 268.666 148.997 268.208 148.719C267.754 148.438 267.403 148.045 267.156 147.543C266.912 147.037 266.789 146.449 266.789 145.778C266.789 145.108 266.912 144.517 267.156 144.006C267.403 143.491 267.747 143.091 268.187 142.804C268.63 142.514 269.147 142.369 269.738 142.369C270.079 142.369 270.416 142.426 270.748 142.54C271.081 142.653 271.383 142.838 271.656 143.094C271.929 143.347 272.146 143.682 272.308 144.099C272.47 144.517 272.551 145.031 272.551 145.642V146.068H267.505V145.199H271.528C271.528 144.83 271.454 144.5 271.306 144.21C271.162 143.92 270.954 143.692 270.684 143.524C270.417 143.357 270.102 143.273 269.738 143.273C269.338 143.273 268.991 143.372 268.699 143.571C268.409 143.767 268.186 144.023 268.029 144.338C267.873 144.653 267.795 144.991 267.795 145.352V145.932C267.795 146.426 267.88 146.845 268.051 147.189C268.224 147.53 268.464 147.79 268.771 147.969C269.078 148.145 269.434 148.233 269.841 148.233C270.105 148.233 270.343 148.196 270.556 148.122C270.772 148.045 270.958 147.932 271.115 147.781C271.271 147.628 271.392 147.437 271.477 147.21L272.449 147.483C272.346 147.812 272.174 148.102 271.933 148.352C271.691 148.599 271.393 148.793 271.038 148.932C270.683 149.068 270.284 149.136 269.841 149.136ZM274.081 149V142.455H275.086V149H274.081ZM274.592 141.364C274.396 141.364 274.227 141.297 274.085 141.163C273.946 141.03 273.876 140.869 273.876 140.682C273.876 140.494 273.946 140.334 274.085 140.2C274.227 140.067 274.396 140 274.592 140C274.788 140 274.956 140.067 275.095 140.2C275.237 140.334 275.308 140.494 275.308 140.682C275.308 140.869 275.237 141.03 275.095 141.163C274.956 141.297 274.788 141.364 274.592 141.364ZM279.57 151.591C279.085 151.591 278.667 151.528 278.317 151.403C277.968 151.281 277.677 151.119 277.444 150.918C277.214 150.719 277.031 150.506 276.894 150.278L277.695 149.716C277.786 149.835 277.901 149.972 278.04 150.125C278.18 150.281 278.37 150.416 278.612 150.53C278.856 150.646 279.175 150.705 279.57 150.705C280.099 150.705 280.535 150.577 280.879 150.321C281.222 150.065 281.394 149.665 281.394 149.119V147.79H281.309C281.235 147.909 281.13 148.057 280.994 148.233C280.86 148.406 280.667 148.561 280.414 148.697C280.164 148.831 279.826 148.898 279.4 148.898C278.871 148.898 278.397 148.773 277.977 148.523C277.559 148.273 277.228 147.909 276.984 147.432C276.742 146.955 276.621 146.375 276.621 145.693C276.621 145.023 276.739 144.439 276.975 143.942C277.211 143.442 277.539 143.055 277.96 142.783C278.38 142.507 278.866 142.369 279.417 142.369C279.843 142.369 280.181 142.44 280.431 142.582C280.684 142.722 280.877 142.881 281.011 143.06C281.147 143.236 281.252 143.381 281.326 143.494H281.428V142.455H282.4V149.188C282.4 149.75 282.272 150.207 282.016 150.56C281.763 150.915 281.423 151.175 280.994 151.339C280.567 151.507 280.093 151.591 279.57 151.591ZM279.536 147.994C279.94 147.994 280.281 147.902 280.559 147.717C280.837 147.533 281.049 147.267 281.194 146.92C281.339 146.574 281.411 146.159 281.411 145.676C281.411 145.205 281.34 144.788 281.198 144.428C281.056 144.067 280.846 143.784 280.567 143.58C280.289 143.375 279.945 143.273 279.536 143.273C279.11 143.273 278.755 143.381 278.471 143.597C278.19 143.812 277.978 144.102 277.836 144.466C277.697 144.83 277.627 145.233 277.627 145.676C277.627 146.131 277.698 146.533 277.84 146.882C277.985 147.229 278.198 147.501 278.479 147.7C278.763 147.896 279.116 147.994 279.536 147.994ZM285.246 145.062V149H284.241V140.273H285.246V143.477H285.332C285.485 143.139 285.715 142.871 286.022 142.672C286.332 142.47 286.744 142.369 287.258 142.369C287.704 142.369 288.094 142.459 288.43 142.638C288.765 142.814 289.025 143.085 289.21 143.452C289.397 143.815 289.491 144.278 289.491 144.841V149H288.485V144.909C288.485 144.389 288.35 143.987 288.08 143.703C287.813 143.416 287.442 143.273 286.968 143.273C286.638 143.273 286.343 143.342 286.082 143.482C285.823 143.621 285.619 143.824 285.468 144.091C285.32 144.358 285.246 144.682 285.246 145.062ZM294.177 142.455V143.307H290.785V142.455H294.177ZM291.774 140.886H292.779V147.125C292.779 147.409 292.821 147.622 292.903 147.764C292.988 147.903 293.096 147.997 293.227 148.045C293.36 148.091 293.501 148.114 293.649 148.114C293.76 148.114 293.85 148.108 293.922 148.097C293.993 148.082 294.049 148.071 294.092 148.062L294.297 148.966C294.228 148.991 294.133 149.017 294.011 149.043C293.889 149.071 293.734 149.085 293.547 149.085C293.262 149.085 292.984 149.024 292.711 148.902C292.441 148.78 292.217 148.594 292.038 148.344C291.862 148.094 291.774 147.778 291.774 147.398V140.886Z" fill="white"/>
<path d="M311.58 279.136C310.989 279.136 310.47 278.996 310.024 278.714C309.581 278.433 309.234 278.04 308.984 277.534C308.737 277.028 308.614 276.437 308.614 275.761C308.614 275.08 308.737 274.484 308.984 273.976C309.234 273.467 309.581 273.072 310.024 272.791C310.47 272.51 310.989 272.369 311.58 272.369C312.17 272.369 312.688 272.51 313.131 272.791C313.577 273.072 313.923 273.467 314.17 273.976C314.42 274.484 314.545 275.08 314.545 275.761C314.545 276.437 314.42 277.028 314.17 277.534C313.923 278.04 313.577 278.433 313.131 278.714C312.688 278.996 312.17 279.136 311.58 279.136ZM311.58 278.233C312.028 278.233 312.398 278.118 312.688 277.888C312.977 277.658 313.192 277.355 313.331 276.98C313.47 276.605 313.54 276.199 313.54 275.761C313.54 275.324 313.47 274.916 313.331 274.538C313.192 274.161 312.977 273.855 312.688 273.622C312.398 273.389 312.028 273.273 311.58 273.273C311.131 273.273 310.761 273.389 310.472 273.622C310.182 273.855 309.967 274.161 309.828 274.538C309.689 274.916 309.619 275.324 309.619 275.761C309.619 276.199 309.689 276.605 309.828 276.98C309.967 277.355 310.182 277.658 310.472 277.888C310.761 278.118 311.131 278.233 311.58 278.233ZM318.995 272.455V273.307H315.467V272.455H318.995ZM316.524 279V271.551C316.524 271.176 316.612 270.864 316.788 270.614C316.964 270.364 317.193 270.176 317.474 270.051C317.755 269.926 318.052 269.864 318.365 269.864C318.612 269.864 318.814 269.884 318.97 269.923C319.126 269.963 319.243 270 319.319 270.034L319.029 270.903C318.978 270.886 318.907 270.865 318.816 270.839C318.728 270.814 318.612 270.801 318.467 270.801C318.135 270.801 317.895 270.885 317.747 271.053C317.602 271.22 317.529 271.466 317.529 271.79V279H316.524ZM323.32 272.455V273.307H319.791V272.455H323.32ZM320.848 279V271.551C320.848 271.176 320.936 270.864 321.112 270.614C321.288 270.364 321.517 270.176 321.798 270.051C322.08 269.926 322.376 269.864 322.689 269.864C322.936 269.864 323.138 269.884 323.294 269.923C323.45 269.963 323.567 270 323.643 270.034L323.354 270.903C323.303 270.886 323.232 270.865 323.141 270.839C323.053 270.814 322.936 270.801 322.791 270.801C322.459 270.801 322.219 270.885 322.071 271.053C321.926 271.22 321.854 271.466 321.854 271.79V279H320.848ZM329.096 273.92L328.192 274.176C328.136 274.026 328.052 273.879 327.941 273.737C327.833 273.592 327.685 273.473 327.498 273.379C327.31 273.286 327.07 273.239 326.778 273.239C326.377 273.239 326.043 273.331 325.776 273.516C325.512 273.697 325.38 273.929 325.38 274.21C325.38 274.46 325.471 274.658 325.653 274.803C325.835 274.947 326.119 275.068 326.505 275.165L327.477 275.403C328.062 275.545 328.498 275.763 328.785 276.055C329.072 276.345 329.215 276.719 329.215 277.176C329.215 277.551 329.107 277.886 328.891 278.182C328.678 278.477 328.38 278.71 327.996 278.881C327.613 279.051 327.167 279.136 326.658 279.136C325.991 279.136 325.438 278.991 325.001 278.702C324.563 278.412 324.286 277.989 324.17 277.432L325.124 277.193C325.215 277.545 325.387 277.81 325.64 277.986C325.896 278.162 326.229 278.25 326.641 278.25C327.11 278.25 327.482 278.151 327.758 277.952C328.036 277.75 328.175 277.509 328.175 277.227C328.175 277 328.096 276.81 327.937 276.656C327.778 276.5 327.533 276.384 327.204 276.307L326.113 276.051C325.513 275.909 325.073 275.689 324.792 275.391C324.513 275.089 324.374 274.713 324.374 274.261C324.374 273.892 324.478 273.565 324.685 273.281C324.896 272.997 325.181 272.774 325.542 272.612C325.906 272.45 326.317 272.369 326.778 272.369C327.425 272.369 327.934 272.511 328.303 272.795C328.675 273.08 328.94 273.455 329.096 273.92ZM333.473 279.136C332.843 279.136 332.299 278.997 331.841 278.719C331.387 278.438 331.036 278.045 330.789 277.543C330.544 277.037 330.422 276.449 330.422 275.778C330.422 275.108 330.544 274.517 330.789 274.006C331.036 273.491 331.38 273.091 331.82 272.804C332.263 272.514 332.78 272.369 333.371 272.369C333.712 272.369 334.049 272.426 334.381 272.54C334.713 272.653 335.016 272.838 335.289 273.094C335.561 273.347 335.779 273.682 335.941 274.099C336.103 274.517 336.184 275.031 336.184 275.642V276.068H331.138V275.199H335.161C335.161 274.83 335.087 274.5 334.939 274.21C334.794 273.92 334.587 273.692 334.317 273.524C334.05 273.357 333.735 273.273 333.371 273.273C332.971 273.273 332.624 273.372 332.331 273.571C332.042 273.767 331.819 274.023 331.662 274.338C331.506 274.653 331.428 274.991 331.428 275.352V275.932C331.428 276.426 331.513 276.845 331.684 277.189C331.857 277.53 332.097 277.79 332.404 277.969C332.711 278.145 333.067 278.233 333.473 278.233C333.738 278.233 333.976 278.196 334.189 278.122C334.405 278.045 334.591 277.932 334.748 277.781C334.904 277.628 335.025 277.437 335.11 277.21L336.081 277.483C335.979 277.812 335.807 278.102 335.566 278.352C335.324 278.599 335.026 278.793 334.671 278.932C334.316 279.068 333.917 279.136 333.473 279.136ZM340.56 272.455V273.307H337.168V272.455H340.56ZM338.157 270.886H339.162V277.125C339.162 277.409 339.203 277.622 339.286 277.764C339.371 277.903 339.479 277.997 339.61 278.045C339.743 278.091 339.884 278.114 340.032 278.114C340.142 278.114 340.233 278.108 340.304 278.097C340.375 278.082 340.432 278.071 340.475 278.062L340.679 278.966C340.611 278.991 340.516 279.017 340.394 279.043C340.272 279.071 340.117 279.085 339.929 279.085C339.645 279.085 339.367 279.024 339.094 278.902C338.824 278.78 338.6 278.594 338.421 278.344C338.245 278.094 338.157 277.778 338.157 277.398V270.886ZM343.677 279L341.291 270.273H342.365L344.189 277.381H344.274L346.132 270.273H347.325L349.183 277.381H349.268L351.092 270.273H352.166L349.779 279H348.689L346.762 272.045H346.694L344.768 279H343.677ZM353.346 279V272.455H354.352V279H353.346ZM353.858 271.364C353.662 271.364 353.493 271.297 353.35 271.163C353.211 271.03 353.142 270.869 353.142 270.682C353.142 270.494 353.211 270.334 353.35 270.2C353.493 270.067 353.662 270 353.858 270C354.054 270 354.221 270.067 354.36 270.2C354.502 270.334 354.574 270.494 354.574 270.682C354.574 270.869 354.502 271.03 354.36 271.163C354.221 271.297 354.054 271.364 353.858 271.364ZM358.665 279.136C358.12 279.136 357.638 278.999 357.221 278.723C356.803 278.445 356.477 278.053 356.241 277.547C356.005 277.038 355.887 276.438 355.887 275.744C355.887 275.057 356.005 274.46 356.241 273.955C356.477 273.449 356.805 273.058 357.225 272.783C357.646 272.507 358.131 272.369 358.683 272.369C359.109 272.369 359.445 272.44 359.692 272.582C359.942 272.722 360.133 272.881 360.263 273.06C360.397 273.236 360.501 273.381 360.575 273.494H360.66V270.273H361.665V279H360.694V277.994H360.575C360.501 278.114 360.396 278.264 360.259 278.446C360.123 278.625 359.928 278.786 359.675 278.928C359.423 279.067 359.086 279.136 358.665 279.136ZM358.802 278.233C359.205 278.233 359.546 278.128 359.825 277.918C360.103 277.705 360.315 277.411 360.46 277.036C360.604 276.658 360.677 276.222 360.677 275.727C360.677 275.239 360.606 274.811 360.464 274.445C360.322 274.075 360.112 273.788 359.833 273.584C359.555 273.376 359.211 273.273 358.802 273.273C358.376 273.273 358.021 273.382 357.737 273.601C357.455 273.817 357.244 274.111 357.102 274.483C356.962 274.852 356.893 275.267 356.893 275.727C356.893 276.193 356.964 276.616 357.106 276.997C357.251 277.375 357.464 277.676 357.745 277.901C358.029 278.122 358.381 278.233 358.802 278.233ZM366.494 272.455V273.307H363.102V272.455H366.494ZM364.09 270.886H365.096V277.125C365.096 277.409 365.137 277.622 365.219 277.764C365.305 277.903 365.413 277.997 365.543 278.045C365.677 278.091 365.817 278.114 365.965 278.114C366.076 278.114 366.167 278.108 366.238 278.097C366.309 278.082 366.366 278.071 366.408 278.062L366.613 278.966C366.545 278.991 366.45 279.017 366.327 279.043C366.205 279.071 366.05 279.085 365.863 279.085C365.579 279.085 365.3 279.024 365.028 278.902C364.758 278.78 364.533 278.594 364.354 278.344C364.178 278.094 364.09 277.778 364.09 277.398V270.886ZM369.153 275.062V279H368.147V270.273H369.153V273.477H369.238C369.391 273.139 369.621 272.871 369.928 272.672C370.238 272.47 370.65 272.369 371.164 272.369C371.61 272.369 372.001 272.459 372.336 272.638C372.671 272.814 372.931 273.085 373.116 273.452C373.303 273.815 373.397 274.278 373.397 274.841V279H372.391V274.909C372.391 274.389 372.256 273.987 371.987 273.703C371.719 273.416 371.349 273.273 370.874 273.273C370.545 273.273 370.249 273.342 369.988 273.482C369.729 273.621 369.525 273.824 369.374 274.091C369.227 274.358 369.153 274.682 369.153 275.062Z" fill="white"/>
<path d="M194 108L191.113 113L196.887 113L194 108ZM194 330L196.887 325L191.113 325L194 330ZM193.5 112.5L193.5 325.5L194.5 325.5L194.5 112.5L193.5 112.5Z" fill="white"/>
<path d="M223 93L220.113 98L225.887 98L223 93ZM223 344L225.887 339L220.113 339L223 344ZM222.5 97.5L222.5 339.5L223.5 339.5L223.5 97.5L222.5 97.5Z" fill="white"/>
<rect width="74" height="35" transform="translate(25 167)" fill="black" fill-opacity="0.3"/>
<path d="M38.5795 189.136C37.9659 189.136 37.4375 188.991 36.9943 188.702C36.5511 188.412 36.2102 188.013 35.9716 187.504C35.733 186.996 35.6136 186.415 35.6136 185.761C35.6136 185.097 35.7358 184.51 35.9801 184.001C36.2273 183.49 36.571 183.091 37.0114 182.804C37.4545 182.514 37.9716 182.369 38.5625 182.369C39.0227 182.369 39.4375 182.455 39.8068 182.625C40.1761 182.795 40.4787 183.034 40.7145 183.341C40.9503 183.648 41.0966 184.006 41.1534 184.415H40.1477C40.071 184.116 39.9006 183.852 39.6364 183.622C39.375 183.389 39.0227 183.273 38.5795 183.273C38.1875 183.273 37.8438 183.375 37.5483 183.58C37.2557 183.781 37.027 184.067 36.8622 184.436C36.7003 184.803 36.6193 185.233 36.6193 185.727C36.6193 186.233 36.6989 186.673 36.858 187.048C37.0199 187.423 37.2472 187.714 37.5398 187.922C37.8352 188.129 38.1818 188.233 38.5795 188.233C38.8409 188.233 39.0781 188.188 39.2912 188.097C39.5043 188.006 39.6847 187.875 39.8324 187.705C39.9801 187.534 40.0852 187.33 40.1477 187.091H41.1534C41.0966 187.477 40.956 187.825 40.7315 188.135C40.5099 188.442 40.2159 188.686 39.8494 188.868C39.4858 189.047 39.0625 189.136 38.5795 189.136ZM43.6293 180.273V189H42.6236V180.273H43.6293ZM45.4712 189V182.455H46.4769V189H45.4712ZM45.9826 181.364C45.7866 181.364 45.6175 181.297 45.4755 181.163C45.3363 181.03 45.2667 180.869 45.2667 180.682C45.2667 180.494 45.3363 180.334 45.4755 180.2C45.6175 180.067 45.7866 180 45.9826 180C46.1786 180 46.3462 180.067 46.4854 180.2C46.6275 180.334 46.6985 180.494 46.6985 180.682C46.6985 180.869 46.6275 181.03 46.4854 181.163C46.3462 181.297 46.1786 181.364 45.9826 181.364ZM51.0632 189.136C50.4325 189.136 49.8885 188.997 49.4311 188.719C48.9766 188.438 48.6257 188.045 48.3786 187.543C48.1342 187.037 48.0121 186.449 48.0121 185.778C48.0121 185.108 48.1342 184.517 48.3786 184.006C48.6257 183.491 48.9695 183.091 49.4098 182.804C49.853 182.514 50.37 182.369 50.9609 182.369C51.3018 182.369 51.6385 182.426 51.9709 182.54C52.3033 182.653 52.6058 182.838 52.8786 183.094C53.1513 183.347 53.3686 183.682 53.5305 184.099C53.6925 184.517 53.7734 185.031 53.7734 185.642V186.068H48.728V185.199H52.7507C52.7507 184.83 52.6768 184.5 52.5291 184.21C52.3842 183.92 52.1768 183.692 51.907 183.524C51.6399 183.357 51.3246 183.273 50.9609 183.273C50.5604 183.273 50.2138 183.372 49.9212 183.571C49.6314 183.767 49.4084 184.023 49.2521 184.338C49.0959 184.653 49.0178 184.991 49.0178 185.352V185.932C49.0178 186.426 49.103 186.845 49.2734 187.189C49.4467 187.53 49.6868 187.79 49.9936 187.969C50.3004 188.145 50.657 188.233 51.0632 188.233C51.3274 188.233 51.5661 188.196 51.7791 188.122C51.995 188.045 52.1811 187.932 52.3374 187.781C52.4936 187.628 52.6143 187.437 52.6996 187.21L53.6712 187.483C53.5689 187.812 53.397 188.102 53.1555 188.352C52.9141 188.599 52.6158 188.793 52.2607 188.932C51.9055 189.068 51.5064 189.136 51.0632 189.136ZM56.3089 185.062V189H55.3033V182.455H56.2749V183.477H56.3601C56.5135 183.145 56.7464 182.878 57.0589 182.676C57.3714 182.472 57.7749 182.369 58.2692 182.369C58.7124 182.369 59.1001 182.46 59.4325 182.642C59.7649 182.821 60.0234 183.094 60.2081 183.46C60.3928 183.824 60.4851 184.284 60.4851 184.841V189H59.4794V184.909C59.4794 184.395 59.3459 183.994 59.0788 183.707C58.8118 183.418 58.4453 183.273 57.9794 183.273C57.6584 183.273 57.3714 183.342 57.1186 183.482C56.8686 183.621 56.6712 183.824 56.5263 184.091C56.3814 184.358 56.3089 184.682 56.3089 185.062ZM65.1694 182.455V183.307H61.7773V182.455H65.1694ZM62.766 180.886H63.7717V187.125C63.7717 187.409 63.8129 187.622 63.8952 187.764C63.9805 187.903 64.0884 187.997 64.2191 188.045C64.3526 188.091 64.4933 188.114 64.641 188.114C64.7518 188.114 64.8427 188.108 64.9137 188.097C64.9847 188.082 65.0415 188.071 65.0842 188.062L65.2887 188.966C65.2205 188.991 65.1254 189.017 65.0032 189.043C64.881 189.071 64.7262 189.085 64.5387 189.085C64.2546 189.085 63.9762 189.024 63.7035 188.902C63.4336 188.78 63.2092 188.594 63.0302 188.344C62.854 188.094 62.766 187.778 62.766 187.398V180.886ZM66.9592 189V180.273H68.016V188.062H72.0728V189H66.9592ZM76.3171 189.136C75.6864 189.136 75.1424 188.997 74.685 188.719C74.2305 188.438 73.8796 188.045 73.6325 187.543C73.3881 187.037 73.266 186.449 73.266 185.778C73.266 185.108 73.3881 184.517 73.6325 184.006C73.8796 183.491 74.2234 183.091 74.6637 182.804C75.1069 182.514 75.6239 182.369 76.2148 182.369C76.5558 182.369 76.8924 182.426 77.2248 182.54C77.5572 182.653 77.8597 182.838 78.1325 183.094C78.4052 183.347 78.6225 183.682 78.7844 184.099C78.9464 184.517 79.0273 185.031 79.0273 185.642V186.068H73.9819V185.199H78.0046C78.0046 184.83 77.9308 184.5 77.783 184.21C77.6381 183.92 77.4308 183.692 77.1609 183.524C76.8938 183.357 76.5785 183.273 76.2148 183.273C75.8143 183.273 75.4677 183.372 75.1751 183.571C74.8853 183.767 74.6623 184.023 74.506 184.338C74.3498 184.653 74.2717 184.991 74.2717 185.352V185.932C74.2717 186.426 74.3569 186.845 74.5273 187.189C74.7006 187.53 74.9407 187.79 75.2475 187.969C75.5543 188.145 75.9109 188.233 76.3171 188.233C76.5813 188.233 76.82 188.196 77.033 188.122C77.2489 188.045 77.435 187.932 77.5913 187.781C77.7475 187.628 77.8683 187.437 77.9535 187.21L78.9251 187.483C78.8228 187.812 78.6509 188.102 78.4094 188.352C78.168 188.599 77.8697 188.793 77.5146 188.932C77.1594 189.068 76.7603 189.136 76.3171 189.136ZM83.4719 182.455V183.307H79.9435V182.455H83.4719ZM81.0004 189V181.551C81.0004 181.176 81.0884 180.864 81.2646 180.614C81.4407 180.364 81.6694 180.176 81.9506 180.051C82.2319 179.926 82.5288 179.864 82.8413 179.864C83.0884 179.864 83.2901 179.884 83.4464 179.923C83.6026 179.963 83.7191 180 83.7958 180.034L83.506 180.903C83.4549 180.886 83.3839 180.865 83.293 180.839C83.2049 180.814 83.0884 180.801 82.9435 180.801C82.6112 180.801 82.3711 180.885 82.2234 181.053C82.0785 181.22 82.006 181.466 82.006 181.79V189H81.0004ZM87.728 182.455V183.307H84.3359V182.455H87.728ZM85.3246 180.886H86.3303V187.125C86.3303 187.409 86.3714 187.622 86.4538 187.764C86.5391 187.903 86.647 187.997 86.7777 188.045C86.9112 188.091 87.0518 188.114 87.1996 188.114C87.3104 188.114 87.4013 188.108 87.4723 188.097C87.5433 188.082 87.6001 188.071 87.6428 188.062L87.8473 188.966C87.7791 188.991 87.6839 189.017 87.5618 189.043C87.4396 189.071 87.2848 189.085 87.0973 189.085C86.8132 189.085 86.5348 189.024 86.2621 188.902C85.9922 188.78 85.7678 188.594 85.5888 188.344C85.4126 188.094 85.3246 187.778 85.3246 187.398V180.886Z" fill="white"/>
<rect width="72" height="35" transform="translate(116 55)" fill="black" fill-opacity="0.3"/>
<path d="M129.58 77.1364C128.966 77.1364 128.438 76.9915 127.994 76.7017C127.551 76.4119 127.21 76.0128 126.972 75.5043C126.733 74.9957 126.614 74.4148 126.614 73.7614C126.614 73.0966 126.736 72.5099 126.98 72.0014C127.227 71.4901 127.571 71.0909 128.011 70.804C128.455 70.5142 128.972 70.3693 129.562 70.3693C130.023 70.3693 130.438 70.4545 130.807 70.625C131.176 70.7955 131.479 71.0341 131.714 71.3409C131.95 71.6477 132.097 72.0057 132.153 72.4148H131.148C131.071 72.1165 130.901 71.8523 130.636 71.6222C130.375 71.3892 130.023 71.2727 129.58 71.2727C129.188 71.2727 128.844 71.375 128.548 71.5795C128.256 71.7812 128.027 72.0668 127.862 72.4361C127.7 72.8026 127.619 73.233 127.619 73.7273C127.619 74.233 127.699 74.6733 127.858 75.0483C128.02 75.4233 128.247 75.7145 128.54 75.9219C128.835 76.1293 129.182 76.233 129.58 76.233C129.841 76.233 130.078 76.1875 130.291 76.0966C130.504 76.0057 130.685 75.875 130.832 75.7045C130.98 75.5341 131.085 75.3295 131.148 75.0909H132.153C132.097 75.4773 131.956 75.8253 131.732 76.1349C131.51 76.4418 131.216 76.6861 130.849 76.8679C130.486 77.0469 130.063 77.1364 129.58 77.1364ZM134.629 68.2727V77H133.624V68.2727H134.629ZM136.471 77V70.4545H137.477V77H136.471ZM136.983 69.3636C136.787 69.3636 136.618 69.2969 136.475 69.1634C136.336 69.0298 136.267 68.8693 136.267 68.6818C136.267 68.4943 136.336 68.3338 136.475 68.2003C136.618 68.0668 136.787 68 136.983 68C137.179 68 137.346 68.0668 137.485 68.2003C137.627 68.3338 137.699 68.4943 137.699 68.6818C137.699 68.8693 137.627 69.0298 137.485 69.1634C137.346 69.2969 137.179 69.3636 136.983 69.3636ZM142.063 77.1364C141.433 77.1364 140.888 76.9972 140.431 76.7188C139.977 76.4375 139.626 76.0455 139.379 75.5426C139.134 75.0369 139.012 74.4489 139.012 73.7784C139.012 73.108 139.134 72.517 139.379 72.0057C139.626 71.4915 139.969 71.0909 140.41 70.804C140.853 70.5142 141.37 70.3693 141.961 70.3693C142.302 70.3693 142.638 70.4261 142.971 70.5398C143.303 70.6534 143.606 70.8381 143.879 71.0938C144.151 71.3466 144.369 71.6818 144.531 72.0994C144.692 72.517 144.773 73.0312 144.773 73.642V74.0682H139.728V73.1989H143.751C143.751 72.8295 143.677 72.5 143.529 72.2102C143.384 71.9205 143.177 71.6918 142.907 71.5241C142.64 71.3565 142.325 71.2727 141.961 71.2727C141.56 71.2727 141.214 71.3722 140.921 71.571C140.631 71.767 140.408 72.0227 140.252 72.3381C140.096 72.6534 140.018 72.9915 140.018 73.3523V73.9318C140.018 74.4261 140.103 74.8452 140.273 75.1889C140.447 75.5298 140.687 75.7898 140.994 75.9688C141.3 76.1449 141.657 76.233 142.063 76.233C142.327 76.233 142.566 76.196 142.779 76.1222C142.995 76.0455 143.181 75.9318 143.337 75.7812C143.494 75.6278 143.614 75.4375 143.7 75.2102L144.671 75.483C144.569 75.8125 144.397 76.1023 144.156 76.3523C143.914 76.5994 143.616 76.7926 143.261 76.9318C142.906 77.0682 142.506 77.1364 142.063 77.1364ZM147.309 73.0625V77H146.303V70.4545H147.275V71.4773H147.36C147.513 71.1449 147.746 70.8778 148.059 70.6761C148.371 70.4716 148.775 70.3693 149.269 70.3693C149.712 70.3693 150.1 70.4602 150.433 70.642C150.765 70.821 151.023 71.0938 151.208 71.4602C151.393 71.8239 151.485 72.2841 151.485 72.8409V77H150.479V72.9091C150.479 72.3949 150.346 71.9943 150.079 71.7074C149.812 71.4176 149.445 71.2727 148.979 71.2727C148.658 71.2727 148.371 71.3423 148.119 71.4815C147.869 71.6207 147.671 71.8239 147.526 72.0909C147.381 72.358 147.309 72.6818 147.309 73.0625ZM156.169 70.4545V71.3068H152.777V70.4545H156.169ZM153.766 68.8864H154.772V75.125C154.772 75.4091 154.813 75.6222 154.895 75.7642C154.98 75.9034 155.088 75.9972 155.219 76.0455C155.353 76.0909 155.493 76.1136 155.641 76.1136C155.752 76.1136 155.843 76.108 155.914 76.0966C155.985 76.0824 156.042 76.071 156.084 76.0625L156.289 76.9659C156.221 76.9915 156.125 77.017 156.003 77.0426C155.881 77.071 155.726 77.0852 155.539 77.0852C155.255 77.0852 154.976 77.0241 154.703 76.902C154.434 76.7798 154.209 76.5938 154.03 76.3438C153.854 76.0938 153.766 75.7784 153.766 75.3977V68.8864ZM156.931 69.2102V68.2727H163.477V69.2102H160.732V77H159.675V69.2102H156.931ZM166.681 77.1364C166.09 77.1364 165.572 76.9957 165.126 76.7145C164.683 76.4332 164.336 76.0398 164.086 75.5341C163.839 75.0284 163.715 74.4375 163.715 73.7614C163.715 73.0795 163.839 72.4844 164.086 71.9759C164.336 71.4673 164.683 71.0724 165.126 70.7912C165.572 70.5099 166.09 70.3693 166.681 70.3693C167.272 70.3693 167.789 70.5099 168.232 70.7912C168.678 71.0724 169.025 71.4673 169.272 71.9759C169.522 72.4844 169.647 73.0795 169.647 73.7614C169.647 74.4375 169.522 75.0284 169.272 75.5341C169.025 76.0398 168.678 76.4332 168.232 76.7145C167.789 76.9957 167.272 77.1364 166.681 77.1364ZM166.681 76.233C167.13 76.233 167.499 76.1179 167.789 75.8878C168.079 75.6577 168.293 75.3551 168.433 74.9801C168.572 74.6051 168.641 74.1989 168.641 73.7614C168.641 73.3239 168.572 72.9162 168.433 72.5384C168.293 72.1605 168.079 71.8551 167.789 71.6222C167.499 71.3892 167.13 71.2727 166.681 71.2727C166.232 71.2727 165.863 71.3892 165.573 71.6222C165.283 71.8551 165.069 72.1605 164.93 72.5384C164.79 72.9162 164.721 73.3239 164.721 73.7614C164.721 74.1989 164.79 74.6051 164.93 74.9801C165.069 75.3551 165.283 75.6577 165.573 75.8878C165.863 76.1179 166.232 76.233 166.681 76.233ZM171.182 79.4545V70.4545H172.154V71.4943H172.273C172.347 71.3807 172.449 71.2358 172.58 71.0597C172.713 70.8807 172.904 70.7216 173.151 70.5824C173.401 70.4403 173.739 70.3693 174.165 70.3693C174.716 70.3693 175.202 70.5071 175.623 70.7827C176.043 71.0582 176.371 71.4489 176.607 71.9545C176.843 72.4602 176.961 73.0568 176.961 73.7443C176.961 74.4375 176.843 75.0384 176.607 75.5469C176.371 76.0526 176.044 76.4446 175.627 76.723C175.209 76.9986 174.728 77.1364 174.182 77.1364C173.762 77.1364 173.425 77.0668 173.172 76.9276C172.919 76.7855 172.725 76.625 172.588 76.446C172.452 76.2642 172.347 76.1136 172.273 75.9943H172.188V79.4545H171.182ZM172.171 73.7273C172.171 74.2216 172.243 74.6577 172.388 75.0355C172.533 75.4105 172.745 75.7045 173.023 75.9176C173.301 76.1278 173.642 76.233 174.046 76.233C174.466 76.233 174.817 76.1222 175.098 75.9006C175.382 75.6761 175.596 75.375 175.738 74.9972C175.882 74.6165 175.955 74.1932 175.955 73.7273C175.955 73.267 175.884 72.8523 175.742 72.483C175.603 72.1108 175.391 71.8168 175.107 71.6009C174.826 71.3821 174.472 71.2727 174.046 71.2727C173.637 71.2727 173.293 71.3764 173.015 71.5838C172.736 71.7884 172.526 72.0753 172.384 72.4446C172.242 72.8111 172.171 73.2386 172.171 73.7273Z" fill="white"/>
<path d="M102 185L107 187.887V182.113L102 185ZM118 185L113 182.113V187.887L118 185ZM106.5 185.5H113.5V184.5H106.5V185.5Z" fill="white"/>
<path d="M152 108L154.887 103L149.113 103L152 108ZM152 92L149.113 97L154.887 97L152 92ZM152.5 103.5L152.5 96.5L151.5 96.5L151.5 103.5L152.5 103.5Z" fill="white"/>
<defs>
<filter id="filter0_d_1199_9128" x="98" y="92" width="405" height="262" filterUnits="userSpaceOnUse" color-interpolation-filters="sRGB">
<feFlood flood-opacity="0" result="BackgroundImageFix"/>
<feColorMatrix in="SourceAlpha" type="matrix" values="0 0 0 0 0 0 0 0 0 0 0 0 0 0 0 0 0 0 127 0" result="hardAlpha"/>
<feOffset dy="4"/>
<feGaussianBlur stdDeviation="2"/>
<feComposite in2="hardAlpha" operator="out"/>
<feColorMatrix type="matrix" values="0 0 0 0 0 0 0 0 0 0 0 0 0 0 0 0 0 0 0.25 0"/>
<feBlend mode="normal" in2="BackgroundImageFix" result="effect1_dropShadow_1199_9128"/>
<feBlend mode="normal" in="SourceGraphic" in2="effect1_dropShadow_1199_9128" result="shape"/>
</filter>
<filter id="filter1_d_1199_9128" x="147" y="125" width="315" height="198" filterUnits="userSpaceOnUse" color-interpolation-filters="sRGB">
<feFlood flood-opacity="0" result="BackgroundImageFix"/>
<feColorMatrix in="SourceAlpha" type="matrix" values="0 0 0 0 0 0 0 0 0 0 0 0 0 0 0 0 0 0 127 0" result="hardAlpha"/>
<feOffset dx="4" dy="4"/>
<feGaussianBlur stdDeviation="8"/>
<feComposite in2="hardAlpha" operator="out"/>
<feColorMatrix type="matrix" values="0 0 0 0 0 0 0 0 0 0 0 0 0 0 0 0 0 0 0.25 0"/>
<feBlend mode="normal" in2="BackgroundImageFix" result="effect1_dropShadow_1199_9128"/>
<feBlend mode="normal" in="SourceGraphic" in2="effect1_dropShadow_1199_9128" result="shape"/>
</filter>
</defs>
</svg>
