<svg width="600" height="400" viewBox="0 0 600 400" fill="none" xmlns="http://www.w3.org/2000/svg">
<g clip-path="url(#clip0_1198_9128)">
<rect x="108" y="69" width="85" height="42" fill="#FDD9D9"/>
<rect x="108" y="119" width="85" height="42" fill="#FDD9D9"/>
<rect x="108" y="169" width="85" height="42" fill="#FDD9D9"/>
<rect x="108" y="219" width="85" height="42" fill="#FDD9D9"/>
<rect x="108" y="269" width="85" height="42" fill="#FDD9D9"/>
<rect x="108" y="319" width="85" height="42" fill="#FDD9D9"/>
<rect x="201" y="69" width="85" height="42" fill="#FDD9D9"/>
<rect x="201" y="119" width="85" height="42" fill="#FDD9D9"/>
<rect x="201" y="169" width="85" height="42" fill="#FDD9D9"/>
<rect x="201" y="219" width="85" height="42" fill="#FDD9D9"/>
<rect x="201" y="269" width="85" height="42" fill="#FDD9D9"/>
<rect x="201" y="319" width="85" height="42" fill="#FDD9D9"/>
<rect x="294" y="69" width="85" height="42" fill="#FDD9D9"/>
<rect x="294" y="119" width="85" height="42" fill="#FDD9D9"/>
<rect x="294" y="169" width="85" height="42" fill="#FDD9D9"/>
<rect x="294" y="219" width="85" height="42" fill="#FDD9D9"/>
<rect x="294" y="269" width="85" height="42" fill="#FDD9D9"/>
<rect x="294" y="319" width="85" height="42" fill="#FDD9D9"/>
<rect x="387" y="69" width="85" height="42" fill="#FDD9D9"/>
<rect x="387" y="119" width="85" height="42" fill="#FDD9D9"/>
<rect x="387" y="169" width="85" height="42" fill="#FDD9D9"/>
<rect x="387" y="219" width="85" height="42" fill="#FDD9D9"/>
<rect x="387" y="269" width="85" height="42" fill="#FDD9D9"/>
<rect x="387" y="319" width="85" height="42" fill="#FDD9D9"/>
<rect x="480" y="69" width="85" height="42" fill="#FDD9D9"/>
<rect x="480" y="119" width="85" height="42" fill="#FDD9D9"/>
<rect x="480" y="169" width="85" height="42" fill="#FDD9D9"/>
<rect x="480" y="219" width="85" height="42" fill="#FDD9D9"/>
<rect x="480" y="269" width="85" height="42" fill="#FDD9D9"/>
<rect x="480" y="319" width="85" height="42" fill="#FDD9D9"/>
<path d="M589.707 65.7071C590.098 65.3166 590.098 64.6834 589.707 64.2929L583.343 57.9289C582.953 57.5384 582.319 57.5384 581.929 57.9289C581.538 58.3195 581.538 58.9526 581.929 59.3431L587.586 65L581.929 70.6569C581.538 71.0474 581.538 71.6805 581.929 72.0711C582.319 72.4616 582.953 72.4616 583.343 72.0711L589.707 65.7071ZM31 66H589V64H31V66Z" fill="black"/>
<path d="M33.9261 53.0625V57H32.9205V48.2727H33.9261V51.4773H34.0114C34.1648 51.1392 34.3949 50.8707 34.7017 50.6719C35.0114 50.4702 35.4233 50.3693 35.9375 50.3693C36.3835 50.3693 36.7741 50.4588 37.1094 50.6378C37.4446 50.8139 37.7045 51.0852 37.8892 51.4517C38.0767 51.8153 38.1705 52.2784 38.1705 52.8409V57H37.1648V52.9091C37.1648 52.3892 37.0298 51.9872 36.7599 51.7031C36.4929 51.4162 36.1222 51.2727 35.6477 51.2727C35.3182 51.2727 35.0227 51.3423 34.7614 51.4815C34.5028 51.6207 34.2983 51.8239 34.1477 52.0909C34 52.358 33.9261 52.6818 33.9261 53.0625ZM41.9364 57.1534C41.5217 57.1534 41.1452 57.0753 40.8072 56.919C40.4691 56.7599 40.2006 56.5312 40.0018 56.233C39.8029 55.9318 39.7035 55.5682 39.7035 55.142C39.7035 54.767 39.7773 54.4631 39.9251 54.2301C40.0728 53.9943 40.2702 53.8097 40.5174 53.6761C40.7646 53.5426 41.0373 53.4432 41.3356 53.3778C41.6367 53.3097 41.9393 53.2557 42.2433 53.2159C42.641 53.1648 42.9634 53.1264 43.2106 53.1009C43.4606 53.0724 43.6424 53.0256 43.756 52.9602C43.8725 52.8949 43.9308 52.7812 43.9308 52.6193V52.5852C43.9308 52.1648 43.8157 51.8381 43.5856 51.6051C43.3583 51.3722 43.0131 51.2557 42.5501 51.2557C42.07 51.2557 41.6935 51.3608 41.4208 51.571C41.1481 51.7812 40.9563 52.0057 40.8455 52.2443L39.891 51.9034C40.0614 51.5057 40.2887 51.196 40.5728 50.9744C40.8597 50.75 41.1722 50.5937 41.5103 50.5057C41.8512 50.4148 42.1864 50.3693 42.516 50.3693C42.7262 50.3693 42.9677 50.3949 43.2404 50.446C43.516 50.4943 43.7816 50.5952 44.0373 50.7486C44.2958 50.902 44.5103 51.1335 44.6808 51.4432C44.8512 51.7528 44.9364 52.1676 44.9364 52.6875V57H43.9308V56.1136H43.8796C43.8114 56.2557 43.6978 56.4077 43.5387 56.5696C43.3796 56.7315 43.168 56.8693 42.9038 56.983C42.6396 57.0966 42.3171 57.1534 41.9364 57.1534ZM42.0898 56.25C42.4876 56.25 42.8228 56.1719 43.0955 56.0156C43.3711 55.8594 43.5785 55.6577 43.7177 55.4105C43.8597 55.1634 43.9308 54.9034 43.9308 54.6307V53.7102C43.8881 53.7614 43.7944 53.8082 43.6495 53.8509C43.5075 53.8906 43.3427 53.9261 43.1552 53.9574C42.9705 53.9858 42.7901 54.0114 42.614 54.0341C42.4407 54.054 42.3001 54.071 42.1921 54.0852C41.9308 54.1193 41.6864 54.1747 41.4592 54.2514C41.2347 54.3253 41.0529 54.4375 40.9137 54.5881C40.7773 54.7358 40.7092 54.9375 40.7092 55.1932C40.7092 55.5426 40.8384 55.8068 41.0969 55.9858C41.3583 56.1619 41.6893 56.25 42.0898 56.25ZM42.158 49.5682L40.8285 47.5909H42.0046L43.0444 49.5682H42.158ZM47.7777 53.0625V57H46.772V50.4545H47.7436V51.4773H47.8288C47.9822 51.1449 48.2152 50.8778 48.5277 50.6761C48.8402 50.4716 49.2436 50.3693 49.7379 50.3693C50.1811 50.3693 50.5689 50.4602 50.9013 50.642C51.2337 50.821 51.4922 51.0938 51.6768 51.4602C51.8615 51.8239 51.9538 52.2841 51.9538 52.8409V57H50.9482V52.9091C50.9482 52.3949 50.8146 51.9943 50.5476 51.7074C50.2805 51.4176 49.9141 51.2727 49.4482 51.2727C49.1271 51.2727 48.8402 51.3423 48.5874 51.4815C48.3374 51.6207 48.1399 51.8239 47.995 52.0909C47.8501 52.358 47.7777 52.6818 47.7777 53.0625ZM56.4336 59.5909C55.9478 59.5909 55.5302 59.5284 55.1808 59.4034C54.8313 59.2812 54.5401 59.1193 54.3072 58.9176C54.0771 58.7188 53.8938 58.5057 53.7575 58.2784L54.5586 57.7159C54.6495 57.8352 54.7646 57.9716 54.9038 58.125C55.043 58.2812 55.2333 58.4162 55.4748 58.5298C55.7191 58.6463 56.0387 58.7045 56.4336 58.7045C56.962 58.7045 57.3981 58.5767 57.7418 58.321C58.0856 58.0653 58.2575 57.6648 58.2575 57.1193V55.7898H58.1722C58.0984 55.9091 57.9933 56.0568 57.8569 56.233C57.7234 56.4062 57.5302 56.5611 57.2773 56.6974C57.0273 56.831 56.6893 56.8977 56.2631 56.8977C55.7347 56.8977 55.2603 56.7727 54.8398 56.5227C54.4222 56.2727 54.0913 55.9091 53.8469 55.4318C53.6055 54.9545 53.4847 54.375 53.4847 53.6932C53.4847 53.0227 53.6026 52.4389 53.8384 51.9418C54.0742 51.4418 54.4023 51.0554 54.8228 50.7827C55.2433 50.5071 55.729 50.3693 56.2802 50.3693C56.7063 50.3693 57.0444 50.4403 57.2944 50.5824C57.5472 50.7216 57.7404 50.8807 57.8739 51.0597C58.0103 51.2358 58.1154 51.3807 58.1893 51.4943H58.2915V50.4545H59.2631V57.1875C59.2631 57.75 59.1353 58.2074 58.8796 58.5597C58.6268 58.9148 58.2859 59.1747 57.8569 59.3395C57.4308 59.5071 56.9563 59.5909 56.4336 59.5909ZM56.3995 55.9943C56.8029 55.9943 57.1438 55.902 57.4222 55.7173C57.7006 55.5327 57.9123 55.267 58.0572 54.9205C58.2021 54.5739 58.2745 54.1591 58.2745 53.6761C58.2745 53.2045 58.2035 52.7884 58.0614 52.4276C57.9194 52.0668 57.7092 51.7841 57.4308 51.5795C57.1523 51.375 56.8086 51.2727 56.3995 51.2727C55.9734 51.2727 55.6183 51.3807 55.3342 51.5966C55.0529 51.8125 54.8413 52.1023 54.6992 52.4659C54.56 52.8295 54.4904 53.233 54.4904 53.6761C54.4904 54.1307 54.5614 54.5327 54.7035 54.8821C54.8484 55.2287 55.0614 55.5014 55.3427 55.7003C55.6268 55.8963 55.979 55.9943 56.3995 55.9943ZM67.5302 48.2727V57H66.4734V49.3807H66.4222L64.2915 50.7955V49.7216L66.4734 48.2727H67.5302Z" fill="black"/>
<path d="M589.707 116.707C590.098 116.317 590.098 115.683 589.707 115.293L583.343 108.929C582.953 108.538 582.319 108.538 581.929 108.929C581.538 109.319 581.538 109.953 581.929 110.343L587.586 116L581.929 121.657C581.538 122.047 581.538 122.681 581.929 123.071C582.319 123.462 582.953 123.462 583.343 123.071L589.707 116.707ZM31 117H589V115H31V117Z" fill="black"/>
<path d="M32.9261 104.062V108H31.9205V99.2727H32.9261V102.477H33.0114C33.1648 102.139 33.3949 101.871 33.7017 101.672C34.0114 101.47 34.4233 101.369 34.9375 101.369C35.3835 101.369 35.7741 101.459 36.1094 101.638C36.4446 101.814 36.7045 102.085 36.8892 102.452C37.0767 102.815 37.1705 103.278 37.1705 103.841V108H36.1648V103.909C36.1648 103.389 36.0298 102.987 35.7599 102.703C35.4929 102.416 35.1222 102.273 34.6477 102.273C34.3182 102.273 34.0227 102.342 33.7614 102.482C33.5028 102.621 33.2983 102.824 33.1477 103.091C33 103.358 32.9261 103.682 32.9261 104.062ZM40.9364 108.153C40.5217 108.153 40.1452 108.075 39.8072 107.919C39.4691 107.76 39.2006 107.531 39.0018 107.233C38.8029 106.932 38.7035 106.568 38.7035 106.142C38.7035 105.767 38.7773 105.463 38.9251 105.23C39.0728 104.994 39.2702 104.81 39.5174 104.676C39.7646 104.543 40.0373 104.443 40.3356 104.378C40.6367 104.31 40.9393 104.256 41.2433 104.216C41.641 104.165 41.9634 104.126 42.2106 104.101C42.4606 104.072 42.6424 104.026 42.756 103.96C42.8725 103.895 42.9308 103.781 42.9308 103.619V103.585C42.9308 103.165 42.8157 102.838 42.5856 102.605C42.3583 102.372 42.0131 102.256 41.5501 102.256C41.07 102.256 40.6935 102.361 40.4208 102.571C40.1481 102.781 39.9563 103.006 39.8455 103.244L38.891 102.903C39.0614 102.506 39.2887 102.196 39.5728 101.974C39.8597 101.75 40.1722 101.594 40.5103 101.506C40.8512 101.415 41.1864 101.369 41.516 101.369C41.7262 101.369 41.9677 101.395 42.2404 101.446C42.516 101.494 42.7816 101.595 43.0373 101.749C43.2958 101.902 43.5103 102.134 43.6808 102.443C43.8512 102.753 43.9364 103.168 43.9364 103.688V108H42.9308V107.114H42.8796C42.8114 107.256 42.6978 107.408 42.5387 107.57C42.3796 107.732 42.168 107.869 41.9038 107.983C41.6396 108.097 41.3171 108.153 40.9364 108.153ZM41.0898 107.25C41.4876 107.25 41.8228 107.172 42.0955 107.016C42.3711 106.859 42.5785 106.658 42.7177 106.411C42.8597 106.163 42.9308 105.903 42.9308 105.631V104.71C42.8881 104.761 42.7944 104.808 42.6495 104.851C42.5075 104.891 42.3427 104.926 42.1552 104.957C41.9705 104.986 41.7901 105.011 41.614 105.034C41.4407 105.054 41.3001 105.071 41.1921 105.085C40.9308 105.119 40.6864 105.175 40.4592 105.251C40.2347 105.325 40.0529 105.437 39.9137 105.588C39.7773 105.736 39.7092 105.937 39.7092 106.193C39.7092 106.543 39.8384 106.807 40.0969 106.986C40.3583 107.162 40.6893 107.25 41.0898 107.25ZM41.158 100.568L39.8285 98.5909H41.0046L42.0444 100.568H41.158ZM46.7777 104.062V108H45.772V101.455H46.7436V102.477H46.8288C46.9822 102.145 47.2152 101.878 47.5277 101.676C47.8402 101.472 48.2436 101.369 48.7379 101.369C49.1811 101.369 49.5689 101.46 49.9013 101.642C50.2337 101.821 50.4922 102.094 50.6768 102.46C50.8615 102.824 50.9538 103.284 50.9538 103.841V108H49.9482V103.909C49.9482 103.395 49.8146 102.994 49.5476 102.707C49.2805 102.418 48.9141 102.273 48.4482 102.273C48.1271 102.273 47.8402 102.342 47.5874 102.482C47.3374 102.621 47.1399 102.824 46.995 103.091C46.8501 103.358 46.7777 103.682 46.7777 104.062ZM55.4336 110.591C54.9478 110.591 54.5302 110.528 54.1808 110.403C53.8313 110.281 53.5401 110.119 53.3072 109.918C53.0771 109.719 52.8938 109.506 52.7575 109.278L53.5586 108.716C53.6495 108.835 53.7646 108.972 53.9038 109.125C54.043 109.281 54.2333 109.416 54.4748 109.53C54.7191 109.646 55.0387 109.705 55.4336 109.705C55.962 109.705 56.3981 109.577 56.7418 109.321C57.0856 109.065 57.2575 108.665 57.2575 108.119V106.79H57.1722C57.0984 106.909 56.9933 107.057 56.8569 107.233C56.7234 107.406 56.5302 107.561 56.2773 107.697C56.0273 107.831 55.6893 107.898 55.2631 107.898C54.7347 107.898 54.2603 107.773 53.8398 107.523C53.4222 107.273 53.0913 106.909 52.8469 106.432C52.6055 105.955 52.4847 105.375 52.4847 104.693C52.4847 104.023 52.6026 103.439 52.8384 102.942C53.0742 102.442 53.4023 102.055 53.8228 101.783C54.2433 101.507 54.729 101.369 55.2802 101.369C55.7063 101.369 56.0444 101.44 56.2944 101.582C56.5472 101.722 56.7404 101.881 56.8739 102.06C57.0103 102.236 57.1154 102.381 57.1893 102.494H57.2915V101.455H58.2631V108.188C58.2631 108.75 58.1353 109.207 57.8796 109.56C57.6268 109.915 57.2859 110.175 56.8569 110.339C56.4308 110.507 55.9563 110.591 55.4336 110.591ZM55.3995 106.994C55.8029 106.994 56.1438 106.902 56.4222 106.717C56.7006 106.533 56.9123 106.267 57.0572 105.92C57.2021 105.574 57.2745 105.159 57.2745 104.676C57.2745 104.205 57.2035 103.788 57.0614 103.428C56.9194 103.067 56.7092 102.784 56.4308 102.58C56.1523 102.375 55.8086 102.273 55.3995 102.273C54.9734 102.273 54.6183 102.381 54.3342 102.597C54.0529 102.812 53.8413 103.102 53.6992 103.466C53.56 103.83 53.4904 104.233 53.4904 104.676C53.4904 105.131 53.5614 105.533 53.7035 105.882C53.8484 106.229 54.0614 106.501 54.3427 106.7C54.6268 106.896 54.979 106.994 55.3995 106.994ZM63.462 108V107.233L66.3427 104.08C66.6808 103.71 66.9592 103.389 67.1779 103.116C67.3967 102.841 67.5586 102.582 67.6637 102.341C67.7717 102.097 67.8256 101.841 67.8256 101.574C67.8256 101.267 67.7518 101.001 67.604 100.777C67.4592 100.553 67.2603 100.379 67.0075 100.257C66.7546 100.135 66.4705 100.074 66.1552 100.074C65.82 100.074 65.5273 100.143 65.2773 100.283C65.0302 100.419 64.8384 100.611 64.7021 100.858C64.5685 101.105 64.5018 101.395 64.5018 101.727H63.4961C63.4961 101.216 63.614 100.767 63.8498 100.381C64.0856 99.9943 64.4066 99.6932 64.8129 99.4773C65.2219 99.2614 65.6808 99.1534 66.1893 99.1534C66.7006 99.1534 67.1538 99.2614 67.5487 99.4773C67.9435 99.6932 68.2532 99.9844 68.4776 100.351C68.7021 100.717 68.8143 101.125 68.8143 101.574C68.8143 101.895 68.756 102.209 68.6396 102.516C68.5259 102.82 68.3271 103.159 68.043 103.534C67.7617 103.906 67.3711 104.361 66.8711 104.898L64.9109 106.994V107.062H68.9677V108H63.462Z" fill="black"/>
<path d="M589.707 167.707C590.098 167.317 590.098 166.683 589.707 166.293L583.343 159.929C582.953 159.538 582.319 159.538 581.929 159.929C581.538 160.319 581.538 160.953 581.929 161.343L587.586 167L581.929 172.657C581.538 173.047 581.538 173.681 581.929 174.071C582.319 174.462 582.953 174.462 583.343 174.071L589.707 167.707ZM31 168H589V166H31V168Z" fill="black"/>
<path d="M32.9261 155.062V159H31.9205V150.273H32.9261V153.477H33.0114C33.1648 153.139 33.3949 152.871 33.7017 152.672C34.0114 152.47 34.4233 152.369 34.9375 152.369C35.3835 152.369 35.7741 152.459 36.1094 152.638C36.4446 152.814 36.7045 153.085 36.8892 153.452C37.0767 153.815 37.1705 154.278 37.1705 154.841V159H36.1648V154.909C36.1648 154.389 36.0298 153.987 35.7599 153.703C35.4929 153.416 35.1222 153.273 34.6477 153.273C34.3182 153.273 34.0227 153.342 33.7614 153.482C33.5028 153.621 33.2983 153.824 33.1477 154.091C33 154.358 32.9261 154.682 32.9261 155.062ZM40.9364 159.153C40.5217 159.153 40.1452 159.075 39.8072 158.919C39.4691 158.76 39.2006 158.531 39.0018 158.233C38.8029 157.932 38.7035 157.568 38.7035 157.142C38.7035 156.767 38.7773 156.463 38.9251 156.23C39.0728 155.994 39.2702 155.81 39.5174 155.676C39.7646 155.543 40.0373 155.443 40.3356 155.378C40.6367 155.31 40.9393 155.256 41.2433 155.216C41.641 155.165 41.9634 155.126 42.2106 155.101C42.4606 155.072 42.6424 155.026 42.756 154.96C42.8725 154.895 42.9308 154.781 42.9308 154.619V154.585C42.9308 154.165 42.8157 153.838 42.5856 153.605C42.3583 153.372 42.0131 153.256 41.5501 153.256C41.07 153.256 40.6935 153.361 40.4208 153.571C40.1481 153.781 39.9563 154.006 39.8455 154.244L38.891 153.903C39.0614 153.506 39.2887 153.196 39.5728 152.974C39.8597 152.75 40.1722 152.594 40.5103 152.506C40.8512 152.415 41.1864 152.369 41.516 152.369C41.7262 152.369 41.9677 152.395 42.2404 152.446C42.516 152.494 42.7816 152.595 43.0373 152.749C43.2958 152.902 43.5103 153.134 43.6808 153.443C43.8512 153.753 43.9364 154.168 43.9364 154.688V159H42.9308V158.114H42.8796C42.8114 158.256 42.6978 158.408 42.5387 158.57C42.3796 158.732 42.168 158.869 41.9038 158.983C41.6396 159.097 41.3171 159.153 40.9364 159.153ZM41.0898 158.25C41.4876 158.25 41.8228 158.172 42.0955 158.016C42.3711 157.859 42.5785 157.658 42.7177 157.411C42.8597 157.163 42.9308 156.903 42.9308 156.631V155.71C42.8881 155.761 42.7944 155.808 42.6495 155.851C42.5075 155.891 42.3427 155.926 42.1552 155.957C41.9705 155.986 41.7901 156.011 41.614 156.034C41.4407 156.054 41.3001 156.071 41.1921 156.085C40.9308 156.119 40.6864 156.175 40.4592 156.251C40.2347 156.325 40.0529 156.437 39.9137 156.588C39.7773 156.736 39.7092 156.937 39.7092 157.193C39.7092 157.543 39.8384 157.807 40.0969 157.986C40.3583 158.162 40.6893 158.25 41.0898 158.25ZM41.158 151.568L39.8285 149.591H41.0046L42.0444 151.568H41.158ZM46.7777 155.062V159H45.772V152.455H46.7436V153.477H46.8288C46.9822 153.145 47.2152 152.878 47.5277 152.676C47.8402 152.472 48.2436 152.369 48.7379 152.369C49.1811 152.369 49.5689 152.46 49.9013 152.642C50.2337 152.821 50.4922 153.094 50.6768 153.46C50.8615 153.824 50.9538 154.284 50.9538 154.841V159H49.9482V154.909C49.9482 154.395 49.8146 153.994 49.5476 153.707C49.2805 153.418 48.9141 153.273 48.4482 153.273C48.1271 153.273 47.8402 153.342 47.5874 153.482C47.3374 153.621 47.1399 153.824 46.995 154.091C46.8501 154.358 46.7777 154.682 46.7777 155.062ZM55.4336 161.591C54.9478 161.591 54.5302 161.528 54.1808 161.403C53.8313 161.281 53.5401 161.119 53.3072 160.918C53.0771 160.719 52.8938 160.506 52.7575 160.278L53.5586 159.716C53.6495 159.835 53.7646 159.972 53.9038 160.125C54.043 160.281 54.2333 160.416 54.4748 160.53C54.7191 160.646 55.0387 160.705 55.4336 160.705C55.962 160.705 56.3981 160.577 56.7418 160.321C57.0856 160.065 57.2575 159.665 57.2575 159.119V157.79H57.1722C57.0984 157.909 56.9933 158.057 56.8569 158.233C56.7234 158.406 56.5302 158.561 56.2773 158.697C56.0273 158.831 55.6893 158.898 55.2631 158.898C54.7347 158.898 54.2603 158.773 53.8398 158.523C53.4222 158.273 53.0913 157.909 52.8469 157.432C52.6055 156.955 52.4847 156.375 52.4847 155.693C52.4847 155.023 52.6026 154.439 52.8384 153.942C53.0742 153.442 53.4023 153.055 53.8228 152.783C54.2433 152.507 54.729 152.369 55.2802 152.369C55.7063 152.369 56.0444 152.44 56.2944 152.582C56.5472 152.722 56.7404 152.881 56.8739 153.06C57.0103 153.236 57.1154 153.381 57.1893 153.494H57.2915V152.455H58.2631V159.188C58.2631 159.75 58.1353 160.207 57.8796 160.56C57.6268 160.915 57.2859 161.175 56.8569 161.339C56.4308 161.507 55.9563 161.591 55.4336 161.591ZM55.3995 157.994C55.8029 157.994 56.1438 157.902 56.4222 157.717C56.7006 157.533 56.9123 157.267 57.0572 156.92C57.2021 156.574 57.2745 156.159 57.2745 155.676C57.2745 155.205 57.2035 154.788 57.0614 154.428C56.9194 154.067 56.7092 153.784 56.4308 153.58C56.1523 153.375 55.8086 153.273 55.3995 153.273C54.9734 153.273 54.6183 153.381 54.3342 153.597C54.0529 153.812 53.8413 154.102 53.6992 154.466C53.56 154.83 53.4904 155.233 53.4904 155.676C53.4904 156.131 53.5614 156.533 53.7035 156.882C53.8484 157.229 54.0614 157.501 54.3427 157.7C54.6268 157.896 54.979 157.994 55.3995 157.994ZM66.4109 159.119C65.8484 159.119 65.3469 159.023 64.9066 158.83C64.4691 158.636 64.1211 158.368 63.8626 158.024C63.6069 157.678 63.4677 157.276 63.445 156.818H64.5188C64.5415 157.099 64.6381 157.342 64.8086 157.547C64.979 157.749 65.2021 157.905 65.4776 158.016C65.7532 158.126 66.0586 158.182 66.3938 158.182C66.7688 158.182 67.1012 158.116 67.391 157.986C67.6808 157.855 67.908 157.673 68.0728 157.44C68.2376 157.207 68.32 156.938 68.32 156.631C68.32 156.31 68.2404 156.027 68.0813 155.783C67.9222 155.536 67.6893 155.342 67.3825 155.203C67.0756 155.064 66.7006 154.994 66.2575 154.994H65.5586V154.057H66.2575C66.604 154.057 66.908 153.994 67.1694 153.869C67.4336 153.744 67.6396 153.568 67.7873 153.341C67.9379 153.114 68.0131 152.847 68.0131 152.54C68.0131 152.244 67.9478 151.987 67.8171 151.768C67.6864 151.55 67.5018 151.379 67.2631 151.257C67.0273 151.135 66.7489 151.074 66.4279 151.074C66.1268 151.074 65.8427 151.129 65.5756 151.24C65.3114 151.348 65.0955 151.506 64.9279 151.713C64.7603 151.918 64.6694 152.165 64.6552 152.455H63.6325C63.6495 151.997 63.7873 151.597 64.0458 151.253C64.3043 150.906 64.6424 150.636 65.06 150.443C65.4805 150.25 65.9421 150.153 66.445 150.153C66.9847 150.153 67.4478 150.263 67.8342 150.482C68.2205 150.697 68.5174 150.983 68.7248 151.338C68.9322 151.693 69.0359 152.077 69.0359 152.489C69.0359 152.98 68.9066 153.399 68.6481 153.746C68.3924 154.092 68.0444 154.332 67.604 154.466V154.534C68.1552 154.625 68.5856 154.859 68.8952 155.237C69.2049 155.612 69.3597 156.077 69.3597 156.631C69.3597 157.105 69.2305 157.531 68.9719 157.909C68.7163 158.284 68.3668 158.58 67.9237 158.795C67.4805 159.011 66.9762 159.119 66.4109 159.119Z" fill="black"/>
<path d="M589.707 218.707C590.098 218.317 590.098 217.683 589.707 217.293L583.343 210.929C582.953 210.538 582.319 210.538 581.929 210.929C581.538 211.319 581.538 211.953 581.929 212.343L587.586 218L581.929 223.657C581.538 224.047 581.538 224.681 581.929 225.071C582.319 225.462 582.953 225.462 583.343 225.071L589.707 218.707ZM31 219H589V217H31V219Z" fill="black"/>
<path d="M32.9261 206.062V210H31.9205V201.273H32.9261V204.477H33.0114C33.1648 204.139 33.3949 203.871 33.7017 203.672C34.0114 203.47 34.4233 203.369 34.9375 203.369C35.3835 203.369 35.7741 203.459 36.1094 203.638C36.4446 203.814 36.7045 204.085 36.8892 204.452C37.0767 204.815 37.1705 205.278 37.1705 205.841V210H36.1648V205.909C36.1648 205.389 36.0298 204.987 35.7599 204.703C35.4929 204.416 35.1222 204.273 34.6477 204.273C34.3182 204.273 34.0227 204.342 33.7614 204.482C33.5028 204.621 33.2983 204.824 33.1477 205.091C33 205.358 32.9261 205.682 32.9261 206.062ZM40.9364 210.153C40.5217 210.153 40.1452 210.075 39.8072 209.919C39.4691 209.76 39.2006 209.531 39.0018 209.233C38.8029 208.932 38.7035 208.568 38.7035 208.142C38.7035 207.767 38.7773 207.463 38.9251 207.23C39.0728 206.994 39.2702 206.81 39.5174 206.676C39.7646 206.543 40.0373 206.443 40.3356 206.378C40.6367 206.31 40.9393 206.256 41.2433 206.216C41.641 206.165 41.9634 206.126 42.2106 206.101C42.4606 206.072 42.6424 206.026 42.756 205.96C42.8725 205.895 42.9308 205.781 42.9308 205.619V205.585C42.9308 205.165 42.8157 204.838 42.5856 204.605C42.3583 204.372 42.0131 204.256 41.5501 204.256C41.07 204.256 40.6935 204.361 40.4208 204.571C40.1481 204.781 39.9563 205.006 39.8455 205.244L38.891 204.903C39.0614 204.506 39.2887 204.196 39.5728 203.974C39.8597 203.75 40.1722 203.594 40.5103 203.506C40.8512 203.415 41.1864 203.369 41.516 203.369C41.7262 203.369 41.9677 203.395 42.2404 203.446C42.516 203.494 42.7816 203.595 43.0373 203.749C43.2958 203.902 43.5103 204.134 43.6808 204.443C43.8512 204.753 43.9364 205.168 43.9364 205.688V210H42.9308V209.114H42.8796C42.8114 209.256 42.6978 209.408 42.5387 209.57C42.3796 209.732 42.168 209.869 41.9038 209.983C41.6396 210.097 41.3171 210.153 40.9364 210.153ZM41.0898 209.25C41.4876 209.25 41.8228 209.172 42.0955 209.016C42.3711 208.859 42.5785 208.658 42.7177 208.411C42.8597 208.163 42.9308 207.903 42.9308 207.631V206.71C42.8881 206.761 42.7944 206.808 42.6495 206.851C42.5075 206.891 42.3427 206.926 42.1552 206.957C41.9705 206.986 41.7901 207.011 41.614 207.034C41.4407 207.054 41.3001 207.071 41.1921 207.085C40.9308 207.119 40.6864 207.175 40.4592 207.251C40.2347 207.325 40.0529 207.437 39.9137 207.588C39.7773 207.736 39.7092 207.937 39.7092 208.193C39.7092 208.543 39.8384 208.807 40.0969 208.986C40.3583 209.162 40.6893 209.25 41.0898 209.25ZM41.158 202.568L39.8285 200.591H41.0046L42.0444 202.568H41.158ZM46.7777 206.062V210H45.772V203.455H46.7436V204.477H46.8288C46.9822 204.145 47.2152 203.878 47.5277 203.676C47.8402 203.472 48.2436 203.369 48.7379 203.369C49.1811 203.369 49.5689 203.46 49.9013 203.642C50.2337 203.821 50.4922 204.094 50.6768 204.46C50.8615 204.824 50.9538 205.284 50.9538 205.841V210H49.9482V205.909C49.9482 205.395 49.8146 204.994 49.5476 204.707C49.2805 204.418 48.9141 204.273 48.4482 204.273C48.1271 204.273 47.8402 204.342 47.5874 204.482C47.3374 204.621 47.1399 204.824 46.995 205.091C46.8501 205.358 46.7777 205.682 46.7777 206.062ZM55.4336 212.591C54.9478 212.591 54.5302 212.528 54.1808 212.403C53.8313 212.281 53.5401 212.119 53.3072 211.918C53.0771 211.719 52.8938 211.506 52.7575 211.278L53.5586 210.716C53.6495 210.835 53.7646 210.972 53.9038 211.125C54.043 211.281 54.2333 211.416 54.4748 211.53C54.7191 211.646 55.0387 211.705 55.4336 211.705C55.962 211.705 56.3981 211.577 56.7418 211.321C57.0856 211.065 57.2575 210.665 57.2575 210.119V208.79H57.1722C57.0984 208.909 56.9933 209.057 56.8569 209.233C56.7234 209.406 56.5302 209.561 56.2773 209.697C56.0273 209.831 55.6893 209.898 55.2631 209.898C54.7347 209.898 54.2603 209.773 53.8398 209.523C53.4222 209.273 53.0913 208.909 52.8469 208.432C52.6055 207.955 52.4847 207.375 52.4847 206.693C52.4847 206.023 52.6026 205.439 52.8384 204.942C53.0742 204.442 53.4023 204.055 53.8228 203.783C54.2433 203.507 54.729 203.369 55.2802 203.369C55.7063 203.369 56.0444 203.44 56.2944 203.582C56.5472 203.722 56.7404 203.881 56.8739 204.06C57.0103 204.236 57.1154 204.381 57.1893 204.494H57.2915V203.455H58.2631V210.188C58.2631 210.75 58.1353 211.207 57.8796 211.56C57.6268 211.915 57.2859 212.175 56.8569 212.339C56.4308 212.507 55.9563 212.591 55.4336 212.591ZM55.3995 208.994C55.8029 208.994 56.1438 208.902 56.4222 208.717C56.7006 208.533 56.9123 208.267 57.0572 207.92C57.2021 207.574 57.2745 207.159 57.2745 206.676C57.2745 206.205 57.2035 205.788 57.0614 205.428C56.9194 205.067 56.7092 204.784 56.4308 204.58C56.1523 204.375 55.8086 204.273 55.3995 204.273C54.9734 204.273 54.6183 204.381 54.3342 204.597C54.0529 204.812 53.8413 205.102 53.6992 205.466C53.56 205.83 53.4904 206.233 53.4904 206.676C53.4904 207.131 53.5614 207.533 53.7035 207.882C53.8484 208.229 54.0614 208.501 54.3427 208.7C54.6268 208.896 54.979 208.994 55.3995 208.994ZM63.2575 208.21V207.341L67.0927 201.273H67.7234V202.619H67.2972L64.3995 207.205V207.273H69.5643V208.21H63.2575ZM67.3654 210V207.946V207.541V201.273H68.3711V210H67.3654Z" fill="black"/>
<path d="M589.707 269.707C590.098 269.317 590.098 268.683 589.707 268.293L583.343 261.929C582.953 261.538 582.319 261.538 581.929 261.929C581.538 262.319 581.538 262.953 581.929 263.343L587.586 269L581.929 274.657C581.538 275.047 581.538 275.681 581.929 276.071C582.319 276.462 582.953 276.462 583.343 276.071L589.707 269.707ZM31 270H589V268H31V270Z" fill="black"/>
<path d="M32.9261 257.062V261H31.9205V252.273H32.9261V255.477H33.0114C33.1648 255.139 33.3949 254.871 33.7017 254.672C34.0114 254.47 34.4233 254.369 34.9375 254.369C35.3835 254.369 35.7741 254.459 36.1094 254.638C36.4446 254.814 36.7045 255.085 36.8892 255.452C37.0767 255.815 37.1705 256.278 37.1705 256.841V261H36.1648V256.909C36.1648 256.389 36.0298 255.987 35.7599 255.703C35.4929 255.416 35.1222 255.273 34.6477 255.273C34.3182 255.273 34.0227 255.342 33.7614 255.482C33.5028 255.621 33.2983 255.824 33.1477 256.091C33 256.358 32.9261 256.682 32.9261 257.062ZM40.9364 261.153C40.5217 261.153 40.1452 261.075 39.8072 260.919C39.4691 260.76 39.2006 260.531 39.0018 260.233C38.8029 259.932 38.7035 259.568 38.7035 259.142C38.7035 258.767 38.7773 258.463 38.9251 258.23C39.0728 257.994 39.2702 257.81 39.5174 257.676C39.7646 257.543 40.0373 257.443 40.3356 257.378C40.6367 257.31 40.9393 257.256 41.2433 257.216C41.641 257.165 41.9634 257.126 42.2106 257.101C42.4606 257.072 42.6424 257.026 42.756 256.96C42.8725 256.895 42.9308 256.781 42.9308 256.619V256.585C42.9308 256.165 42.8157 255.838 42.5856 255.605C42.3583 255.372 42.0131 255.256 41.5501 255.256C41.07 255.256 40.6935 255.361 40.4208 255.571C40.1481 255.781 39.9563 256.006 39.8455 256.244L38.891 255.903C39.0614 255.506 39.2887 255.196 39.5728 254.974C39.8597 254.75 40.1722 254.594 40.5103 254.506C40.8512 254.415 41.1864 254.369 41.516 254.369C41.7262 254.369 41.9677 254.395 42.2404 254.446C42.516 254.494 42.7816 254.595 43.0373 254.749C43.2958 254.902 43.5103 255.134 43.6808 255.443C43.8512 255.753 43.9364 256.168 43.9364 256.688V261H42.9308V260.114H42.8796C42.8114 260.256 42.6978 260.408 42.5387 260.57C42.3796 260.732 42.168 260.869 41.9038 260.983C41.6396 261.097 41.3171 261.153 40.9364 261.153ZM41.0898 260.25C41.4876 260.25 41.8228 260.172 42.0955 260.016C42.3711 259.859 42.5785 259.658 42.7177 259.411C42.8597 259.163 42.9308 258.903 42.9308 258.631V257.71C42.8881 257.761 42.7944 257.808 42.6495 257.851C42.5075 257.891 42.3427 257.926 42.1552 257.957C41.9705 257.986 41.7901 258.011 41.614 258.034C41.4407 258.054 41.3001 258.071 41.1921 258.085C40.9308 258.119 40.6864 258.175 40.4592 258.251C40.2347 258.325 40.0529 258.437 39.9137 258.588C39.7773 258.736 39.7092 258.937 39.7092 259.193C39.7092 259.543 39.8384 259.807 40.0969 259.986C40.3583 260.162 40.6893 260.25 41.0898 260.25ZM41.158 253.568L39.8285 251.591H41.0046L42.0444 253.568H41.158ZM46.7777 257.062V261H45.772V254.455H46.7436V255.477H46.8288C46.9822 255.145 47.2152 254.878 47.5277 254.676C47.8402 254.472 48.2436 254.369 48.7379 254.369C49.1811 254.369 49.5689 254.46 49.9013 254.642C50.2337 254.821 50.4922 255.094 50.6768 255.46C50.8615 255.824 50.9538 256.284 50.9538 256.841V261H49.9482V256.909C49.9482 256.395 49.8146 255.994 49.5476 255.707C49.2805 255.418 48.9141 255.273 48.4482 255.273C48.1271 255.273 47.8402 255.342 47.5874 255.482C47.3374 255.621 47.1399 255.824 46.995 256.091C46.8501 256.358 46.7777 256.682 46.7777 257.062ZM55.4336 263.591C54.9478 263.591 54.5302 263.528 54.1808 263.403C53.8313 263.281 53.5401 263.119 53.3072 262.918C53.0771 262.719 52.8938 262.506 52.7575 262.278L53.5586 261.716C53.6495 261.835 53.7646 261.972 53.9038 262.125C54.043 262.281 54.2333 262.416 54.4748 262.53C54.7191 262.646 55.0387 262.705 55.4336 262.705C55.962 262.705 56.3981 262.577 56.7418 262.321C57.0856 262.065 57.2575 261.665 57.2575 261.119V259.79H57.1722C57.0984 259.909 56.9933 260.057 56.8569 260.233C56.7234 260.406 56.5302 260.561 56.2773 260.697C56.0273 260.831 55.6893 260.898 55.2631 260.898C54.7347 260.898 54.2603 260.773 53.8398 260.523C53.4222 260.273 53.0913 259.909 52.8469 259.432C52.6055 258.955 52.4847 258.375 52.4847 257.693C52.4847 257.023 52.6026 256.439 52.8384 255.942C53.0742 255.442 53.4023 255.055 53.8228 254.783C54.2433 254.507 54.729 254.369 55.2802 254.369C55.7063 254.369 56.0444 254.44 56.2944 254.582C56.5472 254.722 56.7404 254.881 56.8739 255.06C57.0103 255.236 57.1154 255.381 57.1893 255.494H57.2915V254.455H58.2631V261.188C58.2631 261.75 58.1353 262.207 57.8796 262.56C57.6268 262.915 57.2859 263.175 56.8569 263.339C56.4308 263.507 55.9563 263.591 55.4336 263.591ZM55.3995 259.994C55.8029 259.994 56.1438 259.902 56.4222 259.717C56.7006 259.533 56.9123 259.267 57.0572 258.92C57.2021 258.574 57.2745 258.159 57.2745 257.676C57.2745 257.205 57.2035 256.788 57.0614 256.428C56.9194 256.067 56.7092 255.784 56.4308 255.58C56.1523 255.375 55.8086 255.273 55.3995 255.273C54.9734 255.273 54.6183 255.381 54.3342 255.597C54.0529 255.812 53.8413 256.102 53.6992 256.466C53.56 256.83 53.4904 257.233 53.4904 257.676C53.4904 258.131 53.5614 258.533 53.7035 258.882C53.8484 259.229 54.0614 259.501 54.3427 259.7C54.6268 259.896 54.979 259.994 55.3995 259.994ZM66.1893 261.119C65.6893 261.119 65.239 261.02 64.8384 260.821C64.4379 260.622 64.1168 260.349 63.8754 260.003C63.6339 259.656 63.5018 259.261 63.479 258.818H64.5018C64.5415 259.213 64.7205 259.54 65.0387 259.798C65.3597 260.054 65.7433 260.182 66.1893 260.182C66.5472 260.182 66.8654 260.098 67.1438 259.93C67.4251 259.763 67.6452 259.533 67.8043 259.24C67.9663 258.945 68.0472 258.611 68.0472 258.239C68.0472 257.858 67.9634 257.518 67.7958 257.22C67.631 256.919 67.4038 256.682 67.114 256.509C66.8242 256.335 66.4933 256.247 66.1211 256.244C65.854 256.241 65.5799 256.283 65.2987 256.368C65.0174 256.45 64.7859 256.557 64.604 256.688L63.6154 256.568L64.1438 252.273H68.6779V253.21H65.0302L64.7234 255.784H64.7745C64.9535 255.642 65.1779 255.524 65.4478 255.43C65.7177 255.337 65.9989 255.29 66.2915 255.29C66.8256 255.29 67.3015 255.418 67.7191 255.673C68.1396 255.926 68.4691 256.273 68.7077 256.713C68.9492 257.153 69.07 257.656 69.07 258.222C69.07 258.778 68.945 259.276 68.695 259.713C68.4478 260.148 68.1069 260.491 67.6722 260.744C67.2376 260.994 66.7433 261.119 66.1893 261.119Z" fill="black"/>
<path d="M589.707 320.707C590.098 320.317 590.098 319.683 589.707 319.293L583.343 312.929C582.953 312.538 582.319 312.538 581.929 312.929C581.538 313.319 581.538 313.953 581.929 314.343L587.586 320L581.929 325.657C581.538 326.047 581.538 326.681 581.929 327.071C582.319 327.462 582.953 327.462 583.343 327.071L589.707 320.707ZM31 321H589V319H31V321Z" fill="black"/>
<path d="M32.9261 308.062V312H31.9205V303.273H32.9261V306.477H33.0114C33.1648 306.139 33.3949 305.871 33.7017 305.672C34.0114 305.47 34.4233 305.369 34.9375 305.369C35.3835 305.369 35.7741 305.459 36.1094 305.638C36.4446 305.814 36.7045 306.085 36.8892 306.452C37.0767 306.815 37.1705 307.278 37.1705 307.841V312H36.1648V307.909C36.1648 307.389 36.0298 306.987 35.7599 306.703C35.4929 306.416 35.1222 306.273 34.6477 306.273C34.3182 306.273 34.0227 306.342 33.7614 306.482C33.5028 306.621 33.2983 306.824 33.1477 307.091C33 307.358 32.9261 307.682 32.9261 308.062ZM40.9364 312.153C40.5217 312.153 40.1452 312.075 39.8072 311.919C39.4691 311.76 39.2006 311.531 39.0018 311.233C38.8029 310.932 38.7035 310.568 38.7035 310.142C38.7035 309.767 38.7773 309.463 38.9251 309.23C39.0728 308.994 39.2702 308.81 39.5174 308.676C39.7646 308.543 40.0373 308.443 40.3356 308.378C40.6367 308.31 40.9393 308.256 41.2433 308.216C41.641 308.165 41.9634 308.126 42.2106 308.101C42.4606 308.072 42.6424 308.026 42.756 307.96C42.8725 307.895 42.9308 307.781 42.9308 307.619V307.585C42.9308 307.165 42.8157 306.838 42.5856 306.605C42.3583 306.372 42.0131 306.256 41.5501 306.256C41.07 306.256 40.6935 306.361 40.4208 306.571C40.1481 306.781 39.9563 307.006 39.8455 307.244L38.891 306.903C39.0614 306.506 39.2887 306.196 39.5728 305.974C39.8597 305.75 40.1722 305.594 40.5103 305.506C40.8512 305.415 41.1864 305.369 41.516 305.369C41.7262 305.369 41.9677 305.395 42.2404 305.446C42.516 305.494 42.7816 305.595 43.0373 305.749C43.2958 305.902 43.5103 306.134 43.6808 306.443C43.8512 306.753 43.9364 307.168 43.9364 307.688V312H42.9308V311.114H42.8796C42.8114 311.256 42.6978 311.408 42.5387 311.57C42.3796 311.732 42.168 311.869 41.9038 311.983C41.6396 312.097 41.3171 312.153 40.9364 312.153ZM41.0898 311.25C41.4876 311.25 41.8228 311.172 42.0955 311.016C42.3711 310.859 42.5785 310.658 42.7177 310.411C42.8597 310.163 42.9308 309.903 42.9308 309.631V308.71C42.8881 308.761 42.7944 308.808 42.6495 308.851C42.5075 308.891 42.3427 308.926 42.1552 308.957C41.9705 308.986 41.7901 309.011 41.614 309.034C41.4407 309.054 41.3001 309.071 41.1921 309.085C40.9308 309.119 40.6864 309.175 40.4592 309.251C40.2347 309.325 40.0529 309.437 39.9137 309.588C39.7773 309.736 39.7092 309.937 39.7092 310.193C39.7092 310.543 39.8384 310.807 40.0969 310.986C40.3583 311.162 40.6893 311.25 41.0898 311.25ZM41.158 304.568L39.8285 302.591H41.0046L42.0444 304.568H41.158ZM46.7777 308.062V312H45.772V305.455H46.7436V306.477H46.8288C46.9822 306.145 47.2152 305.878 47.5277 305.676C47.8402 305.472 48.2436 305.369 48.7379 305.369C49.1811 305.369 49.5689 305.46 49.9013 305.642C50.2337 305.821 50.4922 306.094 50.6768 306.46C50.8615 306.824 50.9538 307.284 50.9538 307.841V312H49.9482V307.909C49.9482 307.395 49.8146 306.994 49.5476 306.707C49.2805 306.418 48.9141 306.273 48.4482 306.273C48.1271 306.273 47.8402 306.342 47.5874 306.482C47.3374 306.621 47.1399 306.824 46.995 307.091C46.8501 307.358 46.7777 307.682 46.7777 308.062ZM55.4336 314.591C54.9478 314.591 54.5302 314.528 54.1808 314.403C53.8313 314.281 53.5401 314.119 53.3072 313.918C53.0771 313.719 52.8938 313.506 52.7575 313.278L53.5586 312.716C53.6495 312.835 53.7646 312.972 53.9038 313.125C54.043 313.281 54.2333 313.416 54.4748 313.53C54.7191 313.646 55.0387 313.705 55.4336 313.705C55.962 313.705 56.3981 313.577 56.7418 313.321C57.0856 313.065 57.2575 312.665 57.2575 312.119V310.79H57.1722C57.0984 310.909 56.9933 311.057 56.8569 311.233C56.7234 311.406 56.5302 311.561 56.2773 311.697C56.0273 311.831 55.6893 311.898 55.2631 311.898C54.7347 311.898 54.2603 311.773 53.8398 311.523C53.4222 311.273 53.0913 310.909 52.8469 310.432C52.6055 309.955 52.4847 309.375 52.4847 308.693C52.4847 308.023 52.6026 307.439 52.8384 306.942C53.0742 306.442 53.4023 306.055 53.8228 305.783C54.2433 305.507 54.729 305.369 55.2802 305.369C55.7063 305.369 56.0444 305.44 56.2944 305.582C56.5472 305.722 56.7404 305.881 56.8739 306.06C57.0103 306.236 57.1154 306.381 57.1893 306.494H57.2915V305.455H58.2631V312.188C58.2631 312.75 58.1353 313.207 57.8796 313.56C57.6268 313.915 57.2859 314.175 56.8569 314.339C56.4308 314.507 55.9563 314.591 55.4336 314.591ZM55.3995 310.994C55.8029 310.994 56.1438 310.902 56.4222 310.717C56.7006 310.533 56.9123 310.267 57.0572 309.92C57.2021 309.574 57.2745 309.159 57.2745 308.676C57.2745 308.205 57.2035 307.788 57.0614 307.428C56.9194 307.067 56.7092 306.784 56.4308 306.58C56.1523 306.375 55.8086 306.273 55.3995 306.273C54.9734 306.273 54.6183 306.381 54.3342 306.597C54.0529 306.812 53.8413 307.102 53.6992 307.466C53.56 307.83 53.4904 308.233 53.4904 308.676C53.4904 309.131 53.5614 309.533 53.7035 309.882C53.8484 310.229 54.0614 310.501 54.3427 310.7C54.6268 310.896 54.979 310.994 55.3995 310.994ZM66.3597 312.119C66.0018 312.114 65.6438 312.045 65.2859 311.915C64.9279 311.784 64.6012 311.564 64.3058 311.254C64.0103 310.942 63.7731 310.52 63.5941 309.989C63.4151 309.455 63.3256 308.784 63.3256 307.977C63.3256 307.205 63.3981 306.52 63.543 305.923C63.6879 305.324 63.8981 304.82 64.1737 304.411C64.4492 303.999 64.7816 303.686 65.1708 303.473C65.5629 303.26 66.0046 303.153 66.4961 303.153C66.9847 303.153 67.4194 303.251 67.8001 303.447C68.1836 303.641 68.4961 303.911 68.7376 304.257C68.979 304.604 69.1353 305.003 69.2063 305.455H68.1665C68.07 305.062 67.8825 304.737 67.604 304.479C67.3256 304.22 66.9563 304.091 66.4961 304.091C65.82 304.091 65.2873 304.385 64.8981 304.973C64.5117 305.561 64.3171 306.386 64.3143 307.449H64.3825C64.5415 307.207 64.7305 307.001 64.9492 306.831C65.1708 306.658 65.4151 306.524 65.6822 306.43C65.9492 306.337 66.2319 306.29 66.5302 306.29C67.0302 306.29 67.4876 306.415 67.9023 306.665C68.3171 306.912 68.6495 307.254 68.8995 307.692C69.1495 308.126 69.2745 308.625 69.2745 309.188C69.2745 309.727 69.1538 310.222 68.9123 310.67C68.6708 311.116 68.3313 311.472 67.8938 311.736C67.4592 311.997 66.9478 312.125 66.3597 312.119ZM66.3597 311.182C66.7177 311.182 67.0387 311.092 67.3228 310.913C67.6097 310.734 67.8356 310.494 68.0004 310.193C68.168 309.892 68.2518 309.557 68.2518 309.188C68.2518 308.827 68.1708 308.499 68.0089 308.203C67.8498 307.905 67.6296 307.668 67.3484 307.491C67.07 307.315 66.7518 307.227 66.3938 307.227C66.1239 307.227 65.8725 307.281 65.6396 307.389C65.4066 307.494 65.2021 307.639 65.0259 307.824C64.8526 308.009 64.7163 308.22 64.6168 308.459C64.5174 308.695 64.4677 308.943 64.4677 309.205C64.4677 309.551 64.5487 309.875 64.7106 310.176C64.8754 310.477 65.0998 310.72 65.3839 310.905C65.6708 311.089 65.9961 311.182 66.3597 311.182Z" fill="black"/>
<path d="M589.707 371.707C590.098 371.317 590.098 370.683 589.707 370.293L583.343 363.929C582.953 363.538 582.319 363.538 581.929 363.929C581.538 364.319 581.538 364.953 581.929 365.343L587.586 371L581.929 376.657C581.538 377.047 581.538 377.681 581.929 378.071C582.319 378.462 582.953 378.462 583.343 378.071L589.707 371.707ZM31 372H589V370H31V372Z" fill="black"/>
<path d="M32.9261 359.062V363H31.9205V354.273H32.9261V357.477H33.0114C33.1648 357.139 33.3949 356.871 33.7017 356.672C34.0114 356.47 34.4233 356.369 34.9375 356.369C35.3835 356.369 35.7741 356.459 36.1094 356.638C36.4446 356.814 36.7045 357.085 36.8892 357.452C37.0767 357.815 37.1705 358.278 37.1705 358.841V363H36.1648V358.909C36.1648 358.389 36.0298 357.987 35.7599 357.703C35.4929 357.416 35.1222 357.273 34.6477 357.273C34.3182 357.273 34.0227 357.342 33.7614 357.482C33.5028 357.621 33.2983 357.824 33.1477 358.091C33 358.358 32.9261 358.682 32.9261 359.062ZM40.9364 363.153C40.5217 363.153 40.1452 363.075 39.8072 362.919C39.4691 362.76 39.2006 362.531 39.0018 362.233C38.8029 361.932 38.7035 361.568 38.7035 361.142C38.7035 360.767 38.7773 360.463 38.9251 360.23C39.0728 359.994 39.2702 359.81 39.5174 359.676C39.7646 359.543 40.0373 359.443 40.3356 359.378C40.6367 359.31 40.9393 359.256 41.2433 359.216C41.641 359.165 41.9634 359.126 42.2106 359.101C42.4606 359.072 42.6424 359.026 42.756 358.96C42.8725 358.895 42.9308 358.781 42.9308 358.619V358.585C42.9308 358.165 42.8157 357.838 42.5856 357.605C42.3583 357.372 42.0131 357.256 41.5501 357.256C41.07 357.256 40.6935 357.361 40.4208 357.571C40.1481 357.781 39.9563 358.006 39.8455 358.244L38.891 357.903C39.0614 357.506 39.2887 357.196 39.5728 356.974C39.8597 356.75 40.1722 356.594 40.5103 356.506C40.8512 356.415 41.1864 356.369 41.516 356.369C41.7262 356.369 41.9677 356.395 42.2404 356.446C42.516 356.494 42.7816 356.595 43.0373 356.749C43.2958 356.902 43.5103 357.134 43.6808 357.443C43.8512 357.753 43.9364 358.168 43.9364 358.688V363H42.9308V362.114H42.8796C42.8114 362.256 42.6978 362.408 42.5387 362.57C42.3796 362.732 42.168 362.869 41.9038 362.983C41.6396 363.097 41.3171 363.153 40.9364 363.153ZM41.0898 362.25C41.4876 362.25 41.8228 362.172 42.0955 362.016C42.3711 361.859 42.5785 361.658 42.7177 361.411C42.8597 361.163 42.9308 360.903 42.9308 360.631V359.71C42.8881 359.761 42.7944 359.808 42.6495 359.851C42.5075 359.891 42.3427 359.926 42.1552 359.957C41.9705 359.986 41.7901 360.011 41.614 360.034C41.4407 360.054 41.3001 360.071 41.1921 360.085C40.9308 360.119 40.6864 360.175 40.4592 360.251C40.2347 360.325 40.0529 360.437 39.9137 360.588C39.7773 360.736 39.7092 360.937 39.7092 361.193C39.7092 361.543 39.8384 361.807 40.0969 361.986C40.3583 362.162 40.6893 362.25 41.0898 362.25ZM41.158 355.568L39.8285 353.591H41.0046L42.0444 355.568H41.158ZM46.7777 359.062V363H45.772V356.455H46.7436V357.477H46.8288C46.9822 357.145 47.2152 356.878 47.5277 356.676C47.8402 356.472 48.2436 356.369 48.7379 356.369C49.1811 356.369 49.5689 356.46 49.9013 356.642C50.2337 356.821 50.4922 357.094 50.6768 357.46C50.8615 357.824 50.9538 358.284 50.9538 358.841V363H49.9482V358.909C49.9482 358.395 49.8146 357.994 49.5476 357.707C49.2805 357.418 48.9141 357.273 48.4482 357.273C48.1271 357.273 47.8402 357.342 47.5874 357.482C47.3374 357.621 47.1399 357.824 46.995 358.091C46.8501 358.358 46.7777 358.682 46.7777 359.062ZM55.4336 365.591C54.9478 365.591 54.5302 365.528 54.1808 365.403C53.8313 365.281 53.5401 365.119 53.3072 364.918C53.0771 364.719 52.8938 364.506 52.7575 364.278L53.5586 363.716C53.6495 363.835 53.7646 363.972 53.9038 364.125C54.043 364.281 54.2333 364.416 54.4748 364.53C54.7191 364.646 55.0387 364.705 55.4336 364.705C55.962 364.705 56.3981 364.577 56.7418 364.321C57.0856 364.065 57.2575 363.665 57.2575 363.119V361.79H57.1722C57.0984 361.909 56.9933 362.057 56.8569 362.233C56.7234 362.406 56.5302 362.561 56.2773 362.697C56.0273 362.831 55.6893 362.898 55.2631 362.898C54.7347 362.898 54.2603 362.773 53.8398 362.523C53.4222 362.273 53.0913 361.909 52.8469 361.432C52.6055 360.955 52.4847 360.375 52.4847 359.693C52.4847 359.023 52.6026 358.439 52.8384 357.942C53.0742 357.442 53.4023 357.055 53.8228 356.783C54.2433 356.507 54.729 356.369 55.2802 356.369C55.7063 356.369 56.0444 356.44 56.2944 356.582C56.5472 356.722 56.7404 356.881 56.8739 357.06C57.0103 357.236 57.1154 357.381 57.1893 357.494H57.2915V356.455H58.2631V363.188C58.2631 363.75 58.1353 364.207 57.8796 364.56C57.6268 364.915 57.2859 365.175 56.8569 365.339C56.4308 365.507 55.9563 365.591 55.4336 365.591ZM55.3995 361.994C55.8029 361.994 56.1438 361.902 56.4222 361.717C56.7006 361.533 56.9123 361.267 57.0572 360.92C57.2021 360.574 57.2745 360.159 57.2745 359.676C57.2745 359.205 57.2035 358.788 57.0614 358.428C56.9194 358.067 56.7092 357.784 56.4308 357.58C56.1523 357.375 55.8086 357.273 55.3995 357.273C54.9734 357.273 54.6183 357.381 54.3342 357.597C54.0529 357.812 53.8413 358.102 53.6992 358.466C53.56 358.83 53.4904 359.233 53.4904 359.676C53.4904 360.131 53.5614 360.533 53.7035 360.882C53.8484 361.229 54.0614 361.501 54.3427 361.7C54.6268 361.896 54.979 361.994 55.3995 361.994ZM63.7347 363L67.6381 355.278V355.21H63.1381V354.273H68.729V355.261L64.8427 363H63.7347Z" fill="black"/>
<path d="M98.1364 26.4205C98.1364 27.0341 97.9915 27.5625 97.7017 28.0057C97.4119 28.4489 97.0128 28.7898 96.5043 29.0284C95.9957 29.267 95.4148 29.3864 94.7614 29.3864C94.0966 29.3864 93.5099 29.2642 93.0014 29.0199C92.4901 28.7727 92.0909 28.429 91.804 27.9886C91.5142 27.5455 91.3693 27.0284 91.3693 26.4375C91.3693 25.9773 91.4545 25.5625 91.625 25.1932C91.7955 24.8239 92.0341 24.5213 92.3409 24.2855C92.6477 24.0497 93.0057 23.9034 93.4148 23.8466V24.8523C93.1165 24.929 92.8523 25.0994 92.6222 25.3636C92.3892 25.625 92.2727 25.9773 92.2727 26.4205C92.2727 26.8125 92.375 27.1562 92.5795 27.4517C92.7812 27.7443 93.0668 27.973 93.4361 28.1378C93.8026 28.2997 94.233 28.3807 94.7273 28.3807C95.233 28.3807 95.6733 28.3011 96.0483 28.142C96.4233 27.9801 96.7145 27.7528 96.9219 27.4602C97.1293 27.1648 97.233 26.8182 97.233 26.4205C97.233 26.1591 97.1875 25.9219 97.0966 25.7088C97.0057 25.4957 96.875 25.3153 96.7045 25.1676C96.5341 25.0199 96.3295 24.9148 96.0909 24.8523V23.8466C96.4773 23.9034 96.8253 24.044 97.1349 24.2685C97.4418 24.4901 97.6861 24.7841 97.8679 25.1506C98.0469 25.5142 98.1364 25.9375 98.1364 26.4205ZM98.1364 19.7173C98.1364 20.3082 97.9957 20.8267 97.7145 21.2727C97.4332 21.7159 97.0398 22.0625 96.5341 22.3125C96.0284 22.5597 95.4375 22.6832 94.7614 22.6832C94.0795 22.6832 93.4844 22.5597 92.9759 22.3125C92.4673 22.0625 92.0724 21.7159 91.7912 21.2727C91.5099 20.8267 91.3693 20.3082 91.3693 19.7173C91.3693 19.1264 91.5099 18.6094 91.7912 18.1662C92.0724 17.7202 92.4673 17.3736 92.9759 17.1264C93.4844 16.8764 94.0795 16.7514 94.7614 16.7514C95.4375 16.7514 96.0284 16.8764 96.5341 17.1264C97.0398 17.3736 97.4332 17.7202 97.7145 18.1662C97.9957 18.6094 98.1364 19.1264 98.1364 19.7173ZM97.233 19.7173C97.233 19.2685 97.1179 18.8991 96.8878 18.6094C96.6577 18.3196 96.3551 18.1051 95.9801 17.9659C95.6051 17.8267 95.1989 17.7571 94.7614 17.7571C94.3239 17.7571 93.9162 17.8267 93.5384 17.9659C93.1605 18.1051 92.8551 18.3196 92.6222 18.6094C92.3892 18.8991 92.2727 19.2685 92.2727 19.7173C92.2727 20.1662 92.3892 20.5355 92.6222 20.8253C92.8551 21.1151 93.1605 21.3295 93.5384 21.4688C93.9162 21.608 94.3239 21.6776 94.7614 21.6776C95.1989 21.6776 95.6051 21.608 95.9801 21.4688C96.3551 21.3295 96.6577 21.1151 96.8878 20.8253C97.1179 20.5355 97.233 20.1662 97.233 19.7173ZM90.6705 18.831L89.4773 19.7173L90.6705 20.6037V21.5582H90.6023L88.8295 20.1776V19.2571L90.6023 17.8764H90.6705V18.831ZM100.165 19.7173C100.165 19.9134 100.098 20.0824 99.9645 20.2244C99.831 20.3636 99.6705 20.4332 99.483 20.4332C99.2955 20.4332 99.1349 20.3636 99.0014 20.2244C98.8679 20.0824 98.8011 19.9134 98.8011 19.7173C98.8011 19.5213 98.8679 19.3537 99.0014 19.2145C99.1349 19.0724 99.2955 19.0014 99.483 19.0014C99.6705 19.0014 99.831 19.0724 99.9645 19.2145C100.098 19.3537 100.165 19.5213 100.165 19.7173ZM91.4545 12.3697H92.3068V15.7617H91.4545V12.3697ZM89.8864 14.7731V13.7674H96.125C96.4091 13.7674 96.6222 13.7262 96.7642 13.6438C96.9034 13.5586 96.9972 13.4506 97.0455 13.32C97.0909 13.1864 97.1136 13.0458 97.1136 12.8981C97.1136 12.7873 97.108 12.6964 97.0966 12.6254C97.0824 12.5543 97.071 12.4975 97.0625 12.4549L97.9659 12.2504C97.9915 12.3185 98.017 12.4137 98.0426 12.5359C98.071 12.658 98.0852 12.8129 98.0852 13.0004C98.0852 13.2844 98.0241 13.5629 97.902 13.8356C97.7798 14.1055 97.5938 14.3299 97.3438 14.5089C97.0938 14.685 96.7784 14.7731 96.3977 14.7731L89.8864 14.7731ZM89.2727 4.43075H98V5.48757H90.3807V5.53871L91.7955 7.66939H90.7216L89.2727 5.48757V4.43075Z" fill="black"/>
<path d="M103.293 393.707C103.683 394.098 104.317 394.098 104.707 393.707L111.071 387.343C111.462 386.953 111.462 386.319 111.071 385.929C110.681 385.538 110.047 385.538 109.657 385.929L104 391.586L98.3432 385.929C97.9526 385.538 97.3195 385.538 96.9289 385.929C96.5384 386.319 96.5384 386.953 96.9289 387.343L103.293 393.707ZM103 9L103 393L105 393L105 9L103 9Z" fill="black"/>
<path d="M191.136 28.4205C191.136 29.0341 190.991 29.5625 190.702 30.0057C190.412 30.4489 190.013 30.7898 189.504 31.0284C188.996 31.267 188.415 31.3864 187.761 31.3864C187.097 31.3864 186.51 31.2642 186.001 31.0199C185.49 30.7727 185.091 30.429 184.804 29.9886C184.514 29.5455 184.369 29.0284 184.369 28.4375C184.369 27.9773 184.455 27.5625 184.625 27.1932C184.795 26.8239 185.034 26.5213 185.341 26.2855C185.648 26.0497 186.006 25.9034 186.415 25.8466V26.8523C186.116 26.929 185.852 27.0994 185.622 27.3636C185.389 27.625 185.273 27.9773 185.273 28.4205C185.273 28.8125 185.375 29.1562 185.58 29.4517C185.781 29.7443 186.067 29.973 186.436 30.1378C186.803 30.2997 187.233 30.3807 187.727 30.3807C188.233 30.3807 188.673 30.3011 189.048 30.142C189.423 29.9801 189.714 29.7528 189.922 29.4602C190.129 29.1648 190.233 28.8182 190.233 28.4205C190.233 28.1591 190.188 27.9219 190.097 27.7088C190.006 27.4957 189.875 27.3153 189.705 27.1676C189.534 27.0199 189.33 26.9148 189.091 26.8523V25.8466C189.477 25.9034 189.825 26.044 190.135 26.2685C190.442 26.4901 190.686 26.7841 190.868 27.1506C191.047 27.5142 191.136 27.9375 191.136 28.4205ZM191.136 21.7173C191.136 22.3082 190.996 22.8267 190.714 23.2727C190.433 23.7159 190.04 24.0625 189.534 24.3125C189.028 24.5597 188.437 24.6832 187.761 24.6832C187.08 24.6832 186.484 24.5597 185.976 24.3125C185.467 24.0625 185.072 23.7159 184.791 23.2727C184.51 22.8267 184.369 22.3082 184.369 21.7173C184.369 21.1264 184.51 20.6094 184.791 20.1662C185.072 19.7202 185.467 19.3736 185.976 19.1264C186.484 18.8764 187.08 18.7514 187.761 18.7514C188.437 18.7514 189.028 18.8764 189.534 19.1264C190.04 19.3736 190.433 19.7202 190.714 20.1662C190.996 20.6094 191.136 21.1264 191.136 21.7173ZM190.233 21.7173C190.233 21.2685 190.118 20.8991 189.888 20.6094C189.658 20.3196 189.355 20.1051 188.98 19.9659C188.605 19.8267 188.199 19.7571 187.761 19.7571C187.324 19.7571 186.916 19.8267 186.538 19.9659C186.161 20.1051 185.855 20.3196 185.622 20.6094C185.389 20.8991 185.273 21.2685 185.273 21.7173C185.273 22.1662 185.389 22.5355 185.622 22.8253C185.855 23.1151 186.161 23.3295 186.538 23.4688C186.916 23.608 187.324 23.6776 187.761 23.6776C188.199 23.6776 188.605 23.608 188.98 23.4688C189.355 23.3295 189.658 23.1151 189.888 22.8253C190.118 22.5355 190.233 22.1662 190.233 21.7173ZM183.67 20.831L182.477 21.7173L183.67 22.6037V23.5582H183.602L181.83 22.1776V21.2571L183.602 19.8764H183.67V20.831ZM193.165 21.7173C193.165 21.9134 193.098 22.0824 192.964 22.2244C192.831 22.3636 192.67 22.4332 192.483 22.4332C192.295 22.4332 192.135 22.3636 192.001 22.2244C191.868 22.0824 191.801 21.9134 191.801 21.7173C191.801 21.5213 191.868 21.3537 192.001 21.2145C192.135 21.0724 192.295 21.0014 192.483 21.0014C192.67 21.0014 192.831 21.0724 192.964 21.2145C193.098 21.3537 193.165 21.5213 193.165 21.7173ZM184.455 14.3697H185.307V17.7617H184.455V14.3697ZM182.886 16.7731V15.7674H189.125C189.409 15.7674 189.622 15.7262 189.764 15.6438C189.903 15.5586 189.997 15.4506 190.045 15.32C190.091 15.1864 190.114 15.0458 190.114 14.8981C190.114 14.7873 190.108 14.6964 190.097 14.6254C190.082 14.5543 190.071 14.4975 190.062 14.4549L190.966 14.2504C190.991 14.3185 191.017 14.4137 191.043 14.5359C191.071 14.658 191.085 14.8129 191.085 15.0004C191.085 15.2844 191.024 15.5629 190.902 15.8356C190.78 16.1055 190.594 16.3299 190.344 16.5089C190.094 16.685 189.778 16.7731 189.398 16.7731H182.886ZM191 9.49893H190.233L187.08 6.61825C186.71 6.28018 186.389 6.00178 186.116 5.78303C185.841 5.56428 185.582 5.40234 185.341 5.29723C185.097 5.18928 184.841 5.1353 184.574 5.1353C184.267 5.1353 184.001 5.20916 183.777 5.35689C183.553 5.50178 183.379 5.70064 183.257 5.95348C183.135 6.20632 183.074 6.49041 183.074 6.80575C183.074 7.14098 183.143 7.43359 183.283 7.68359C183.419 7.93075 183.611 8.12251 183.858 8.25888C184.105 8.3924 184.395 8.45916 184.727 8.45916V9.46484C184.216 9.46484 183.767 9.34695 183.381 9.11115C182.994 8.87536 182.693 8.55433 182.477 8.14808C182.261 7.73899 182.153 7.28018 182.153 6.77166C182.153 6.2603 182.261 5.80717 182.477 5.41229C182.693 5.0174 182.984 4.70774 183.351 4.48331C183.717 4.25888 184.125 4.14666 184.574 4.14666C184.895 4.14666 185.209 4.2049 185.516 4.32138C185.82 4.43501 186.159 4.63388 186.534 4.91797C186.906 5.19922 187.361 5.58984 187.898 6.08984L189.994 8.05007H190.062V3.99325H191V9.49893Z" fill="black"/>
<path d="M196.293 395.707C196.683 396.098 197.317 396.098 197.707 395.707L204.071 389.343C204.462 388.953 204.462 388.319 204.071 387.929C203.681 387.538 203.047 387.538 202.657 387.929L197 393.586L191.343 387.929C190.953 387.538 190.319 387.538 189.929 387.929C189.538 388.319 189.538 388.953 189.929 389.343L196.293 395.707ZM196 11L196 395L198 395L198 11L196 11Z" fill="black"/>
<path d="M284.136 28.4205C284.136 29.0341 283.991 29.5625 283.702 30.0057C283.412 30.4489 283.013 30.7898 282.504 31.0284C281.996 31.267 281.415 31.3864 280.761 31.3864C280.097 31.3864 279.51 31.2642 279.001 31.0199C278.49 30.7727 278.091 30.429 277.804 29.9886C277.514 29.5455 277.369 29.0284 277.369 28.4375C277.369 27.9773 277.455 27.5625 277.625 27.1932C277.795 26.8239 278.034 26.5213 278.341 26.2855C278.648 26.0497 279.006 25.9034 279.415 25.8466V26.8523C279.116 26.929 278.852 27.0994 278.622 27.3636C278.389 27.625 278.273 27.9773 278.273 28.4205C278.273 28.8125 278.375 29.1562 278.58 29.4517C278.781 29.7443 279.067 29.973 279.436 30.1378C279.803 30.2997 280.233 30.3807 280.727 30.3807C281.233 30.3807 281.673 30.3011 282.048 30.142C282.423 29.9801 282.714 29.7528 282.922 29.4602C283.129 29.1648 283.233 28.8182 283.233 28.4205C283.233 28.1591 283.188 27.9219 283.097 27.7088C283.006 27.4957 282.875 27.3153 282.705 27.1676C282.534 27.0199 282.33 26.9148 282.091 26.8523V25.8466C282.477 25.9034 282.825 26.044 283.135 26.2685C283.442 26.4901 283.686 26.7841 283.868 27.1506C284.047 27.5142 284.136 27.9375 284.136 28.4205ZM284.136 21.7173C284.136 22.3082 283.996 22.8267 283.714 23.2727C283.433 23.7159 283.04 24.0625 282.534 24.3125C282.028 24.5597 281.437 24.6832 280.761 24.6832C280.08 24.6832 279.484 24.5597 278.976 24.3125C278.467 24.0625 278.072 23.7159 277.791 23.2727C277.51 22.8267 277.369 22.3082 277.369 21.7173C277.369 21.1264 277.51 20.6094 277.791 20.1662C278.072 19.7202 278.467 19.3736 278.976 19.1264C279.484 18.8764 280.08 18.7514 280.761 18.7514C281.437 18.7514 282.028 18.8764 282.534 19.1264C283.04 19.3736 283.433 19.7202 283.714 20.1662C283.996 20.6094 284.136 21.1264 284.136 21.7173ZM283.233 21.7173C283.233 21.2685 283.118 20.8991 282.888 20.6094C282.658 20.3196 282.355 20.1051 281.98 19.9659C281.605 19.8267 281.199 19.7571 280.761 19.7571C280.324 19.7571 279.916 19.8267 279.538 19.9659C279.161 20.1051 278.855 20.3196 278.622 20.6094C278.389 20.8991 278.273 21.2685 278.273 21.7173C278.273 22.1662 278.389 22.5355 278.622 22.8253C278.855 23.1151 279.161 23.3295 279.538 23.4688C279.916 23.608 280.324 23.6776 280.761 23.6776C281.199 23.6776 281.605 23.608 281.98 23.4688C282.355 23.3295 282.658 23.1151 282.888 22.8253C283.118 22.5355 283.233 22.1662 283.233 21.7173ZM276.67 20.831L275.477 21.7173L276.67 22.6037V23.5582H276.602L274.83 22.1776V21.2571L276.602 19.8764H276.67V20.831ZM286.165 21.7173C286.165 21.9134 286.098 22.0824 285.964 22.2244C285.831 22.3636 285.67 22.4332 285.483 22.4332C285.295 22.4332 285.135 22.3636 285.001 22.2244C284.868 22.0824 284.801 21.9134 284.801 21.7173C284.801 21.5213 284.868 21.3537 285.001 21.2145C285.135 21.0724 285.295 21.0014 285.483 21.0014C285.67 21.0014 285.831 21.0724 285.964 21.2145C286.098 21.3537 286.165 21.5213 286.165 21.7173ZM277.455 14.3697H278.307V17.7617H277.455V14.3697ZM275.886 16.7731V15.7674H282.125C282.409 15.7674 282.622 15.7262 282.764 15.6438C282.903 15.5586 282.997 15.4506 283.045 15.32C283.091 15.1864 283.114 15.0458 283.114 14.8981C283.114 14.7873 283.108 14.6964 283.097 14.6254C283.082 14.5543 283.071 14.4975 283.062 14.4549L283.966 14.2504C283.991 14.3185 284.017 14.4137 284.043 14.5359C284.071 14.658 284.085 14.8129 284.085 15.0004C284.085 15.2844 284.024 15.5629 283.902 15.8356C283.78 16.1055 283.594 16.3299 283.344 16.5089C283.094 16.685 282.778 16.7731 282.398 16.7731H275.886ZM284.119 6.55007C284.119 7.11257 284.023 7.61399 283.83 8.05433C283.636 8.49183 283.368 8.83984 283.024 9.09837C282.678 9.35405 282.276 9.49325 281.818 9.51598V8.44212C282.099 8.41939 282.342 8.3228 282.547 8.15234C282.749 7.98189 282.905 7.75888 283.016 7.48331C283.126 7.20774 283.182 6.90234 283.182 6.56712C283.182 6.19212 283.116 5.85973 282.986 5.56996C282.855 5.28018 282.673 5.05291 282.44 4.88814C282.207 4.72337 281.938 4.64098 281.631 4.64098C281.31 4.64098 281.027 4.72053 280.783 4.87962C280.536 5.03871 280.342 5.27166 280.203 5.57848C280.064 5.8853 279.994 6.2603 279.994 6.70348V7.40234H279.057V6.70348C279.057 6.35689 278.994 6.05291 278.869 5.79155C278.744 5.52734 278.568 5.32138 278.341 5.17365C278.114 5.02308 277.847 4.9478 277.54 4.9478C277.244 4.9478 276.987 5.01314 276.768 5.14382C276.55 5.2745 276.379 5.45916 276.257 5.6978C276.135 5.93359 276.074 6.212 276.074 6.53303C276.074 6.83416 276.129 7.11825 276.24 7.3853C276.348 7.6495 276.506 7.86541 276.713 8.03303C276.918 8.20064 277.165 8.29155 277.455 8.30575V9.32848C276.997 9.31143 276.597 9.17365 276.253 8.91513C275.906 8.65661 275.636 8.31854 275.443 7.90092C275.25 7.48047 275.153 7.01882 275.153 6.51598C275.153 5.97621 275.263 5.51314 275.482 5.12678C275.697 4.74041 275.983 4.44354 276.338 4.23615C276.693 4.02876 277.077 3.92507 277.489 3.92507C277.98 3.92507 278.399 4.05433 278.746 4.31286C279.092 4.56854 279.332 4.91655 279.466 5.35689H279.534C279.625 4.80575 279.859 4.37536 280.237 4.0657C280.612 3.75604 281.077 3.60121 281.631 3.60121C282.105 3.60121 282.531 3.73047 282.909 3.98899C283.284 4.24467 283.58 4.5941 283.795 5.03729C284.011 5.48047 284.119 5.98473 284.119 6.55007Z" fill="black"/>
<path d="M289.293 397.707C289.683 398.098 290.317 398.098 290.707 397.707L297.071 391.343C297.462 390.953 297.462 390.319 297.071 389.929C296.681 389.538 296.047 389.538 295.657 389.929L290 395.586L284.343 389.929C283.953 389.538 283.319 389.538 282.929 389.929C282.538 390.319 282.538 390.953 282.929 391.343L289.293 397.707ZM289 13L289 397L291 397L291 13L289 13Z" fill="black"/>
<path d="M377.136 30.4205C377.136 31.0341 376.991 31.5625 376.702 32.0057C376.412 32.4489 376.013 32.7898 375.504 33.0284C374.996 33.267 374.415 33.3864 373.761 33.3864C373.097 33.3864 372.51 33.2642 372.001 33.0199C371.49 32.7727 371.091 32.429 370.804 31.9886C370.514 31.5455 370.369 31.0284 370.369 30.4375C370.369 29.9773 370.455 29.5625 370.625 29.1932C370.795 28.8239 371.034 28.5213 371.341 28.2855C371.648 28.0497 372.006 27.9034 372.415 27.8466V28.8523C372.116 28.929 371.852 29.0994 371.622 29.3636C371.389 29.625 371.273 29.9773 371.273 30.4205C371.273 30.8125 371.375 31.1562 371.58 31.4517C371.781 31.7443 372.067 31.973 372.436 32.1378C372.803 32.2997 373.233 32.3807 373.727 32.3807C374.233 32.3807 374.673 32.3011 375.048 32.142C375.423 31.9801 375.714 31.7528 375.922 31.4602C376.129 31.1648 376.233 30.8182 376.233 30.4205C376.233 30.1591 376.188 29.9219 376.097 29.7088C376.006 29.4957 375.875 29.3153 375.705 29.1676C375.534 29.0199 375.33 28.9148 375.091 28.8523V27.8466C375.477 27.9034 375.825 28.044 376.135 28.2685C376.442 28.4901 376.686 28.7841 376.868 29.1506C377.047 29.5142 377.136 29.9375 377.136 30.4205ZM377.136 23.7173C377.136 24.3082 376.996 24.8267 376.714 25.2727C376.433 25.7159 376.04 26.0625 375.534 26.3125C375.028 26.5597 374.437 26.6832 373.761 26.6832C373.08 26.6832 372.484 26.5597 371.976 26.3125C371.467 26.0625 371.072 25.7159 370.791 25.2727C370.51 24.8267 370.369 24.3082 370.369 23.7173C370.369 23.1264 370.51 22.6094 370.791 22.1662C371.072 21.7202 371.467 21.3736 371.976 21.1264C372.484 20.8764 373.08 20.7514 373.761 20.7514C374.437 20.7514 375.028 20.8764 375.534 21.1264C376.04 21.3736 376.433 21.7202 376.714 22.1662C376.996 22.6094 377.136 23.1264 377.136 23.7173ZM376.233 23.7173C376.233 23.2685 376.118 22.8991 375.888 22.6094C375.658 22.3196 375.355 22.1051 374.98 21.9659C374.605 21.8267 374.199 21.7571 373.761 21.7571C373.324 21.7571 372.916 21.8267 372.538 21.9659C372.161 22.1051 371.855 22.3196 371.622 22.6094C371.389 22.8991 371.273 23.2685 371.273 23.7173C371.273 24.1662 371.389 24.5355 371.622 24.8253C371.855 25.1151 372.161 25.3295 372.538 25.4688C372.916 25.608 373.324 25.6776 373.761 25.6776C374.199 25.6776 374.605 25.608 374.98 25.4688C375.355 25.3295 375.658 25.1151 375.888 24.8253C376.118 24.5355 376.233 24.1662 376.233 23.7173ZM369.67 22.831L368.477 23.7173L369.67 24.6037V25.5582H369.602L367.83 24.1776V23.2571L369.602 21.8764H369.67V22.831ZM379.165 23.7173C379.165 23.9134 379.098 24.0824 378.964 24.2244C378.831 24.3636 378.67 24.4332 378.483 24.4332C378.295 24.4332 378.135 24.3636 378.001 24.2244C377.868 24.0824 377.801 23.9134 377.801 23.7173C377.801 23.5213 377.868 23.3537 378.001 23.2145C378.135 23.0724 378.295 23.0014 378.483 23.0014C378.67 23.0014 378.831 23.0724 378.964 23.2145C379.098 23.3537 379.165 23.5213 379.165 23.7173ZM370.455 16.3697H371.307V19.7617H370.455V16.3697ZM368.886 18.7731V17.7674H375.125C375.409 17.7674 375.622 17.7262 375.764 17.6438C375.903 17.5586 375.997 17.4506 376.045 17.32C376.091 17.1864 376.114 17.0458 376.114 16.8981C376.114 16.7873 376.108 16.6964 376.097 16.6254C376.082 16.5543 376.071 16.4975 376.062 16.4549L376.966 16.2504C376.991 16.3185 377.017 16.4137 377.043 16.5359C377.071 16.658 377.085 16.8129 377.085 17.0004C377.085 17.2844 377.024 17.5629 376.902 17.8356C376.78 18.1055 376.594 18.3299 376.344 18.5089C376.094 18.685 375.778 18.7731 375.398 18.7731H368.886ZM375.21 11.7035H374.341L368.273 7.86825V7.23757H369.619V7.66371L374.205 10.5614H374.273V5.39666H375.21V11.7035ZM377 7.59553H374.946H374.541H368.273V6.58984H377V7.59553Z" fill="black"/>
<path d="M382.293 399.707C382.683 400.098 383.317 400.098 383.707 399.707L390.071 393.343C390.462 392.953 390.462 392.319 390.071 391.929C389.681 391.538 389.047 391.538 388.657 391.929L383 397.586L377.343 391.929C376.953 391.538 376.319 391.538 375.929 391.929C375.538 392.319 375.538 392.953 375.929 393.343L382.293 399.707ZM382 15L382 399L384 399L384 15L382 15Z" fill="black"/>
<path d="M470.136 30.4205C470.136 31.0341 469.991 31.5625 469.702 32.0057C469.412 32.4489 469.013 32.7898 468.504 33.0284C467.996 33.267 467.415 33.3864 466.761 33.3864C466.097 33.3864 465.51 33.2642 465.001 33.0199C464.49 32.7727 464.091 32.429 463.804 31.9886C463.514 31.5455 463.369 31.0284 463.369 30.4375C463.369 29.9773 463.455 29.5625 463.625 29.1932C463.795 28.8239 464.034 28.5213 464.341 28.2855C464.648 28.0497 465.006 27.9034 465.415 27.8466V28.8523C465.116 28.929 464.852 29.0994 464.622 29.3636C464.389 29.625 464.273 29.9773 464.273 30.4205C464.273 30.8125 464.375 31.1562 464.58 31.4517C464.781 31.7443 465.067 31.973 465.436 32.1378C465.803 32.2997 466.233 32.3807 466.727 32.3807C467.233 32.3807 467.673 32.3011 468.048 32.142C468.423 31.9801 468.714 31.7528 468.922 31.4602C469.129 31.1648 469.233 30.8182 469.233 30.4205C469.233 30.1591 469.188 29.9219 469.097 29.7088C469.006 29.4957 468.875 29.3153 468.705 29.1676C468.534 29.0199 468.33 28.9148 468.091 28.8523V27.8466C468.477 27.9034 468.825 28.044 469.135 28.2685C469.442 28.4901 469.686 28.7841 469.868 29.1506C470.047 29.5142 470.136 29.9375 470.136 30.4205ZM470.136 23.7173C470.136 24.3082 469.996 24.8267 469.714 25.2727C469.433 25.7159 469.04 26.0625 468.534 26.3125C468.028 26.5597 467.437 26.6832 466.761 26.6832C466.08 26.6832 465.484 26.5597 464.976 26.3125C464.467 26.0625 464.072 25.7159 463.791 25.2727C463.51 24.8267 463.369 24.3082 463.369 23.7173C463.369 23.1264 463.51 22.6094 463.791 22.1662C464.072 21.7202 464.467 21.3736 464.976 21.1264C465.484 20.8764 466.08 20.7514 466.761 20.7514C467.437 20.7514 468.028 20.8764 468.534 21.1264C469.04 21.3736 469.433 21.7202 469.714 22.1662C469.996 22.6094 470.136 23.1264 470.136 23.7173ZM469.233 23.7173C469.233 23.2685 469.118 22.8991 468.888 22.6094C468.658 22.3196 468.355 22.1051 467.98 21.9659C467.605 21.8267 467.199 21.7571 466.761 21.7571C466.324 21.7571 465.916 21.8267 465.538 21.9659C465.161 22.1051 464.855 22.3196 464.622 22.6094C464.389 22.8991 464.273 23.2685 464.273 23.7173C464.273 24.1662 464.389 24.5355 464.622 24.8253C464.855 25.1151 465.161 25.3295 465.538 25.4688C465.916 25.608 466.324 25.6776 466.761 25.6776C467.199 25.6776 467.605 25.608 467.98 25.4688C468.355 25.3295 468.658 25.1151 468.888 24.8253C469.118 24.5355 469.233 24.1662 469.233 23.7173ZM462.67 22.831L461.477 23.7173L462.67 24.6037V25.5582H462.602L460.83 24.1776V23.2571L462.602 21.8764H462.67V22.831ZM472.165 23.7173C472.165 23.9134 472.098 24.0824 471.964 24.2244C471.831 24.3636 471.67 24.4332 471.483 24.4332C471.295 24.4332 471.135 24.3636 471.001 24.2244C470.868 24.0824 470.801 23.9134 470.801 23.7173C470.801 23.5213 470.868 23.3537 471.001 23.2145C471.135 23.0724 471.295 23.0014 471.483 23.0014C471.67 23.0014 471.831 23.0724 471.964 23.2145C472.098 23.3537 472.165 23.5213 472.165 23.7173ZM463.455 16.3697H464.307V19.7617H463.455V16.3697ZM461.886 18.7731V17.7674H468.125C468.409 17.7674 468.622 17.7262 468.764 17.6438C468.903 17.5586 468.997 17.4506 469.045 17.32C469.091 17.1864 469.114 17.0458 469.114 16.8981C469.114 16.7873 469.108 16.6964 469.097 16.6254C469.082 16.5543 469.071 16.4975 469.062 16.4549L469.966 16.2504C469.991 16.3185 470.017 16.4137 470.043 16.5359C470.071 16.658 470.085 16.8129 470.085 17.0004C470.085 17.2844 470.024 17.5629 469.902 17.8356C469.78 18.1055 469.594 18.3299 469.344 18.5089C469.094 18.685 468.778 18.7731 468.398 18.7731H461.886ZM470.119 8.77166C470.119 9.27166 470.02 9.72195 469.821 10.1225C469.622 10.5231 469.349 10.8441 469.003 11.0856C468.656 11.3271 468.261 11.4592 467.818 11.4819V10.4592C468.213 10.4194 468.54 10.2404 468.798 9.92223C469.054 9.60121 469.182 9.21768 469.182 8.77166C469.182 8.41371 469.098 8.09553 468.93 7.81712C468.763 7.53587 468.533 7.3157 468.24 7.1566C467.945 6.99467 467.611 6.91371 467.239 6.91371C466.858 6.91371 466.518 6.99751 466.22 7.16513C465.919 7.3299 465.682 7.55717 465.509 7.84695C465.335 8.13672 465.247 8.46768 465.244 8.83984C465.241 9.10689 465.283 9.38104 465.368 9.66229C465.45 9.94354 465.557 10.1751 465.688 10.3569L465.568 11.3455L461.273 10.8171V6.28303H462.21V9.93075L464.784 10.2376V10.1864C464.642 10.0075 464.524 9.78303 464.43 9.51314C464.337 9.24325 464.29 8.962 464.29 8.66939C464.29 8.1353 464.418 7.65945 464.673 7.24183C464.926 6.82138 465.273 6.49183 465.713 6.2532C466.153 6.01172 466.656 5.89098 467.222 5.89098C467.778 5.89098 468.276 6.01598 468.713 6.26598C469.148 6.51314 469.491 6.85405 469.744 7.28871C469.994 7.72337 470.119 8.21768 470.119 8.77166Z" fill="black"/>
<path d="M475.293 401.707C475.683 402.098 476.317 402.098 476.707 401.707L483.071 395.343C483.462 394.953 483.462 394.319 483.071 393.929C482.681 393.538 482.047 393.538 481.657 393.929L476 399.586L470.343 393.929C469.953 393.538 469.319 393.538 468.929 393.929C468.538 394.319 468.538 394.953 468.929 395.343L475.293 401.707ZM475 17L475 401L477 401L477 17L475 17Z" fill="black"/>
<path d="M563.136 32.4205C563.136 33.0341 562.991 33.5625 562.702 34.0057C562.412 34.4489 562.013 34.7898 561.504 35.0284C560.996 35.267 560.415 35.3864 559.761 35.3864C559.097 35.3864 558.51 35.2642 558.001 35.0199C557.49 34.7727 557.091 34.429 556.804 33.9886C556.514 33.5455 556.369 33.0284 556.369 32.4375C556.369 31.9773 556.455 31.5625 556.625 31.1932C556.795 30.8239 557.034 30.5213 557.341 30.2855C557.648 30.0497 558.006 29.9034 558.415 29.8466V30.8523C558.116 30.929 557.852 31.0994 557.622 31.3636C557.389 31.625 557.273 31.9773 557.273 32.4205C557.273 32.8125 557.375 33.1562 557.58 33.4517C557.781 33.7443 558.067 33.973 558.436 34.1378C558.803 34.2997 559.233 34.3807 559.727 34.3807C560.233 34.3807 560.673 34.3011 561.048 34.142C561.423 33.9801 561.714 33.7528 561.922 33.4602C562.129 33.1648 562.233 32.8182 562.233 32.4205C562.233 32.1591 562.188 31.9219 562.097 31.7088C562.006 31.4957 561.875 31.3153 561.705 31.1676C561.534 31.0199 561.33 30.9148 561.091 30.8523V29.8466C561.477 29.9034 561.825 30.044 562.135 30.2685C562.442 30.4901 562.686 30.7841 562.868 31.1506C563.047 31.5142 563.136 31.9375 563.136 32.4205ZM563.136 25.7173C563.136 26.3082 562.996 26.8267 562.714 27.2727C562.433 27.7159 562.04 28.0625 561.534 28.3125C561.028 28.5597 560.437 28.6832 559.761 28.6832C559.08 28.6832 558.484 28.5597 557.976 28.3125C557.467 28.0625 557.072 27.7159 556.791 27.2727C556.51 26.8267 556.369 26.3082 556.369 25.7173C556.369 25.1264 556.51 24.6094 556.791 24.1662C557.072 23.7202 557.467 23.3736 557.976 23.1264C558.484 22.8764 559.08 22.7514 559.761 22.7514C560.437 22.7514 561.028 22.8764 561.534 23.1264C562.04 23.3736 562.433 23.7202 562.714 24.1662C562.996 24.6094 563.136 25.1264 563.136 25.7173ZM562.233 25.7173C562.233 25.2685 562.118 24.8991 561.888 24.6094C561.658 24.3196 561.355 24.1051 560.98 23.9659C560.605 23.8267 560.199 23.7571 559.761 23.7571C559.324 23.7571 558.916 23.8267 558.538 23.9659C558.161 24.1051 557.855 24.3196 557.622 24.6094C557.389 24.8991 557.273 25.2685 557.273 25.7173C557.273 26.1662 557.389 26.5355 557.622 26.8253C557.855 27.1151 558.161 27.3295 558.538 27.4688C558.916 27.608 559.324 27.6776 559.761 27.6776C560.199 27.6776 560.605 27.608 560.98 27.4688C561.355 27.3295 561.658 27.1151 561.888 26.8253C562.118 26.5355 562.233 26.1662 562.233 25.7173ZM555.67 24.831L554.477 25.7173L555.67 26.6037V27.5582H555.602L553.83 26.1776V25.2571L555.602 23.8764H555.67V24.831ZM565.165 25.7173C565.165 25.9134 565.098 26.0824 564.964 26.2244C564.831 26.3636 564.67 26.4332 564.483 26.4332C564.295 26.4332 564.135 26.3636 564.001 26.2244C563.868 26.0824 563.801 25.9134 563.801 25.7173C563.801 25.5213 563.868 25.3537 564.001 25.2145C564.135 25.0724 564.295 25.0014 564.483 25.0014C564.67 25.0014 564.831 25.0724 564.964 25.2145C565.098 25.3537 565.165 25.5213 565.165 25.7173ZM556.455 18.3697H557.307V21.7617H556.455V18.3697ZM554.886 20.7731V19.7674H561.125C561.409 19.7674 561.622 19.7262 561.764 19.6438C561.903 19.5586 561.997 19.4506 562.045 19.32C562.091 19.1864 562.114 19.0458 562.114 18.8981C562.114 18.7873 562.108 18.6964 562.097 18.6254C562.082 18.5543 562.071 18.4975 562.062 18.4549L562.966 18.2504C562.991 18.3185 563.017 18.4137 563.043 18.5359C563.071 18.658 563.085 18.8129 563.085 19.0004C563.085 19.2844 563.024 19.5629 562.902 19.8356C562.78 20.1055 562.594 20.3299 562.344 20.5089C562.094 20.685 561.778 20.7731 561.398 20.7731H554.886ZM563.119 10.6012C563.114 10.9592 563.045 11.3171 562.915 11.6751C562.784 12.033 562.564 12.3597 562.254 12.6552C561.942 12.9506 561.52 13.1879 560.989 13.3668C560.455 13.5458 559.784 13.6353 558.977 13.6353C558.205 13.6353 557.52 13.5629 556.923 13.418C556.324 13.2731 555.82 13.0629 555.411 12.7873C554.999 12.5117 554.686 12.1793 554.473 11.7901C554.26 11.3981 554.153 10.9563 554.153 10.4648C554.153 9.97621 554.251 9.54155 554.447 9.16087C554.641 8.77734 554.911 8.46484 555.257 8.22337C555.604 7.98189 556.003 7.82564 556.455 7.75462V8.79439C556.062 8.89098 555.737 9.07848 555.479 9.35689C555.22 9.6353 555.091 10.0046 555.091 10.4648C555.091 11.141 555.385 11.6737 555.973 12.0629C556.561 12.4492 557.386 12.6438 558.449 12.6467V12.5785C558.207 12.4194 558.001 12.2305 557.831 12.0117C557.658 11.7901 557.524 11.5458 557.43 11.2788C557.337 11.0117 557.29 10.729 557.29 10.4308C557.29 9.93075 557.415 9.47337 557.665 9.05859C557.912 8.64382 558.254 8.31143 558.692 8.06143C559.126 7.81143 559.625 7.68643 560.188 7.68643C560.727 7.68643 561.222 7.80717 561.67 8.04865C562.116 8.29013 562.472 8.62962 562.736 9.06712C562.997 9.50178 563.125 10.0131 563.119 10.6012ZM562.182 10.6012C562.182 10.2433 562.092 9.92223 561.913 9.63814C561.734 9.35121 561.494 9.12536 561.193 8.96058C560.892 8.79297 560.557 8.70916 560.188 8.70916C559.827 8.70916 559.499 8.79013 559.203 8.95206C558.905 9.11115 558.668 9.33132 558.491 9.61257C558.315 9.89098 558.227 10.2092 558.227 10.5671C558.227 10.837 558.281 11.0884 558.389 11.3214C558.494 11.5543 558.639 11.7589 558.824 11.935C559.009 12.1083 559.22 12.2447 559.459 12.3441C559.695 12.4435 559.943 12.4933 560.205 12.4933C560.551 12.4933 560.875 12.4123 561.176 12.2504C561.477 12.0856 561.72 11.8612 561.905 11.5771C562.089 11.2901 562.182 10.9648 562.182 10.6012Z" fill="black"/>
<path d="M568.293 403.707C568.683 404.098 569.317 404.098 569.707 403.707L576.071 397.343C576.462 396.953 576.462 396.319 576.071 395.929C575.681 395.538 575.047 395.538 574.657 395.929L569 401.586L563.343 395.929C562.953 395.538 562.319 395.538 561.929 395.929C561.538 396.319 561.538 396.953 561.929 397.343L568.293 403.707ZM568 19L568 403L570 403L570 19L568 19Z" fill="black"/>
<circle cx="104" cy="64" r="5" fill="#00FF00"/>
<path d="M116.926 38.0625V42H115.92V33.2727H116.926V36.4773H117.011C117.165 36.1392 117.395 35.8707 117.702 35.6719C118.011 35.4702 118.423 35.3693 118.938 35.3693C119.384 35.3693 119.774 35.4588 120.109 35.6378C120.445 35.8139 120.705 36.0852 120.889 36.4517C121.077 36.8153 121.17 37.2784 121.17 37.8409V42H120.165V37.9091C120.165 37.3892 120.03 36.9872 119.76 36.7031C119.493 36.4162 119.122 36.2727 118.648 36.2727C118.318 36.2727 118.023 36.3423 117.761 36.4815C117.503 36.6207 117.298 36.8239 117.148 37.0909C117 37.358 116.926 37.6818 116.926 38.0625ZM124.936 42.1534C124.522 42.1534 124.145 42.0753 123.807 41.919C123.469 41.7599 123.201 41.5312 123.002 41.233C122.803 40.9318 122.703 40.5682 122.703 40.142C122.703 39.767 122.777 39.4631 122.925 39.2301C123.073 38.9943 123.27 38.8097 123.517 38.6761C123.765 38.5426 124.037 38.4432 124.336 38.3778C124.637 38.3097 124.939 38.2557 125.243 38.2159C125.641 38.1648 125.963 38.1264 126.211 38.1009C126.461 38.0724 126.642 38.0256 126.756 37.9602C126.873 37.8949 126.931 37.7812 126.931 37.6193V37.5852C126.931 37.1648 126.816 36.8381 126.586 36.6051C126.358 36.3722 126.013 36.2557 125.55 36.2557C125.07 36.2557 124.694 36.3608 124.421 36.571C124.148 36.7812 123.956 37.0057 123.846 37.2443L122.891 36.9034C123.061 36.5057 123.289 36.196 123.573 35.9744C123.86 35.75 124.172 35.5937 124.51 35.5057C124.851 35.4148 125.186 35.3693 125.516 35.3693C125.726 35.3693 125.968 35.3949 126.24 35.446C126.516 35.4943 126.782 35.5952 127.037 35.7486C127.296 35.902 127.51 36.1335 127.681 36.4432C127.851 36.7528 127.936 37.1676 127.936 37.6875V42H126.931V41.1136H126.88C126.811 41.2557 126.698 41.4077 126.539 41.5696C126.38 41.7315 126.168 41.8693 125.904 41.983C125.64 42.0966 125.317 42.1534 124.936 42.1534ZM125.09 41.25C125.488 41.25 125.823 41.1719 126.096 41.0156C126.371 40.8594 126.578 40.6577 126.718 40.4105C126.86 40.1634 126.931 39.9034 126.931 39.6307V38.7102C126.888 38.7614 126.794 38.8082 126.65 38.8509C126.507 38.8906 126.343 38.9261 126.155 38.9574C125.971 38.9858 125.79 39.0114 125.614 39.0341C125.441 39.054 125.3 39.071 125.192 39.0852C124.931 39.1193 124.686 39.1747 124.459 39.2514C124.235 39.3253 124.053 39.4375 123.914 39.5881C123.777 39.7358 123.709 39.9375 123.709 40.1932C123.709 40.5426 123.838 40.8068 124.097 40.9858C124.358 41.1619 124.689 41.25 125.09 41.25ZM125.158 34.5682L123.828 32.5909H125.005L126.044 34.5682H125.158ZM130.778 38.0625V42H129.772V35.4545H130.744V36.4773H130.829C130.982 36.1449 131.215 35.8778 131.528 35.6761C131.84 35.4716 132.244 35.3693 132.738 35.3693C133.181 35.3693 133.569 35.4602 133.901 35.642C134.234 35.821 134.492 36.0938 134.677 36.4602C134.862 36.8239 134.954 37.2841 134.954 37.8409V42H133.948V37.9091C133.948 37.3949 133.815 36.9943 133.548 36.7074C133.281 36.4176 132.914 36.2727 132.448 36.2727C132.127 36.2727 131.84 36.3423 131.587 36.4815C131.337 36.6207 131.14 36.8239 130.995 37.0909C130.85 37.358 130.778 37.6818 130.778 38.0625ZM139.434 44.5909C138.948 44.5909 138.53 44.5284 138.181 44.4034C137.831 44.2812 137.54 44.1193 137.307 43.9176C137.077 43.7188 136.894 43.5057 136.757 43.2784L137.559 42.7159C137.65 42.8352 137.765 42.9716 137.904 43.125C138.043 43.2812 138.233 43.4162 138.475 43.5298C138.719 43.6463 139.039 43.7045 139.434 43.7045C139.962 43.7045 140.398 43.5767 140.742 43.321C141.086 43.0653 141.257 42.6648 141.257 42.1193V40.7898H141.172C141.098 40.9091 140.993 41.0568 140.857 41.233C140.723 41.4062 140.53 41.5611 140.277 41.6974C140.027 41.831 139.689 41.8977 139.263 41.8977C138.735 41.8977 138.26 41.7727 137.84 41.5227C137.422 41.2727 137.091 40.9091 136.847 40.4318C136.605 39.9545 136.485 39.375 136.485 38.6932C136.485 38.0227 136.603 37.4389 136.838 36.9418C137.074 36.4418 137.402 36.0554 137.823 35.7827C138.243 35.5071 138.729 35.3693 139.28 35.3693C139.706 35.3693 140.044 35.4403 140.294 35.5824C140.547 35.7216 140.74 35.8807 140.874 36.0597C141.01 36.2358 141.115 36.3807 141.189 36.4943H141.292V35.4545H142.263V42.1875C142.263 42.75 142.135 43.2074 141.88 43.5597C141.627 43.9148 141.286 44.1747 140.857 44.3395C140.431 44.5071 139.956 44.5909 139.434 44.5909ZM139.4 40.9943C139.803 40.9943 140.144 40.902 140.422 40.7173C140.701 40.5327 140.912 40.267 141.057 39.9205C141.202 39.5739 141.275 39.1591 141.275 38.6761C141.275 38.2045 141.203 37.7884 141.061 37.4276C140.919 37.0668 140.709 36.7841 140.431 36.5795C140.152 36.375 139.809 36.2727 139.4 36.2727C138.973 36.2727 138.618 36.3807 138.334 36.5966C138.053 36.8125 137.841 37.1023 137.699 37.4659C137.56 37.8295 137.49 38.233 137.49 38.6761C137.49 39.1307 137.561 39.5327 137.703 39.8821C137.848 40.2287 138.061 40.5014 138.343 40.7003C138.627 40.8963 138.979 40.9943 139.4 40.9943ZM150.564 32.8636L147.752 43.3125H146.831L149.644 32.8636H150.564ZM157.79 42.1364C157.177 42.1364 156.648 41.9915 156.205 41.7017C155.762 41.4119 155.421 41.0128 155.183 40.5043C154.944 39.9957 154.825 39.4148 154.825 38.7614C154.825 38.0966 154.947 37.5099 155.191 37.0014C155.438 36.4901 155.782 36.0909 156.222 35.804C156.665 35.5142 157.183 35.3693 157.773 35.3693C158.234 35.3693 158.648 35.4545 159.018 35.625C159.387 35.7955 159.69 36.0341 159.925 36.3409C160.161 36.6477 160.308 37.0057 160.364 37.4148H159.359C159.282 37.1165 159.112 36.8523 158.847 36.6222C158.586 36.3892 158.234 36.2727 157.79 36.2727C157.398 36.2727 157.055 36.375 156.759 36.5795C156.467 36.7812 156.238 37.0668 156.073 37.4361C155.911 37.8026 155.83 38.233 155.83 38.7273C155.83 39.233 155.91 39.6733 156.069 40.0483C156.231 40.4233 156.458 40.7145 156.751 40.9219C157.046 41.1293 157.393 41.233 157.79 41.233C158.052 41.233 158.289 41.1875 158.502 41.0966C158.715 41.0057 158.896 40.875 159.043 40.7045C159.191 40.5341 159.296 40.3295 159.359 40.0909H160.364C160.308 40.4773 160.167 40.8253 159.942 41.1349C159.721 41.4418 159.427 41.6861 159.06 41.8679C158.697 42.0469 158.273 42.1364 157.79 42.1364ZM164.494 42.1364C163.903 42.1364 163.384 41.9957 162.938 41.7145C162.495 41.4332 162.148 41.0398 161.898 40.5341C161.651 40.0284 161.528 39.4375 161.528 38.7614C161.528 38.0795 161.651 37.4844 161.898 36.9759C162.148 36.4673 162.495 36.0724 162.938 35.7912C163.384 35.5099 163.903 35.3693 164.494 35.3693C165.085 35.3693 165.602 35.5099 166.045 35.7912C166.491 36.0724 166.837 36.4673 167.085 36.9759C167.335 37.4844 167.46 38.0795 167.46 38.7614C167.46 39.4375 167.335 40.0284 167.085 40.5341C166.837 41.0398 166.491 41.4332 166.045 41.7145C165.602 41.9957 165.085 42.1364 164.494 42.1364ZM164.494 41.233C164.942 41.233 165.312 41.1179 165.602 40.8878C165.891 40.6577 166.106 40.3551 166.245 39.9801C166.384 39.6051 166.454 39.1989 166.454 38.7614C166.454 38.3239 166.384 37.9162 166.245 37.5384C166.106 37.1605 165.891 36.8551 165.602 36.6222C165.312 36.3892 164.942 36.2727 164.494 36.2727C164.045 36.2727 163.675 36.3892 163.386 36.6222C163.096 36.8551 162.881 37.1605 162.742 37.5384C162.603 37.9162 162.533 38.3239 162.533 38.7614C162.533 39.1989 162.603 39.6051 162.742 39.9801C162.881 40.3551 163.096 40.6577 163.386 40.8878C163.675 41.1179 164.045 41.233 164.494 41.233ZM165.38 34.6705L164.494 33.4773L163.607 34.6705H162.653V34.6023L164.033 32.8295H164.954L166.335 34.6023V34.6705H165.38ZM164.494 44.1648C164.298 44.1648 164.129 44.098 163.987 43.9645C163.847 43.831 163.778 43.6705 163.778 43.483C163.778 43.2955 163.847 43.1349 163.987 43.0014C164.129 42.8679 164.298 42.8011 164.494 42.8011C164.69 42.8011 164.857 42.8679 164.996 43.0014C165.138 43.1349 165.21 43.2955 165.21 43.483C165.21 43.6705 165.138 43.831 164.996 43.9645C164.857 44.098 164.69 44.1648 164.494 44.1648ZM171.841 35.4545V36.3068H168.449V35.4545H171.841ZM169.438 33.8864H170.444V40.125C170.444 40.4091 170.485 40.6222 170.567 40.7642C170.652 40.9034 170.76 40.9972 170.891 41.0455C171.025 41.0909 171.165 41.1136 171.313 41.1136C171.424 41.1136 171.515 41.108 171.586 41.0966C171.657 41.0824 171.713 41.071 171.756 41.0625L171.961 41.9659C171.892 41.9915 171.797 42.017 171.675 42.0426C171.553 42.071 171.398 42.0852 171.211 42.0852C170.926 42.0852 170.648 42.0241 170.375 41.902C170.105 41.7798 169.881 41.5938 169.702 41.3438C169.526 41.0938 169.438 40.7784 169.438 40.3977V33.8864Z" fill="black"/>
<path d="M320.926 196.062V200H319.92V191.273H320.926V194.477H321.011C321.165 194.139 321.395 193.871 321.702 193.672C322.011 193.47 322.423 193.369 322.938 193.369C323.384 193.369 323.774 193.459 324.109 193.638C324.445 193.814 324.705 194.085 324.889 194.452C325.077 194.815 325.17 195.278 325.17 195.841V200H324.165V195.909C324.165 195.389 324.03 194.987 323.76 194.703C323.493 194.416 323.122 194.273 322.648 194.273C322.318 194.273 322.023 194.342 321.761 194.482C321.503 194.621 321.298 194.824 321.148 195.091C321 195.358 320.926 195.682 320.926 196.062ZM328.936 200.153C328.522 200.153 328.145 200.075 327.807 199.919C327.469 199.76 327.201 199.531 327.002 199.233C326.803 198.932 326.703 198.568 326.703 198.142C326.703 197.767 326.777 197.463 326.925 197.23C327.073 196.994 327.27 196.81 327.517 196.676C327.765 196.543 328.037 196.443 328.336 196.378C328.637 196.31 328.939 196.256 329.243 196.216C329.641 196.165 329.963 196.126 330.211 196.101C330.461 196.072 330.642 196.026 330.756 195.96C330.873 195.895 330.931 195.781 330.931 195.619V195.585C330.931 195.165 330.816 194.838 330.586 194.605C330.358 194.372 330.013 194.256 329.55 194.256C329.07 194.256 328.694 194.361 328.421 194.571C328.148 194.781 327.956 195.006 327.846 195.244L326.891 194.903C327.061 194.506 327.289 194.196 327.573 193.974C327.86 193.75 328.172 193.594 328.51 193.506C328.851 193.415 329.186 193.369 329.516 193.369C329.726 193.369 329.968 193.395 330.24 193.446C330.516 193.494 330.782 193.595 331.037 193.749C331.296 193.902 331.51 194.134 331.681 194.443C331.851 194.753 331.936 195.168 331.936 195.688V200H330.931V199.114H330.88C330.811 199.256 330.698 199.408 330.539 199.57C330.38 199.732 330.168 199.869 329.904 199.983C329.64 200.097 329.317 200.153 328.936 200.153ZM329.09 199.25C329.488 199.25 329.823 199.172 330.096 199.016C330.371 198.859 330.578 198.658 330.718 198.411C330.86 198.163 330.931 197.903 330.931 197.631V196.71C330.888 196.761 330.794 196.808 330.65 196.851C330.507 196.891 330.343 196.926 330.155 196.957C329.971 196.986 329.79 197.011 329.614 197.034C329.441 197.054 329.3 197.071 329.192 197.085C328.931 197.119 328.686 197.175 328.459 197.251C328.235 197.325 328.053 197.437 327.914 197.588C327.777 197.736 327.709 197.937 327.709 198.193C327.709 198.543 327.838 198.807 328.097 198.986C328.358 199.162 328.689 199.25 329.09 199.25ZM329.158 192.568L327.828 190.591H329.005L330.044 192.568H329.158ZM334.778 196.062V200H333.772V193.455H334.744V194.477H334.829C334.982 194.145 335.215 193.878 335.528 193.676C335.84 193.472 336.244 193.369 336.738 193.369C337.181 193.369 337.569 193.46 337.901 193.642C338.234 193.821 338.492 194.094 338.677 194.46C338.862 194.824 338.954 195.284 338.954 195.841V200H337.948V195.909C337.948 195.395 337.815 194.994 337.548 194.707C337.281 194.418 336.914 194.273 336.448 194.273C336.127 194.273 335.84 194.342 335.587 194.482C335.337 194.621 335.14 194.824 334.995 195.091C334.85 195.358 334.778 195.682 334.778 196.062ZM343.434 202.591C342.948 202.591 342.53 202.528 342.181 202.403C341.831 202.281 341.54 202.119 341.307 201.918C341.077 201.719 340.894 201.506 340.757 201.278L341.559 200.716C341.65 200.835 341.765 200.972 341.904 201.125C342.043 201.281 342.233 201.416 342.475 201.53C342.719 201.646 343.039 201.705 343.434 201.705C343.962 201.705 344.398 201.577 344.742 201.321C345.086 201.065 345.257 200.665 345.257 200.119V198.79H345.172C345.098 198.909 344.993 199.057 344.857 199.233C344.723 199.406 344.53 199.561 344.277 199.697C344.027 199.831 343.689 199.898 343.263 199.898C342.735 199.898 342.26 199.773 341.84 199.523C341.422 199.273 341.091 198.909 340.847 198.432C340.605 197.955 340.485 197.375 340.485 196.693C340.485 196.023 340.603 195.439 340.838 194.942C341.074 194.442 341.402 194.055 341.823 193.783C342.243 193.507 342.729 193.369 343.28 193.369C343.706 193.369 344.044 193.44 344.294 193.582C344.547 193.722 344.74 193.881 344.874 194.06C345.01 194.236 345.115 194.381 345.189 194.494H345.292V193.455H346.263V200.188C346.263 200.75 346.135 201.207 345.88 201.56C345.627 201.915 345.286 202.175 344.857 202.339C344.431 202.507 343.956 202.591 343.434 202.591ZM343.4 198.994C343.803 198.994 344.144 198.902 344.422 198.717C344.701 198.533 344.912 198.267 345.057 197.92C345.202 197.574 345.275 197.159 345.275 196.676C345.275 196.205 345.203 195.788 345.061 195.428C344.919 195.067 344.709 194.784 344.431 194.58C344.152 194.375 343.809 194.273 343.4 194.273C342.973 194.273 342.618 194.381 342.334 194.597C342.053 194.812 341.841 195.102 341.699 195.466C341.56 195.83 341.49 196.233 341.49 196.676C341.49 197.131 341.561 197.533 341.703 197.882C341.848 198.229 342.061 198.501 342.343 198.7C342.627 198.896 342.979 198.994 343.4 198.994ZM354.564 190.864L351.752 201.312H350.831L353.644 190.864H354.564ZM361.79 200.136C361.177 200.136 360.648 199.991 360.205 199.702C359.762 199.412 359.421 199.013 359.183 198.504C358.944 197.996 358.825 197.415 358.825 196.761C358.825 196.097 358.947 195.51 359.191 195.001C359.438 194.49 359.782 194.091 360.222 193.804C360.665 193.514 361.183 193.369 361.773 193.369C362.234 193.369 362.648 193.455 363.018 193.625C363.387 193.795 363.69 194.034 363.925 194.341C364.161 194.648 364.308 195.006 364.364 195.415H363.359C363.282 195.116 363.112 194.852 362.847 194.622C362.586 194.389 362.234 194.273 361.79 194.273C361.398 194.273 361.055 194.375 360.759 194.58C360.467 194.781 360.238 195.067 360.073 195.436C359.911 195.803 359.83 196.233 359.83 196.727C359.83 197.233 359.91 197.673 360.069 198.048C360.231 198.423 360.458 198.714 360.751 198.922C361.046 199.129 361.393 199.233 361.79 199.233C362.052 199.233 362.289 199.188 362.502 199.097C362.715 199.006 362.896 198.875 363.043 198.705C363.191 198.534 363.296 198.33 363.359 198.091H364.364C364.308 198.477 364.167 198.825 363.942 199.135C363.721 199.442 363.427 199.686 363.06 199.868C362.697 200.047 362.273 200.136 361.79 200.136ZM368.494 200.136C367.903 200.136 367.384 199.996 366.938 199.714C366.495 199.433 366.148 199.04 365.898 198.534C365.651 198.028 365.528 197.437 365.528 196.761C365.528 196.08 365.651 195.484 365.898 194.976C366.148 194.467 366.495 194.072 366.938 193.791C367.384 193.51 367.903 193.369 368.494 193.369C369.085 193.369 369.602 193.51 370.045 193.791C370.491 194.072 370.837 194.467 371.085 194.976C371.335 195.484 371.46 196.08 371.46 196.761C371.46 197.437 371.335 198.028 371.085 198.534C370.837 199.04 370.491 199.433 370.045 199.714C369.602 199.996 369.085 200.136 368.494 200.136ZM368.494 199.233C368.942 199.233 369.312 199.118 369.602 198.888C369.891 198.658 370.106 198.355 370.245 197.98C370.384 197.605 370.454 197.199 370.454 196.761C370.454 196.324 370.384 195.916 370.245 195.538C370.106 195.161 369.891 194.855 369.602 194.622C369.312 194.389 368.942 194.273 368.494 194.273C368.045 194.273 367.675 194.389 367.386 194.622C367.096 194.855 366.881 195.161 366.742 195.538C366.603 195.916 366.533 196.324 366.533 196.761C366.533 197.199 366.603 197.605 366.742 197.98C366.881 198.355 367.096 198.658 367.386 198.888C367.675 199.118 368.045 199.233 368.494 199.233ZM369.38 192.67L368.494 191.477L367.607 192.67H366.653V192.602L368.033 190.83H368.954L370.335 192.602V192.67H369.38ZM368.494 202.165C368.298 202.165 368.129 202.098 367.987 201.964C367.847 201.831 367.778 201.67 367.778 201.483C367.778 201.295 367.847 201.135 367.987 201.001C368.129 200.868 368.298 200.801 368.494 200.801C368.69 200.801 368.857 200.868 368.996 201.001C369.138 201.135 369.21 201.295 369.21 201.483C369.21 201.67 369.138 201.831 368.996 201.964C368.857 202.098 368.69 202.165 368.494 202.165ZM375.841 193.455V194.307H372.449V193.455H375.841ZM373.438 191.886H374.444V198.125C374.444 198.409 374.485 198.622 374.567 198.764C374.652 198.903 374.76 198.997 374.891 199.045C375.025 199.091 375.165 199.114 375.313 199.114C375.424 199.114 375.515 199.108 375.586 199.097C375.657 199.082 375.713 199.071 375.756 199.062L375.961 199.966C375.892 199.991 375.797 200.017 375.675 200.043C375.553 200.071 375.398 200.085 375.211 200.085C374.926 200.085 374.648 200.024 374.375 199.902C374.105 199.78 373.881 199.594 373.702 199.344C373.526 199.094 373.438 198.778 373.438 198.398V191.886Z" fill="black"/>
<path d="M129.972 84.2727V93H128.915V85.3807H128.864L126.733 86.7955V85.7216L128.915 84.2727H129.972ZM135.584 83.8636L132.771 94.3125H131.851L134.663 83.8636H135.584ZM139.827 84.2727V93H138.77V85.3807H138.719L136.588 86.7955V85.7216L138.77 84.2727H139.827Z" fill="black"/>
<path d="M203.097 193.631V191.023L214.602 172.818H216.494V176.858H215.216L206.523 190.614V190.818H222.017V193.631H203.097ZM215.42 199V192.838V191.624V172.818H218.438V199H215.42ZM236.115 171.591L227.677 202.938H224.916L233.353 171.591H236.115ZM248.487 199.358C246.799 199.358 245.295 199.068 243.974 198.489C242.661 197.909 241.617 197.104 240.842 196.072C240.075 195.033 239.657 193.827 239.589 192.455H242.81C242.879 193.298 243.168 194.027 243.68 194.641C244.191 195.246 244.86 195.714 245.687 196.047C246.513 196.379 247.43 196.545 248.435 196.545C249.56 196.545 250.558 196.349 251.427 195.957C252.296 195.565 252.978 195.02 253.472 194.321C253.967 193.622 254.214 192.812 254.214 191.892C254.214 190.929 253.975 190.081 253.498 189.348C253.021 188.607 252.322 188.027 251.401 187.609C250.481 187.192 249.356 186.983 248.026 186.983H245.93V184.17H248.026C249.066 184.17 249.978 183.983 250.762 183.608C251.555 183.233 252.173 182.705 252.616 182.023C253.067 181.341 253.293 180.54 253.293 179.619C253.293 178.733 253.097 177.962 252.705 177.305C252.313 176.649 251.759 176.138 251.043 175.771C250.336 175.405 249.501 175.222 248.538 175.222C247.634 175.222 246.782 175.388 245.981 175.72C245.188 176.044 244.54 176.517 244.038 177.139C243.535 177.753 243.262 178.494 243.219 179.364H240.151C240.202 177.991 240.616 176.79 241.391 175.759C242.167 174.719 243.181 173.909 244.434 173.33C245.695 172.75 247.08 172.46 248.589 172.46C250.208 172.46 251.597 172.788 252.756 173.445C253.915 174.092 254.806 174.949 255.428 176.014C256.05 177.08 256.362 178.23 256.362 179.466C256.362 180.94 255.974 182.197 255.198 183.237C254.431 184.277 253.387 184.997 252.066 185.398V185.602C253.719 185.875 255.011 186.578 255.94 187.712C256.869 188.837 257.333 190.23 257.333 191.892C257.333 193.315 256.945 194.594 256.17 195.727C255.403 196.852 254.354 197.739 253.025 198.386C251.695 199.034 250.183 199.358 248.487 199.358Z" fill="black"/>
<path d="M495.528 364L507.239 340.835V340.631H493.739V337.818H510.511V340.784L498.852 364H495.528ZM524.583 336.591L516.146 367.938H513.385L521.822 336.591H524.583ZM536.29 364.358C534.79 364.358 533.44 364.06 532.238 363.463C531.036 362.866 530.073 362.048 529.349 361.009C528.624 359.969 528.228 358.784 528.16 357.455H531.228C531.347 358.639 531.884 359.619 532.839 360.395C533.802 361.162 534.952 361.545 536.29 361.545C537.364 361.545 538.319 361.294 539.154 360.791C539.998 360.288 540.658 359.598 541.136 358.72C541.621 357.834 541.864 356.832 541.864 355.716C541.864 354.574 541.613 353.555 541.11 352.661C540.616 351.757 539.934 351.045 539.065 350.526C538.195 350.006 537.202 349.741 536.086 349.733C535.285 349.724 534.462 349.848 533.619 350.104C532.775 350.351 532.08 350.67 531.535 351.062L528.569 350.705L530.154 337.818H543.756V340.631H532.813L531.893 348.352H532.046C532.583 347.926 533.256 347.572 534.066 347.291C534.876 347.01 535.719 346.869 536.597 346.869C538.2 346.869 539.627 347.253 540.88 348.02C542.141 348.778 543.13 349.818 543.846 351.139C544.57 352.46 544.933 353.969 544.933 355.665C544.933 357.335 544.558 358.827 543.808 360.139C543.066 361.443 542.043 362.474 540.739 363.233C539.435 363.983 537.952 364.358 536.29 364.358Z" fill="black"/>
<path d="M107.545 57.2069C107.659 57.4583 107.956 57.5695 108.207 57.4552L112.304 55.5931C112.555 55.4788 112.666 55.1824 112.552 54.931C112.438 54.6796 112.141 54.5684 111.89 54.6827L108.248 56.3379L106.593 52.6964C106.479 52.4451 106.182 52.3339 105.931 52.4482C105.68 52.5624 105.568 52.8589 105.683 53.1103L107.545 57.2069ZM113.532 40.8244L107.532 56.8244L108.468 57.1756L114.468 41.1756L113.532 40.8244Z" fill="black"/>
<path d="M294.529 211.834C294.437 212.094 294.573 212.38 294.834 212.471L299.077 213.969C299.337 214.061 299.623 213.924 299.715 213.664C299.807 213.404 299.67 213.118 299.41 213.026L295.638 211.695L296.969 207.923C297.061 207.663 296.925 207.377 296.664 207.285C296.404 207.193 296.118 207.33 296.026 207.59L294.529 211.834ZM317.784 200.549L294.784 211.549L295.216 212.451L318.216 201.451L317.784 200.549Z" fill="black"/>
<path d="M111 71.5C110.724 71.5 110.5 71.7239 110.5 72V76.5C110.5 76.7761 110.724 77 111 77C111.276 77 111.5 76.7761 111.5 76.5V72.5H115.5C115.776 72.5 116 72.2761 116 72C116 71.7239 115.776 71.5 115.5 71.5H111ZM123.354 83.6464L111.354 71.6464L110.646 72.3536L122.646 84.3536L123.354 83.6464Z" fill="black"/>
<path d="M278.045 208.498C278.32 208.473 278.523 208.23 278.498 207.955L278.091 203.473C278.066 203.198 277.822 202.996 277.547 203.021C277.272 203.046 277.07 203.289 277.095 203.564L277.457 207.547L273.473 207.909C273.198 207.934 272.996 208.178 273.021 208.453C273.046 208.728 273.289 208.93 273.564 208.905L278.045 208.498ZM259.68 193.384L277.68 208.384L278.32 207.616L260.32 192.616L259.68 193.384Z" fill="black"/>
<path d="M279.768 219.768C280.744 218.791 280.744 217.209 279.768 216.232L263.858 200.322C262.882 199.346 261.299 199.346 260.322 200.322C259.346 201.299 259.346 202.882 260.322 203.858L274.464 218L260.322 232.142C259.346 233.118 259.346 234.701 260.322 235.678C261.299 236.654 262.882 236.654 263.858 235.678L279.768 219.768ZM31 220.5H278V215.5H31V220.5Z" fill="#FF0000"/>
<path d="M287.232 206.768C288.209 207.744 289.791 207.744 290.768 206.768L306.678 190.858C307.654 189.882 307.654 188.299 306.678 187.322C305.701 186.346 304.118 186.346 303.142 187.322L289 201.464L274.858 187.322C273.882 186.346 272.299 186.346 271.322 187.322C270.346 188.299 270.346 189.882 271.322 190.858L287.232 206.768ZM286.5 11L286.5 205L291.5 205L291.5 11L286.5 11Z" fill="#FF5500"/>
<rect x="289" y="218" width="187" height="153" fill="#FF5500"/>
<circle cx="475.5" cy="370.5" r="6.5" fill="#00FF00"/>
<circle cx="289" cy="218" r="5" fill="#00FF00"/>
</g>
<defs>
<clipPath id="clip0_1198_9128">
<rect width="600" height="400" fill="white"/>
</clipPath>
</defs>
</svg>
