<svg width="10" height="6" viewBox="0 0 10 6" fill="none" xmlns="http://www.w3.org/2000/svg">
<path d="M4.99784 5.49994L4.99705 5.49995C4.93125 5.50033 4.86602 5.48772 4.8051 5.46283C4.74443 5.43806 4.68923 5.4016 4.64264 5.35553C4.64244 5.35534 4.64225 5.35514 4.64205 5.35495L0.643495 1.35639C0.548959 1.26185 0.49585 1.13363 0.49585 0.999941C0.49585 0.866247 0.548959 0.73803 0.643495 0.643494C0.73803 0.548959 0.866247 0.49585 0.999941 0.49585C1.13353 0.49585 1.26166 0.548878 1.35617 0.643277C1.35624 0.643349 1.35632 0.643422 1.35639 0.643494L4.64585 3.94296L4.9994 4.29758L5.35349 3.94349L8.62749 0.669497C8.72127 0.594252 8.8392 0.555202 8.95969 0.559857C9.08553 0.564717 9.2049 0.616884 9.29395 0.705932C9.383 0.794977 9.43516 0.914346 9.44002 1.04019C9.44468 1.16068 9.40563 1.27861 9.33039 1.37239L5.34784 5.35495C5.34764 5.35514 5.34745 5.35533 5.34725 5.35553C5.25418 5.44754 5.12873 5.49939 4.99784 5.49994Z" fill="#A098AE" stroke="#A098AE"/>
</svg>
